<svg version="1.1" id="Layer_1" xmlns="http://www.w3.org/2000/svg" xmlns:xlink="http://www.w3.org/1999/xlink" x="0px" y="0px"
	 width="100%" viewBox="0 0 592 640" enable-background="new 0 0 592 640" xml:space="preserve">
<path fill="#000000" opacity="1.000000" stroke="none" 
	d="
M262.454102,641.000000 
	C262.498352,637.143555 264.077789,635.711182 268.401062,636.612061 
	C272.507721,637.467834 275.907288,634.617126 278.567932,631.675598 
	C280.468689,629.574097 282.552002,628.163574 285.265717,627.708862 
	C299.636444,625.300903 309.723175,615.226257 312.381775,600.777161 
	C312.822906,598.379761 311.904846,596.544250 310.907623,594.639893 
	C309.234619,591.445129 308.855865,588.337769 311.187622,585.272766 
	C311.896423,584.341064 312.798126,583.231018 312.014221,582.109131 
	C309.477509,578.478394 307.977203,574.670166 308.460510,570.100586 
	C308.594025,568.838440 307.189667,567.896118 305.747375,567.543518 
	C302.194916,566.675232 294.538635,570.631958 293.557922,574.273132 
	C292.708496,577.427002 292.071198,578.888062 288.588684,576.477539 
	C286.252014,574.860107 283.589905,576.766541 281.201263,577.774536 
	C279.850677,578.344482 279.311127,580.196777 276.926880,580.086670 
	C278.415039,573.046570 281.805237,567.328186 287.978394,564.056335 
	C291.340027,562.274658 293.834778,559.706848 296.589172,557.412781 
	C299.716217,554.808228 299.298035,551.620789 296.216614,548.872070 
	C291.951111,545.067261 287.757294,541.181335 283.458710,537.414612 
	C280.949188,535.215576 280.818756,533.474915 284.364136,532.749634 
	C286.251801,532.363525 287.821167,531.777344 287.635773,529.793152 
	C287.305115,526.253601 289.609283,525.719116 292.139709,525.117126 
	C295.945282,524.211731 300.665863,523.126282 302.958191,526.252686 
	C306.104370,530.543762 307.780670,535.776550 314.839722,534.455872 
	C314.367371,535.799805 313.895020,537.143738 313.153961,539.252136 
	C317.583038,537.446655 322.172638,537.173218 322.400848,531.596191 
	C322.857544,531.451599 323.276703,531.170044 323.464783,531.280823 
	C330.535492,535.445618 337.456146,535.443237 344.529297,531.076843 
	C347.597198,529.182983 350.488495,530.373291 352.987915,532.853088 
	C354.263916,534.119019 355.889740,535.032410 357.321686,536.079102 
	C358.257538,535.479248 357.856995,534.724854 357.526886,534.328003 
	C353.743073,529.779358 354.146942,526.380432 360.019409,524.152100 
	C361.973724,523.410461 362.270691,521.316040 361.427612,519.906677 
	C357.894257,514.000183 360.683350,509.447784 364.126556,504.890198 
	C364.710663,504.117035 365.004181,503.124359 365.639709,501.800323 
	C360.631409,499.206848 362.073914,494.436768 361.482361,490.115631 
	C360.637146,483.941589 364.953522,482.649567 369.594025,481.050598 
	C367.938110,476.619232 368.068573,472.866516 372.035553,469.804871 
	C373.587860,468.606812 373.064301,466.459808 371.365570,464.717560 
	C368.781921,464.981628 366.115265,468.442871 363.438568,464.353699 
	C361.314087,467.640167 359.493652,470.199005 357.950592,472.915436 
	C356.393036,475.657257 354.031006,475.899506 353.285583,473.196747 
	C351.201874,465.641815 345.152222,460.062836 343.520752,452.373138 
	C342.549652,447.795929 339.546448,444.367035 336.621094,440.953949 
	C334.037323,437.939392 334.222107,435.196320 334.922272,431.126495 
	C336.428741,422.369049 343.067352,415.889069 344.141602,407.271729 
	C344.634064,403.321106 349.818176,403.110718 349.987152,398.927856 
	C346.220673,396.385834 342.390015,398.154999 338.725555,398.591217 
	C337.407013,399.707733 338.377167,400.874786 338.366028,401.964508 
	C338.347229,403.805206 337.300018,406.112427 335.938324,405.807007 
	C329.519714,404.367126 326.474457,409.361542 322.213837,412.176147 
	C316.332153,416.061523 310.856110,415.326355 305.385498,410.514404 
	C303.045074,408.455780 299.484467,408.690735 296.903320,406.309814 
	C303.058441,409.738373 299.151794,415.208893 299.858459,419.571930 
	C300.232819,421.883453 297.711609,423.084412 295.111176,422.075378 
	C292.240448,420.961487 289.783447,419.170868 288.003876,416.732727 
	C285.227173,412.928497 281.306366,410.895233 277.266571,408.886841 
	C275.483856,408.000488 274.067566,408.359955 272.664001,409.471252 
	C271.084381,410.721985 271.176208,412.304810 271.837646,413.985931 
	C273.345734,417.818970 275.023468,421.606964 275.195618,426.154938 
	C271.670990,426.186462 269.140411,424.873810 268.756683,421.422607 
	C268.241669,416.790802 265.841614,413.398010 262.747711,410.267181 
	C259.594025,407.075897 257.545807,403.407135 257.683472,398.749023 
	C257.768219,395.880096 258.576447,393.540955 261.477783,392.313812 
	C262.358429,391.941345 263.606415,391.334045 263.797180,390.602539 
	C265.991669,382.185760 273.595490,376.579285 275.126434,367.547668 
	C275.793304,363.613556 277.527435,358.447083 282.532074,356.429474 
	C283.872833,355.888947 284.497192,354.673706 284.646423,353.257935 
	C284.987000,350.027191 281.030884,343.162537 277.946350,341.598114 
	C272.385529,338.777710 269.353241,331.382202 271.399445,325.706940 
	C272.277527,323.271515 271.835846,320.771851 271.667877,318.099518 
	C268.670929,321.051178 266.256256,323.816467 268.337830,328.432404 
	C268.884277,329.644135 269.115997,332.358215 266.817871,333.145050 
	C264.914093,333.796844 264.607483,331.606873 263.534546,330.729553 
	C261.512543,329.076202 260.329498,326.993927 259.592804,324.343323 
	C257.423187,324.362335 255.363007,323.882324 252.717392,322.767578 
	C253.933380,327.261871 252.473190,330.042725 249.022751,332.503418 
	C246.448135,334.339447 245.446732,338.160004 245.676117,341.057526 
	C246.046173,345.731750 244.268478,349.703766 243.180038,353.902802 
	C242.583298,356.204956 242.108414,358.224152 242.826263,360.669067 
	C244.166504,365.233826 241.929626,368.437897 237.271362,369.347748 
	C236.619614,369.475067 235.932541,369.454285 235.298111,369.631775 
	C232.984634,370.278931 230.388870,372.342072 228.432022,369.719513 
	C226.646957,367.327118 226.711121,363.435425 228.368118,361.693420 
	C234.727371,355.008026 230.879684,346.273041 234.191147,338.657959 
	C232.657303,339.057739 231.639923,339.322876 230.362259,339.655884 
	C228.907059,336.468811 230.182083,334.156738 231.724426,332.034088 
	C234.235748,331.551636 233.443420,334.394257 235.074921,334.691254 
	C236.737823,333.567749 238.007126,331.597870 236.878540,330.113129 
	C233.501984,325.670959 235.179520,320.108978 232.987686,315.389160 
	C231.158798,311.450897 233.963501,307.781708 235.932022,304.752106 
	C238.242920,301.195557 239.309296,298.111206 236.963211,294.189850 
	C231.177261,305.859589 227.761292,318.866577 218.757462,328.622589 
	C218.295181,328.396179 217.832886,328.169739 217.370605,327.943329 
	C217.415634,328.750702 217.328674,329.592041 217.526093,330.360260 
	C219.553299,338.248810 219.033066,339.409546 211.477890,342.254364 
	C209.966873,342.823303 208.975784,343.806122 207.915863,344.851501 
	C206.591080,346.158142 205.113174,346.620422 203.430588,345.487152 
	C201.644958,344.284424 202.038727,342.650360 202.591415,341.017548 
	C202.802811,340.393036 203.046707,339.741760 203.435532,339.222229 
	C204.575485,337.698914 204.947647,336.184357 203.361099,334.800110 
	C201.662842,333.318481 200.334641,334.271484 199.117386,335.639893 
	C198.677170,336.134766 198.156189,336.563934 197.640167,336.983917 
	C196.718079,337.734467 195.724838,338.484955 194.495636,337.751068 
	C193.204666,336.980316 192.614426,335.738953 193.278091,334.337524 
	C194.869873,330.976318 194.782562,327.279541 195.565994,323.760651 
	C195.864151,322.421387 196.132523,321.008453 197.576218,320.537628 
	C203.322006,318.663727 207.868027,313.626587 214.682434,314.388184 
	C216.525604,314.594208 217.486450,312.334167 218.117188,310.583069 
	C218.850830,308.546265 219.181107,305.986572 221.019852,304.887390 
	C227.933350,300.754608 231.718582,294.059448 234.209869,287.095154 
	C235.644043,283.085938 239.395096,279.845367 238.663300,274.939178 
	C238.387711,273.091492 240.556885,272.451782 241.924118,271.537689 
	C243.384384,270.561371 245.205093,269.660736 243.954758,267.366364 
	C242.022049,266.905640 241.327744,268.983093 239.569351,268.971405 
	C237.823334,268.697357 239.239914,266.556824 237.825027,265.685638 
	C236.203613,265.782837 235.396896,266.191895 236.123428,268.416931 
	C238.443024,275.520752 232.211273,282.983032 224.871674,282.257477 
	C219.821579,281.758240 215.421555,284.689941 210.469452,285.237030 
	C203.088684,286.052338 203.131561,286.440552 197.280884,281.730072 
	C197.331680,279.174591 198.713776,277.194031 201.209885,277.958588 
	C207.425171,279.862457 209.313019,276.306274 210.544769,270.691101 
	C206.414459,269.403107 202.642975,266.910950 202.009689,261.887329 
	C201.282394,256.117950 206.536072,254.451096 209.806152,251.653534 
	C206.510910,243.911728 206.961960,242.989899 215.425644,241.466690 
	C220.829330,240.494202 224.869476,237.597443 228.257553,233.332932 
	C226.978378,231.133118 223.888138,233.864960 222.340836,230.672714 
	C225.406860,227.542648 225.930679,222.690872 227.809448,218.419525 
	C229.433212,214.727875 230.763855,211.388260 233.712784,208.612122 
	C234.167740,208.183823 233.096390,206.872620 231.484573,206.583252 
	C230.369278,210.952225 226.302567,213.329254 224.017075,217.110153 
	C222.811447,219.104660 220.537338,220.765228 218.090469,219.414261 
	C215.723022,218.107162 216.804794,215.819031 217.286026,213.621292 
	C217.813156,211.214081 219.648193,209.074890 219.206802,205.991470 
	C216.570999,206.592285 215.185898,215.145508 211.825333,206.072388 
	C210.645203,207.990601 209.865677,209.257629 208.992966,210.676163 
	C200.268845,205.382980 194.484253,199.028534 194.897903,189.032501 
	C191.977692,188.810699 192.689072,191.551758 190.570129,191.908859 
	C188.056854,190.618011 184.798981,190.090225 182.730270,186.974350 
	C180.275146,183.276428 180.116882,179.722733 182.215805,175.991150 
	C183.732300,173.295074 185.787186,176.476349 187.356415,175.778610 
	C189.578522,173.703644 186.535553,172.452225 186.853500,170.704666 
	C187.148987,169.080643 187.055374,167.354599 188.787048,166.001862 
	C192.911774,166.753418 192.299713,173.402283 197.531998,173.158096 
	C199.569916,171.788635 199.140167,169.360077 198.578995,167.492004 
	C197.595840,164.219116 198.704132,162.168732 200.556992,159.461914 
	C203.166840,155.649200 204.609299,156.907501 207.007050,159.302872 
	C212.896042,165.186005 214.361633,172.389282 213.131485,181.079865 
	C218.909027,178.030685 216.867264,171.446304 222.153870,167.152115 
	C221.343903,178.124512 215.972412,188.509048 226.218048,197.245667 
	C230.758072,197.890427 231.360916,191.871246 234.665237,189.130966 
	C232.680084,189.956436 230.797195,191.319870 228.597473,190.010284 
	C226.333191,188.662308 227.090500,186.153168 226.285294,184.280945 
	C224.703751,180.603577 224.334045,176.912262 224.901382,173.064484 
	C225.349411,170.025970 225.861954,166.920578 231.443787,168.015350 
	C227.410553,164.481491 226.876328,161.663666 228.630722,157.653564 
	C229.810730,154.956406 227.214554,151.656815 227.235352,148.279053 
	C227.258667,144.487350 227.821136,142.081665 231.956116,141.653458 
	C233.111801,141.533768 234.066467,141.238907 234.940094,140.189682 
	C238.649445,135.734650 239.016418,135.804245 241.944138,140.666397 
	C242.387527,141.402756 242.846619,142.061066 244.523849,142.038971 
	C245.622147,135.601715 250.830200,136.119125 257.334564,137.373611 
	C253.279892,133.629700 250.580750,131.245224 248.011047,128.728607 
	C246.146866,126.902946 243.553757,124.970352 245.438171,121.992783 
	C247.371292,118.938293 249.503082,122.704079 251.909622,122.342010 
	C254.033951,118.240341 251.095459,115.281570 249.384903,112.081795 
	C248.626175,110.662514 246.951080,109.518227 247.819016,107.630836 
	C248.902359,105.274994 250.690155,107.258537 252.077957,107.011757 
	C254.107498,106.650887 255.979691,106.027908 258.173462,106.179352 
	C259.820404,106.293045 259.899109,104.430237 259.340393,103.075485 
	C257.574677,98.794121 258.472748,94.940712 261.051636,91.305908 
	C261.337646,90.902779 261.847992,90.263786 261.717926,90.017784 
	C257.701965,82.422318 266.980469,79.041229 266.796600,72.525467 
	C273.988464,72.396240 279.996033,74.355217 285.033630,79.674553 
	C287.268921,76.382912 290.529816,75.296997 293.224182,77.281349 
	C301.406189,83.307213 307.962616,77.815140 315.801422,75.129738 
	C320.317902,78.677292 325.398132,78.270218 330.412933,74.122696 
	C333.065430,71.928932 336.306610,72.025131 339.363159,73.028938 
	C341.047241,73.582008 342.592224,73.559586 344.237915,73.375786 
	C343.947968,68.166458 344.574707,67.953308 349.347473,69.110931 
	C352.974396,69.990623 356.875977,70.112862 360.633606,69.975784 
	C364.561615,69.832504 364.873169,71.831192 364.062164,74.654930 
	C363.471100,76.712830 362.548248,78.696831 361.588806,80.621834 
	C360.508057,82.790207 360.132019,83.954727 362.278717,86.442924 
	C365.208923,89.839211 361.873016,94.102943 360.031616,97.363396 
	C358.139771,100.713158 355.615051,104.009827 351.260193,105.038063 
	C349.158478,105.534302 347.198639,106.853996 346.077942,108.766350 
	C341.642059,116.335815 334.628387,121.045517 327.826508,126.153877 
	C324.501190,128.651260 322.114746,132.285355 318.579376,134.879395 
	C315.317566,137.272690 317.656647,144.208511 321.277222,145.269836 
	C324.169830,146.117737 324.479614,141.635513 328.347778,143.328339 
	C324.852081,151.628510 318.594208,158.252075 314.042603,165.861069 
	C318.839752,167.935867 322.908325,167.545441 326.858948,163.984650 
	C329.417908,161.678238 332.590088,160.001038 336.431580,160.588791 
	C338.086334,160.841980 338.989594,159.602249 340.044708,158.411758 
	C343.052246,155.018356 349.246033,154.114517 353.243073,156.323624 
	C358.367645,159.155914 363.466492,161.461090 369.056610,157.375580 
	C370.359283,156.423553 371.767029,156.788086 373.324371,157.078873 
	C378.861664,158.112839 384.444855,159.371109 390.036407,159.510452 
	C395.496552,159.646545 401.024597,158.747482 406.457581,157.889557 
	C414.726501,156.583786 419.432556,159.495682 423.369904,168.569138 
	C427.428711,177.922440 423.296051,184.381012 417.699677,191.011627 
	C413.450745,196.045761 410.367889,201.611572 411.683685,208.735428 
	C412.256592,211.837311 410.292297,214.504288 408.784119,217.058380 
	C406.724030,220.547089 405.178467,224.082901 404.872314,228.231964 
	C404.523834,232.954590 402.023254,237.438446 398.409210,239.644150 
	C392.655151,243.155960 392.879211,248.944916 391.117096,253.919052 
	C390.189514,256.537445 389.301575,258.984955 387.140686,260.550385 
	C384.282715,262.620819 381.503845,264.785919 379.510040,267.646851 
	C378.036804,269.760834 376.296082,268.570068 374.535522,268.679871 
	C375.067047,270.009888 375.631958,271.203339 375.373718,272.566986 
	C374.582428,276.745178 375.949951,279.166382 380.489410,279.884216 
	C382.795654,280.248901 384.679596,282.199646 385.161041,284.614502 
	C385.622009,286.926422 383.611359,288.365967 381.980835,289.288300 
	C378.138641,291.461761 374.641113,295.748322 369.411163,292.200348 
	C368.629242,291.669891 367.785126,291.935425 367.123688,292.542877 
	C364.195068,295.232483 360.414246,297.189148 358.634766,300.867859 
	C357.476898,303.261414 355.940552,304.478546 353.497437,304.994324 
	C351.706360,305.372467 349.989288,305.975952 349.215698,307.914246 
	C350.311584,310.141541 352.327637,309.529968 354.063812,309.594055 
	C355.714722,309.655029 357.275421,309.547577 358.861359,310.485626 
	C363.104156,312.995087 367.545227,311.642273 370.038330,307.314178 
	C373.202728,301.820709 379.686951,301.352539 384.809479,304.746063 
	C390.519714,308.528900 395.655731,313.727783 403.294708,314.177032 
	C407.067688,314.398926 409.141449,317.718414 410.924408,320.736176 
	C412.359375,323.165070 413.518585,325.763123 414.707123,328.329163 
	C415.490906,330.021423 416.305542,332.264496 417.895721,332.643158 
	C423.422424,333.959229 425.549438,339.006561 429.174561,342.322174 
	C433.914825,346.657715 435.168427,353.160492 434.618378,358.852356 
	C434.173615,363.455139 435.192902,368.057922 436.257355,371.549164 
	C438.154358,377.770966 437.510529,384.847717 441.786438,390.390137 
	C446.353607,396.310150 444.791229,404.162720 447.900635,410.606812 
	C451.975098,419.051025 456.508911,426.460907 466.746033,429.051453 
	C478.883179,432.122803 488.059113,439.219788 491.805786,451.932587 
	C492.561218,454.495819 494.613342,456.229980 496.320374,458.257843 
	C499.263275,461.753815 502.012573,464.952545 506.392365,466.803528 
	C508.461853,467.678131 507.683746,469.536163 505.597198,470.350739 
	C501.159088,472.083313 501.044678,475.216278 502.181213,479.304871 
	C504.527130,487.744019 509.759308,494.426361 514.778259,501.271912 
	C516.458252,503.563354 518.143616,505.795410 518.564697,508.755707 
	C518.814392,510.510986 518.984985,512.048645 516.644653,513.161133 
	C515.174377,507.694580 512.004456,507.217377 507.503876,510.535400 
	C510.009094,513.260315 512.522644,515.856323 515.382202,518.321167 
	C524.376587,526.074097 528.519409,536.277405 528.762390,548.068604 
	C528.820312,550.880249 527.411926,552.949524 525.139587,554.780212 
	C521.428711,557.769836 517.479858,560.703857 515.887939,565.836182 
	C517.954102,567.742798 520.056335,569.582886 521.969177,571.627197 
	C525.049377,574.919189 529.506531,573.625549 531.644897,569.214539 
	C536.269226,559.675415 537.341064,559.178406 548.282410,560.492676 
	C554.116882,561.193481 559.964172,561.214600 565.847839,562.217224 
	C573.656860,563.547852 579.943054,566.721558 585.548462,571.950928 
	C587.731262,573.987305 590.088440,575.836853 592.683105,577.885742 
	C593.000000,579.388916 593.000000,580.777771 592.712891,582.411255 
	C591.761902,581.916199 591.139526,581.133667 590.427429,580.443726 
	C584.586548,574.784424 579.397217,567.804810 571.234680,565.727722 
	C560.978577,563.117920 550.303223,563.030518 539.702576,563.206482 
	C537.171387,563.248535 535.193909,564.269409 535.036499,566.736511 
	C534.517273,574.874084 526.978027,577.916626 522.191895,581.371277 
	C517.959229,584.426453 513.546570,589.745789 506.448517,589.255554 
	C503.650848,589.062317 500.620605,588.871704 497.720001,588.728394 
	C494.504639,588.569458 492.030212,589.417297 489.650482,591.997131 
	C492.393127,594.184998 492.474426,597.622559 494.575592,600.084290 
	C496.076721,601.843018 495.665070,604.254883 494.241119,606.131531 
	C492.086487,608.971008 489.126007,611.087402 488.717407,615.258423 
	C488.531799,617.153076 486.360657,620.019409 484.648743,620.386597 
	C478.761963,621.649170 481.419617,625.034180 482.377991,627.834839 
	C482.966644,629.555054 484.409058,631.136719 483.073273,632.910950 
	C481.221497,635.370422 481.351013,638.220703 481.000000,641.000000 
	C479.933319,641.000000 478.866669,641.000000 477.556976,640.656860 
	C477.516022,639.183411 477.671356,638.042053 477.934448,636.926208 
	C478.158569,635.975586 478.313904,634.924316 478.838196,634.145447 
	C480.142761,632.207336 480.775818,630.448608 479.191803,628.272949 
	C478.105316,626.780640 476.836670,627.053040 475.697174,627.609131 
	C473.670258,628.598328 471.121368,629.444214 471.402100,632.395813 
	C471.728088,635.823059 469.793274,637.479919 467.277496,638.869873 
	C461.530945,634.262207 459.966553,634.617371 457.000000,641.000000 
	C453.969391,641.000000 450.938812,641.000000 447.512482,640.690979 
	C446.996277,639.428040 447.005798,638.434387 446.728394,637.528503 
	C446.134979,635.590515 446.079742,633.114136 442.997742,633.311157 
	C440.255280,633.486450 439.626160,635.571472 439.125977,637.648743 
	C438.869415,638.714172 439.028687,639.879700 439.000000,641.000000 
	C437.611115,641.000000 436.222198,641.000000 434.556641,640.679749 
	C435.589447,638.832153 436.599426,637.262207 436.831451,635.102783 
	C437.091522,632.682129 438.571045,630.739075 440.835327,629.724243 
	C449.554535,625.816589 449.116730,617.036377 451.477570,609.768860 
	C451.666321,609.187805 451.002045,608.189636 450.514618,607.553528 
	C448.508911,604.935974 446.548859,602.403687 443.804840,600.304382 
	C440.513397,597.786316 435.542084,596.697388 434.593781,591.782043 
	C434.024048,588.828979 432.980530,586.640869 430.239319,585.029236 
	C427.144226,583.209412 426.312683,580.580933 429.269501,577.694397 
	C429.988159,576.992859 430.688904,576.251099 430.373779,575.041199 
	C429.604919,573.204163 427.615387,573.483521 426.180267,572.807739 
	C420.151733,569.969360 419.263947,567.425354 422.390930,561.516235 
	C424.471161,557.585083 423.644806,550.616943 420.796631,547.509155 
	C417.198730,543.583435 413.225830,545.200195 410.114899,547.583008 
	C405.194397,551.351807 399.120880,553.956848 396.516724,560.397705 
	C395.115723,563.862793 388.961731,566.041565 385.686096,563.993408 
	C382.249390,561.844543 381.099884,563.305786 379.557220,565.973450 
	C378.319000,568.114563 376.625580,569.306824 373.773132,567.862122 
	C365.105865,563.472290 362.267029,564.833069 359.600372,574.337463 
	C361.088593,576.187561 363.462555,576.735779 365.358521,578.008667 
	C367.543976,579.475891 369.157257,580.976807 366.722992,584.010437 
	C364.702545,586.528381 363.632446,589.808899 361.845184,593.336121 
	C364.726196,592.883789 366.896027,593.508972 367.111359,596.160278 
	C367.336884,598.936707 365.081329,600.266235 362.876617,601.060242 
	C360.600952,601.879761 357.898132,601.799927 356.792908,604.893372 
	C359.102356,607.154297 360.669769,610.497864 364.487976,610.527161 
	C367.966736,610.553894 368.339569,611.647583 368.000336,615.105164 
	C367.701263,618.153015 367.456726,620.147949 364.511108,621.530701 
	C363.540100,621.986511 362.934204,623.634460 362.551971,624.859253 
	C360.818726,630.412659 361.179413,635.829712 364.000000,641.000000 
	C363.250000,641.000000 362.500000,641.000000 361.234497,640.651550 
	C356.497772,632.827026 357.192841,625.789490 362.362122,618.978516 
	C364.146576,616.627319 363.837555,614.552307 360.907593,612.856934 
	C358.790039,611.631653 356.984009,609.754578 355.293884,607.931885 
	C353.015625,605.474976 352.712280,602.863098 355.856812,600.795532 
	C357.486542,599.723999 359.173309,598.592957 358.361237,596.493652 
	C357.333466,593.836670 358.701996,592.211914 359.917023,590.164612 
	C361.595551,587.336243 362.790680,584.207886 363.294983,580.949707 
	C356.130737,575.535278 355.274689,573.730896 358.105347,568.330627 
	C362.629944,559.698608 369.637604,562.618530 376.848816,565.340332 
	C375.881897,561.789062 372.309082,561.843689 371.272339,559.315369 
	C370.206726,556.716675 370.125397,553.457214 367.875854,551.645325 
	C364.808167,549.174683 368.263489,544.229065 365.478180,543.366638 
	C362.479462,542.438293 359.637360,541.747131 357.166931,539.724487 
	C354.723663,537.724060 352.141632,535.893982 349.672119,533.924438 
	C347.948090,532.549438 345.907410,532.468384 344.718353,534.002991 
	C341.299957,538.415039 336.043732,538.030884 332.324310,536.968994 
	C326.498108,535.305603 322.616699,537.985107 318.161102,540.104065 
	C316.666382,540.814880 315.178558,541.958252 313.629913,542.064636 
	C307.210693,542.505798 304.303131,547.293518 302.421661,552.076111 
	C299.811890,558.709961 295.678833,563.155151 289.344421,566.130615 
	C286.457886,567.486511 284.221802,569.938049 283.264069,573.490906 
	C287.478455,572.942505 291.081177,572.433228 293.603943,568.892883 
	C294.546631,567.569946 296.642944,566.674927 298.354401,566.365601 
	C304.140839,565.319641 309.990509,564.623535 316.156494,563.745178 
	C315.918945,566.393799 314.282715,567.511841 313.087769,569.029358 
	C310.979248,571.706909 311.461304,574.856750 312.745667,577.771423 
	C313.976501,580.564514 315.938812,579.108276 317.784058,578.420776 
	C318.940552,577.989868 320.108673,578.037476 320.600983,579.848022 
	C318.619873,582.756958 314.795837,584.084778 313.114960,587.505066 
	C311.212250,591.376709 312.743225,593.980957 317.001770,593.834412 
	C318.277466,593.790466 319.693024,593.293884 320.839020,595.602539 
	C313.780243,598.429504 314.138245,605.599609 311.945892,611.419800 
	C309.775055,617.182800 306.063995,621.060974 300.309875,623.635437 
	C295.621002,625.733276 291.617767,628.897522 286.447479,630.625244 
	C281.075867,632.420288 276.771240,637.408325 272.000000,641.000000 
	C268.969391,641.000000 265.938812,641.000000 262.454102,641.000000 
M261.344391,233.784134 
	C264.446869,234.882828 264.459167,236.586670 262.710297,239.103989 
	C261.188446,241.294556 259.082275,243.318451 258.976471,246.082031 
	C261.336182,248.105576 264.180511,244.667435 266.607513,247.948395 
	C261.538483,252.007645 252.047668,250.585693 251.117065,259.523407 
	C252.862122,260.285828 255.058853,258.128357 256.866547,260.876099 
	C255.130783,263.027374 252.906158,264.578278 250.222198,265.845825 
	C258.791107,271.356018 259.727844,260.973450 264.729706,259.053894 
	C265.292053,267.521179 259.987610,272.361816 252.166687,270.837891 
	C249.739899,270.365021 247.669800,270.463715 245.839264,272.540222 
	C243.723236,274.940552 247.264572,275.824799 247.059189,277.257782 
	C245.876343,280.524139 240.900330,279.292938 240.806885,283.272217 
	C243.445877,284.525360 243.571152,285.108612 243.547836,290.474792 
	C243.515305,297.959595 243.136108,305.340607 238.383987,312.201721 
	C241.627121,313.415405 241.125046,315.277985 239.660233,317.399750 
	C238.815140,318.623810 238.178070,320.004486 237.551239,321.362640 
	C236.925644,322.718170 236.112808,324.198273 238.025116,325.247559 
	C239.602951,326.113251 240.911377,325.564301 242.018326,324.314636 
	C244.690338,321.298126 247.116699,318.540405 245.199326,313.757782 
	C243.758377,310.163574 243.636353,306.671783 248.414581,303.779907 
	C253.343735,300.796692 258.072418,296.361176 260.952515,291.430084 
	C263.808502,286.540253 267.776367,286.169952 272.200836,285.154083 
	C269.194672,289.545197 266.218445,294.013428 262.267242,297.314880 
	C258.130096,300.771698 255.235382,304.928802 253.341827,309.638275 
	C252.284088,312.268982 251.321426,315.835205 254.104248,318.861450 
	C258.625305,309.481201 258.625305,309.481201 262.358398,307.865814 
	C264.961456,310.685242 266.234131,314.189453 267.621368,317.980377 
	C269.363251,309.879059 272.301636,302.121338 270.857849,294.049133 
	C272.996582,292.584412 274.871307,295.514923 276.405334,293.193695 
	C277.324493,291.802826 278.126068,289.774963 281.331238,290.901062 
	C279.569550,295.674072 274.615143,300.423737 279.424316,305.706696 
	C283.052246,309.692078 287.793365,312.308289 292.516052,314.628479 
	C291.429108,317.470734 289.737000,317.092010 288.090332,316.753601 
	C285.487762,316.218811 282.751892,315.994110 280.327148,315.010376 
	C276.500000,313.457733 275.057831,315.083801 274.553040,318.524048 
	C274.187286,321.016632 274.262482,323.462280 275.141357,325.906555 
	C275.690918,327.434967 276.638702,329.134369 275.910858,330.743744 
	C273.623108,335.802185 276.778961,337.594391 280.634003,339.089233 
	C286.213470,341.252655 285.948303,346.768372 287.094208,351.193390 
	C287.881012,354.231842 286.919861,357.474426 283.315216,358.999573 
	C281.721008,359.674133 281.186584,361.304718 280.295654,362.724701 
	C276.763000,368.355011 276.757477,375.455261 272.233063,380.705292 
	C267.610687,386.069000 264.563660,392.003357 269.053680,399.156403 
	C269.964020,400.606598 270.237701,402.474365 268.039459,403.313660 
	C265.920532,404.122711 264.648041,402.979858 263.600800,401.194153 
	C262.684692,399.632080 263.616730,397.196930 261.370758,396.052216 
	C259.540741,401.809998 261.844086,406.697998 267.697113,409.963867 
	C269.087494,408.798737 270.408142,407.534332 271.887146,406.495331 
	C273.487579,405.371002 275.376190,403.564667 277.277679,405.067719 
	C281.525757,408.425537 286.903870,410.282684 290.095612,415.099518 
	C291.512665,417.238068 293.530487,419.207062 297.103455,418.742401 
	C299.151855,411.788055 292.419464,406.137970 294.210358,399.208771 
	C296.055939,398.163788 297.361420,399.456451 297.981323,400.974945 
	C299.644714,405.049408 302.039368,407.273773 306.500641,405.094849 
	C307.751587,407.170715 307.232910,409.873688 310.079132,410.767853 
	C311.304108,409.137329 311.652710,406.401123 314.394257,406.148499 
	C316.352203,407.839844 314.313599,410.588684 316.212860,412.199768 
	C319.064789,411.249634 321.441254,410.288940 322.290588,406.929718 
	C322.858124,404.685303 323.788666,402.492859 327.582794,403.696655 
	C329.252533,404.226410 332.663757,404.420258 334.617401,402.691803 
	C336.265411,401.233734 334.719910,398.858582 335.320343,396.958618 
	C335.704224,395.743835 335.349243,394.214966 337.092743,393.391357 
	C338.273773,393.234253 338.857941,395.206726 339.726227,395.014801 
	C345.795227,393.673218 351.699982,396.703888 357.720917,395.532928 
	C359.040985,395.276215 360.638428,394.987366 361.138336,393.721375 
	C363.551544,387.610107 370.063171,386.021118 374.281433,381.874908 
	C377.249817,378.957275 380.141876,376.455780 382.051331,372.590546 
	C384.171295,368.299286 387.123291,363.966766 391.974945,362.632599 
	C401.153992,360.108429 403.441681,356.198700 399.700226,347.605408 
	C398.972198,345.933319 398.008820,344.365143 397.199432,342.726593 
	C396.587860,341.488647 396.048553,339.490875 397.482330,339.235077 
	C402.655762,338.312012 403.091827,332.937744 406.446228,330.334442 
	C408.715912,328.573029 410.148499,325.867035 408.753479,322.833038 
	C407.345093,319.770020 405.423645,316.684448 401.677734,316.569214 
	C394.124969,316.336792 389.434662,310.550354 383.510498,307.340393 
	C378.820984,304.799408 376.059509,304.088104 373.028168,308.533997 
	C370.168213,312.728516 363.404602,315.819611 359.694336,314.327271 
	C351.454468,311.013062 342.707428,310.470245 334.057434,309.509521 
	C329.806915,309.037415 328.286560,307.143768 329.544464,302.638702 
	C334.111359,302.879730 338.489380,303.323486 342.994904,304.907074 
	C347.454376,306.474457 352.212402,303.480682 355.297089,300.407928 
	C358.074036,297.641663 360.939850,294.831390 363.582672,291.873322 
	C365.618683,289.594452 368.268768,288.845276 370.809418,289.968323 
	C373.820770,291.299377 375.976318,290.021454 378.249512,288.683716 
	C379.794403,287.774597 381.725830,286.819275 381.354004,284.610352 
	C381.042633,282.760864 379.244385,282.159363 377.644897,281.633209 
	C374.702484,280.665436 371.725708,279.785034 369.318268,277.566101 
	C369.689911,276.944977 369.846771,276.417358 370.200073,276.139832 
	C371.485748,275.129761 373.472992,274.246399 371.970337,272.279602 
	C370.637604,270.535248 368.947571,271.793915 367.484924,272.555939 
	C363.944550,274.400391 360.408844,276.253937 356.876709,278.114166 
	C354.660553,279.281372 352.461426,280.275116 349.457672,277.363281 
	C354.015869,275.535461 356.502350,271.970337 359.715698,269.188141 
	C360.320557,268.664429 361.202301,268.092133 361.924133,268.131531 
	C366.654205,268.389801 370.903412,266.233612 375.458344,265.548431 
	C382.915405,264.426697 388.754852,255.150208 386.938934,248.061295 
	C386.476471,246.256058 386.973053,245.474289 388.565155,244.538666 
	C392.436615,242.263443 395.823975,239.192627 398.435669,235.622055 
	C403.776154,228.320908 403.326721,218.496658 408.603973,211.070053 
	C408.932617,210.607513 408.816528,209.768158 408.774811,209.112534 
	C408.269409,201.167419 411.041107,194.252747 416.283600,188.591034 
	C421.830200,182.600861 423.366791,176.259308 420.636871,168.570358 
	C418.953186,163.828232 412.003448,158.801697 408.120209,159.942276 
	C400.135651,162.287460 392.067078,162.973221 383.786102,161.470474 
	C379.121429,160.623978 373.902618,158.511337 369.713013,160.441544 
	C363.698242,163.212631 358.621277,162.082016 353.576813,159.355301 
	C348.859344,156.805374 345.306854,157.443527 341.479584,161.053650 
	C339.694489,162.737473 338.021942,165.982483 335.085815,165.135986 
	C331.578400,164.124817 329.375000,165.548767 326.977112,167.475189 
	C325.103180,168.980698 322.791107,169.908981 320.471436,169.645966 
	C317.567139,169.316635 316.079987,170.586594 314.314148,172.662872 
	C308.853363,179.083664 300.846039,181.004318 293.998138,177.802322 
	C295.313843,172.996552 298.997406,174.087799 302.551819,174.621719 
	C303.262421,169.368179 310.420166,169.388824 310.909790,164.113220 
	C302.949707,158.993118 301.340637,169.763855 295.660248,170.283768 
	C294.030640,168.028198 294.733582,166.320663 296.210846,164.711685 
	C299.221008,161.433167 301.894592,158.210800 306.953705,157.258240 
	C310.690216,156.554703 313.494293,151.924377 318.123993,154.283981 
	C319.398621,152.602203 320.765289,151.357513 321.211090,149.492844 
	C296.760803,144.884033 296.508423,143.396927 296.639465,136.701523 
	C302.153229,140.608475 307.745148,143.417130 314.443848,140.783890 
	C314.044128,137.998169 310.688080,137.401749 311.635559,134.506500 
	C312.955231,133.140030 315.106628,133.144699 316.845276,132.319092 
	C323.009338,129.392105 325.979309,122.925270 331.814117,119.628395 
	C335.067535,117.790085 338.477417,115.632584 340.339325,112.104004 
	C342.945190,107.165474 346.662811,103.856415 351.997772,101.835388 
	C357.177612,99.873108 361.248993,92.599998 359.253601,89.006042 
	C357.046051,85.029930 357.450012,81.886566 359.849365,78.396637 
	C360.855194,76.933632 361.264526,75.084587 361.084076,73.055374 
	C356.295563,73.168945 350.887756,70.004906 347.619690,76.451584 
	C347.106049,77.464859 345.435699,76.281433 344.333405,76.347000 
	C338.905090,76.669899 332.845428,73.198578 328.287781,79.033394 
	C327.387115,80.186440 325.809143,79.640419 324.496277,79.731209 
	C318.203613,80.166367 311.500641,78.625069 306.113922,83.562569 
	C305.317139,84.292885 304.116211,83.951355 303.272583,83.422791 
	C300.375671,81.607773 299.158783,83.625069 297.691742,85.577904 
	C296.310181,87.416985 295.814850,90.304710 292.636200,90.505424 
	C290.191010,86.927628 297.567291,81.153694 289.840668,78.805817 
	C288.125092,82.838394 285.480072,85.985527 282.668976,89.003258 
	C281.868195,89.862907 280.900421,90.780708 279.632690,90.049133 
	C278.065308,89.144638 278.871704,87.810928 279.165649,86.516502 
	C279.629028,84.476028 282.493713,83.208298 281.394043,80.587959 
	C278.602844,80.259117 279.283936,84.275032 276.632874,83.731857 
	C276.420959,83.562065 276.039795,83.410385 275.933075,83.147354 
	C274.890839,80.578804 276.479645,76.450485 272.421387,75.720085 
	C268.208496,74.961853 267.919403,79.392517 266.003662,81.649200 
	C265.895813,81.776237 265.803101,81.919014 265.681824,82.031281 
	C263.401367,84.142998 264.208618,86.092888 266.438507,87.265244 
	C271.319061,89.831169 268.115540,92.942085 266.992004,95.597420 
	C266.101959,97.700943 263.072357,95.145180 261.661957,97.125740 
	C260.518555,102.156906 265.291016,104.560875 267.525665,108.533295 
	C262.167175,109.763489 256.821472,108.136574 253.081268,111.592850 
	C253.233749,115.139999 258.621826,115.355209 256.587341,119.569496 
	C255.245560,122.348869 254.972748,125.684433 250.578857,127.312347 
	C257.975403,133.005219 263.727295,138.972000 265.610199,148.158066 
	C261.635773,147.873108 261.668762,144.286118 259.015991,143.822708 
	C254.571823,149.585541 251.836029,143.212875 248.176559,142.133514 
	C244.917252,148.704300 241.699936,144.099228 237.809464,141.091095 
	C239.343552,144.033768 240.719864,145.755890 240.390823,148.133057 
	C240.115433,150.122437 240.250565,152.519669 237.807739,152.928314 
	C235.656891,153.288086 234.811340,151.176804 234.045639,149.515564 
	C233.318619,147.938156 233.556290,145.813782 231.455750,145.024689 
	C228.726852,148.660919 229.134995,151.862671 232.866272,153.732025 
	C234.951645,154.776794 236.114090,156.213272 235.880554,158.351913 
	C235.648575,160.476334 233.795029,159.758484 232.336899,159.916473 
	C229.666199,160.205826 230.088913,161.872238 231.264023,163.450928 
	C233.615265,166.609604 235.550598,170.164581 240.465408,170.095062 
	C242.472961,170.066681 245.063202,172.340591 242.649002,173.848236 
	C240.074524,175.455978 236.386261,178.309204 232.804276,174.585236 
	C231.687653,173.424347 230.412949,172.280289 228.507889,171.947403 
	C223.947906,177.842087 230.812927,181.879608 230.062347,187.240936 
	C233.850693,186.517578 235.137039,183.272202 237.636276,182.757217 
	C239.964966,183.350418 238.962738,185.742966 240.291092,186.763275 
	C240.957306,185.893387 241.408783,185.186905 241.974869,184.588928 
	C243.188126,183.307312 244.432663,181.149521 246.415527,182.870132 
	C248.287903,184.494888 246.500381,186.235092 245.514297,187.662460 
	C244.567261,189.033325 243.256378,189.972214 241.571213,190.552109 
	C239.765030,191.173676 237.727295,191.520294 236.342850,193.076065 
	C240.341232,198.562012 243.443756,188.711548 247.269058,192.290771 
	C247.400330,194.196503 245.094955,194.769653 245.729004,196.936569 
	C246.193680,197.346115 246.858643,198.093094 247.669800,198.611176 
	C249.049667,199.492462 249.584320,200.556046 248.435394,201.869492 
	C247.418259,203.032272 246.084518,203.055588 244.841446,202.148788 
	C244.177399,201.664352 243.575226,201.070435 243.031357,200.450302 
	C240.899872,198.019821 239.449448,198.506271 238.475052,201.431717 
	C237.967010,202.956985 237.396744,204.461533 237.017456,205.520645 
	C240.622849,208.957306 244.941315,210.142563 249.431396,211.081833 
	C245.271545,213.048630 241.697754,215.885437 237.133102,211.850433 
	C235.013397,209.976700 233.076141,212.596466 232.027725,215.325851 
	C234.809235,215.964066 236.285599,218.070145 237.359970,219.945831 
	C239.639343,220.438354 241.729065,218.599594 243.403076,220.827347 
	C243.042664,223.433762 240.678345,223.371796 238.987122,224.142502 
	C235.348145,225.800812 232.934769,222.661774 229.718826,221.315277 
	C229.371796,223.898834 227.674881,225.744644 228.230759,228.381577 
	C231.300476,229.006042 234.622742,229.075241 236.258804,232.140457 
	C235.351807,235.370941 232.401794,235.778275 230.308289,236.889252 
	C230.263016,238.584061 232.379654,239.079147 231.872391,240.233475 
	C228.511444,243.674500 225.922546,247.038361 220.522507,243.375732 
	C218.848679,242.240463 213.410782,241.854004 210.557449,247.066162 
	C214.883560,246.123093 218.091675,247.787674 221.584229,247.609940 
	C223.336624,247.520767 225.195862,248.899445 226.845764,247.412857 
	C232.631882,242.199463 237.037247,249.106079 242.327148,248.679306 
	C240.642883,250.770889 238.306702,251.725372 236.484695,251.122437 
	C231.795013,249.570526 228.920822,250.825943 227.796463,255.329773 
	C225.345581,255.678680 223.807770,253.369125 221.383881,254.485046 
	C222.722397,259.654144 227.524872,259.808380 231.181000,261.716278 
	C234.987320,263.702545 238.485001,262.873535 239.609497,259.526917 
	C241.760178,253.126266 248.046921,251.062012 251.694336,246.305511 
	C254.054871,243.227188 256.323914,240.100891 258.906403,237.148865 
	C256.173004,235.298172 251.632004,238.147018 250.595520,232.966965 
	C254.169403,232.396164 257.400055,232.220978 261.344391,233.784134 
M503.216614,489.085480 
	C500.133972,482.085632 496.328369,475.129242 502.098785,468.045074 
	C495.822815,463.468048 491.274292,458.223602 488.607239,451.147736 
	C485.749908,443.567047 481.090454,437.360748 472.363800,434.930054 
	C471.407837,439.249054 468.071167,438.335968 465.170074,438.614075 
	C460.422638,439.069275 455.761902,436.641388 450.943634,438.516022 
	C444.423615,441.052704 437.846252,444.093933 431.731567,437.277802 
	C430.271698,435.650452 428.148102,434.776489 425.611481,436.955444 
	C422.052277,440.012848 418.121887,442.268982 412.770081,440.614258 
	C406.698120,438.736938 398.714508,444.782349 399.572449,450.770752 
	C400.329956,456.058380 399.668854,458.954163 393.955872,460.628418 
	C391.140747,461.453430 387.360138,464.869476 389.556580,468.591339 
	C391.997223,472.727020 396.686798,475.500977 400.634155,477.911682 
	C404.805176,480.459015 407.720428,483.427582 410.551880,487.138367 
	C412.935822,490.262695 413.264099,492.309448 410.162048,495.129974 
	C408.426453,496.708069 408.017395,499.465668 407.991943,502.316803 
	C411.182465,502.440308 412.617371,504.221313 413.601685,507.033142 
	C415.828003,513.393066 423.092590,515.606262 425.992401,521.509827 
	C428.069275,525.737976 431.639526,528.808411 434.477692,532.446472 
	C435.712219,534.028931 436.913269,534.687256 438.665070,533.526550 
	C442.174377,531.201294 445.755005,532.380188 449.105804,533.634583 
	C451.018372,534.350525 452.996216,534.457458 453.298401,532.769958 
	C454.333069,526.992676 460.064423,525.427917 462.857086,521.298767 
	C464.277313,519.198914 466.227600,518.637756 468.358856,520.533508 
	C469.937775,521.937988 471.229248,521.633911 472.613281,520.100464 
	C477.058563,515.175293 480.489075,515.601868 483.541046,521.427429 
	C488.412689,520.655273 484.716797,513.850586 489.028503,513.220276 
	C492.894379,512.655151 495.545197,510.059082 499.003632,508.639130 
	C497.808685,506.478241 496.880554,503.007812 494.137238,503.756470 
	C488.254364,505.361969 482.347137,504.457489 476.464569,504.986633 
	C475.348969,501.022644 478.227600,497.819000 482.190186,499.381897 
	C485.494568,500.685150 488.638306,500.506287 491.351044,499.223969 
	C496.475067,496.801819 499.939789,498.060944 502.728851,502.605591 
	C505.442413,507.027313 508.990326,507.545715 513.566101,504.595398 
	C510.227448,499.616150 506.912445,494.672180 503.216614,489.085480 
M471.326782,524.298401 
	C464.890656,523.800659 460.162354,526.514099 457.376312,532.335266 
	C455.614410,536.016724 453.369141,538.043152 448.716431,536.805481 
	C445.191406,535.867859 441.482513,535.267212 437.588837,536.836609 
	C434.912140,537.915344 432.514740,536.359680 430.756378,533.461914 
	C427.620911,528.294678 423.847626,523.514587 420.331604,518.559326 
	C417.938904,519.593872 416.235718,521.093628 415.766235,523.240112 
	C414.621002,528.475952 414.785431,533.798828 415.768860,539.054810 
	C416.081940,540.728210 417.212555,542.188843 418.818848,542.821228 
	C424.128326,544.911438 425.289398,549.538452 426.105255,554.381470 
	C426.525818,556.877991 428.409607,559.404053 426.018585,561.909668 
	C420.810089,567.367554 424.175537,568.904175 428.795044,570.509277 
	C435.671326,572.898743 435.903687,573.591064 431.467316,579.651794 
	C431.191437,580.028687 431.099426,580.540161 430.754333,581.412720 
	C434.590759,583.765869 437.955017,586.543579 437.900543,591.753418 
	C437.885773,593.167236 439.674561,594.006531 440.948029,594.845581 
	C446.229736,598.325562 451.357239,601.984070 454.155396,607.971008 
	C454.850464,609.458191 455.950531,610.901306 454.995636,612.657166 
	C452.732849,616.817932 453.494385,622.158264 449.803314,625.784485 
	C448.959747,626.613159 449.482788,627.733093 450.114380,628.520508 
	C451.553894,630.315125 451.825409,631.917847 450.188477,633.851868 
	C448.827545,635.459717 448.990723,637.412903 450.718933,638.702576 
	C452.721466,640.197021 453.587677,638.415710 454.581177,637.034607 
	C455.147705,636.247070 455.905121,635.171265 456.706146,635.044617 
	C463.978851,633.894836 468.762970,628.245789 474.744568,624.851929 
	C479.034424,622.417969 481.802399,617.408569 485.208221,613.579346 
	C487.048981,611.509644 488.122681,608.254761 490.463501,606.101013 
	C492.572632,604.160461 492.909393,602.487610 490.943390,599.726746 
	C488.562256,596.382874 484.635712,593.207336 486.712280,587.810364 
	C492.076569,586.786560 497.508484,584.975952 503.396301,586.415283 
	C506.086060,587.072693 509.944580,586.963440 511.325531,585.203979 
	C513.506775,582.424927 515.960083,581.362061 519.013672,580.370667 
	C522.015991,579.395935 523.126160,577.679932 520.787598,574.374939 
	C518.390137,570.986633 514.999268,569.221985 511.425049,567.237183 
	C513.828735,562.590637 516.284363,558.556763 520.080566,555.359192 
	C527.818054,548.841736 528.292725,546.764099 524.433655,537.495422 
	C522.899170,533.809753 521.199524,530.185242 519.406433,526.617615 
	C518.293152,524.402588 516.973450,522.357422 514.655640,520.990662 
	C511.393188,519.066895 508.921692,517.872314 508.112732,523.261963 
	C507.610413,526.609070 505.482849,526.778748 503.146301,524.625000 
	C501.529785,523.134949 500.392395,521.482544 500.287476,519.044678 
	C500.209442,517.231689 500.429779,514.967651 498.079010,513.692444 
	C494.407715,515.839783 491.810059,519.224792 488.752625,522.076172 
	C485.155273,525.430969 481.487671,525.292908 479.526306,521.474976 
	C477.711029,517.941284 476.388672,519.714233 474.977509,521.658325 
	C474.199280,522.730530 473.617004,523.986877 471.326782,524.298401 
M346.770599,448.063507 
	C347.342957,449.186188 347.118378,450.289154 346.829987,451.455872 
	C345.903625,455.203156 347.542664,457.697784 350.404144,459.410370 
	C352.819397,458.707245 352.045288,455.794952 354.187317,455.300110 
	C360.827972,458.478241 352.522247,464.513458 356.667664,468.465515 
	C361.027710,465.855652 360.504944,460.546631 362.870056,457.199219 
	C365.699005,458.217102 364.567200,461.590057 367.333893,462.453583 
	C368.877228,461.237854 370.626740,460.004425 372.194458,458.571960 
	C373.173828,457.677002 373.878784,456.251038 375.449005,457.297699 
	C376.860260,458.238434 376.124664,459.475342 375.882690,460.828766 
	C374.975220,465.904114 376.971619,471.800262 371.475769,475.520752 
	C371.330322,475.619202 371.354675,476.233551 371.509247,476.470978 
	C374.764465,481.470581 372.225159,484.013123 367.811401,485.237671 
	C367.023376,487.524445 369.537384,488.952911 368.389954,490.753296 
	C366.804260,491.906525 365.566223,489.540924 364.097992,490.534332 
	C362.910919,495.584442 363.207489,497.408691 366.480835,498.386749 
	C370.091156,499.465515 369.889801,501.533478 368.104187,503.480469 
	C362.176727,509.943451 361.125183,516.661316 366.107971,524.078796 
	C366.194458,524.207458 366.180756,524.401184 366.222809,524.562256 
	C367.311401,528.730469 370.123932,531.000122 374.270050,531.608032 
	C376.523224,531.938416 378.590790,532.247742 378.645447,535.156982 
	C370.474121,538.987427 368.805237,538.535034 364.459320,531.373169 
	C364.027802,530.662048 363.699463,529.867737 363.170624,529.240784 
	C362.196625,528.085938 361.072968,526.782532 359.394073,527.851196 
	C357.616180,528.982788 358.399109,530.418396 359.355682,531.694641 
	C361.578644,534.660339 362.585693,538.555481 366.663147,540.102722 
	C368.416962,540.768250 370.570221,542.712219 370.102448,544.622559 
	C368.998413,549.131165 372.062714,552.144592 373.317474,555.749268 
	C374.912933,560.332703 388.412201,563.405212 392.234619,560.335876 
	C393.337158,559.450500 394.001678,558.344421 394.251373,556.996521 
	C394.657379,554.804749 396.099640,553.270325 397.976349,552.614136 
	C401.034271,551.544983 402.880432,549.307861 404.705841,546.919128 
	C405.626801,545.713867 406.594269,544.761536 408.329926,544.616882 
	C411.973206,544.313293 413.219971,542.550598 412.752625,538.591797 
	C411.891602,531.297729 410.194092,523.659485 416.096222,517.321960 
	C416.730743,516.640564 416.418274,515.715210 415.902069,515.012695 
	C413.935425,512.335938 412.245148,509.362823 409.886383,507.086029 
	C404.178467,501.576477 403.736389,499.989838 407.538818,493.545685 
	C408.108154,492.580841 409.367889,492.013428 409.198517,490.583160 
	C407.594055,487.067841 405.481781,483.330322 401.970093,482.045044 
	C395.768585,479.775238 391.925842,474.952667 387.406891,470.802521 
	C385.638702,469.178528 384.915100,466.951721 386.415222,464.963837 
	C388.652649,461.998901 389.985535,458.146820 394.220520,456.958893 
	C397.082703,456.156036 397.053955,453.914246 396.567505,451.296570 
	C395.773376,447.023499 397.670166,442.979584 400.517731,440.422333 
	C404.881317,436.503540 405.234436,436.402283 401.293610,432.157257 
	C397.271271,427.824432 395.346008,422.700592 396.548828,416.669312 
	C397.428375,412.259033 395.023499,410.040771 390.889557,411.551849 
	C387.252014,412.881470 384.821320,411.100037 384.764618,407.984467 
	C384.654144,401.917603 382.237793,395.346069 387.613159,390.144928 
	C386.028503,388.401672 384.732361,386.901947 383.357788,385.477966 
	C379.712372,381.701447 377.661377,381.665222 373.864868,385.480621 
	C372.108582,387.245636 370.917358,390.216125 368.874908,390.924591 
	C364.035797,392.603180 363.766663,395.567810 365.315430,399.477905 
	C361.967804,401.448395 358.950134,403.262268 355.398102,400.657318 
	C355.212860,404.130310 353.342865,406.477234 350.576935,406.075897 
	C346.901611,405.542603 346.449280,407.790619 346.156097,409.958130 
	C345.578979,414.224823 343.927429,417.957642 341.156433,421.081421 
	C337.517700,425.183350 337.257080,430.741638 337.294617,435.152496 
	C337.336395,440.058044 341.689514,444.487274 346.770599,448.063507 
M453.733643,427.364319 
	C452.747406,427.221771 451.438873,427.148376 451.640656,425.816589 
	C452.212646,422.041748 449.967377,419.522308 447.957886,416.883148 
	C446.721222,415.258972 446.316101,413.298431 445.512115,411.514526 
	C443.361176,406.742004 444.356995,401.113464 441.733734,396.703186 
	C436.701202,388.242249 434.471680,379.011108 432.850739,369.500977 
	C432.382294,366.752472 430.337738,363.521362 431.216614,361.441620 
	C433.450226,356.156219 430.311829,352.051422 429.543976,347.462799 
	C429.286224,345.922729 428.146820,344.403625 426.582275,344.483521 
	C423.015167,344.665619 421.461761,342.024109 420.087952,339.798340 
	C417.699890,335.929382 414.134247,333.137146 411.880524,329.421021 
	C403.718262,336.200348 397.685150,343.333221 405.389038,354.056610 
	C406.642517,355.801422 405.594238,358.413483 403.998322,358.747894 
	C399.084747,359.777527 398.279175,366.126709 391.685669,366.207703 
	C386.756073,366.268280 384.132263,373.796234 382.810577,378.992737 
	C381.980530,382.256195 385.834045,384.757874 388.639954,386.233978 
	C392.077393,388.042328 392.085480,390.351044 390.061615,392.526703 
	C385.260254,397.687958 388.846619,403.452698 387.419952,408.809265 
	C388.649994,408.937531 388.984253,409.047394 389.288452,408.992096 
	C391.467133,408.595795 393.074127,404.822784 395.782623,407.733643 
	C398.241791,410.376587 400.000702,412.834747 399.613464,417.286591 
	C399.219879,421.811646 399.711578,427.195282 403.801270,430.906860 
	C404.780823,431.795837 405.742310,432.774292 406.452301,433.878601 
	C409.416229,438.488647 415.675903,439.558929 420.215302,436.145905 
	C426.298798,431.571960 428.166321,431.357147 434.470703,435.346649 
	C436.227661,436.458496 437.896667,435.830872 439.434814,436.157074 
	C444.827606,437.300720 449.781921,435.523438 454.930756,435.035858 
	C458.188782,434.727295 461.538177,435.477936 464.852264,435.630676 
	C466.691010,435.715393 468.608215,435.645447 468.809601,432.755890 
	C464.035309,430.978210 459.614014,428.316315 453.733643,427.364319 
M200.921448,188.105484 
	C201.505890,190.713943 204.452576,192.034271 204.863419,194.661270 
	C202.456085,197.509537 200.948715,193.709503 197.965454,194.451340 
	C201.004807,198.273254 205.103592,200.388733 207.559494,205.080276 
	C209.725174,201.370071 212.479538,202.649185 215.045914,202.993317 
	C216.194687,202.136276 215.674072,200.157639 218.168152,199.734344 
	C219.786575,207.151245 225.793259,202.811249 230.153503,203.732025 
	C231.506119,204.017654 232.621017,202.911133 233.255112,201.611694 
	C233.660477,200.781006 233.621521,199.971588 232.886856,199.361771 
	C231.689209,198.367630 230.461761,198.651001 229.164001,199.280792 
	C227.539200,200.069321 225.516068,201.691055 224.068085,200.578751 
	C220.038467,197.483261 213.779892,199.492554 210.641418,194.064148 
	C211.596497,191.709610 212.133438,189.035690 209.405716,186.801468 
	C208.216095,185.827087 208.491714,184.515640 209.090836,183.156235 
	C212.163773,176.183655 212.447372,169.556992 206.627289,163.643890 
	C205.612991,162.613388 205.179443,160.734619 203.226318,161.804001 
	C201.579834,162.705490 200.925934,164.127411 201.725769,166.020477 
	C203.241455,169.607941 201.903320,173.941849 204.860519,177.258804 
	C205.601044,178.089401 205.669266,180.176117 203.298355,181.221252 
	C201.776382,176.631332 195.337662,181.385849 194.254257,175.837708 
	C191.226318,177.749100 190.280029,180.779892 192.604477,182.216019 
	C195.339645,183.905884 196.989746,187.112915 200.921448,188.105484 
M249.092834,328.496063 
	C250.207748,326.734192 250.389496,325.126678 248.089554,323.650421 
	C246.553314,325.333588 245.072784,327.061584 243.480286,328.679352 
	C239.694992,332.524841 237.268616,336.807220 235.906784,342.282196 
	C234.183823,349.209045 236.209457,357.095520 230.741867,363.164307 
	C229.799347,364.210480 229.881363,366.345764 231.168152,367.777405 
	C241.561905,366.154388 242.634430,364.690552 237.772247,358.360199 
	C241.986145,353.490784 242.726440,347.526642 242.997604,341.256836 
	C243.198868,336.603455 244.277252,331.970551 249.092834,328.496063 
M302.119507,545.166382 
	C304.359985,542.787720 306.600494,540.409119 309.128448,537.725281 
	C304.387604,537.027588 303.752380,532.634155 301.762024,529.467529 
	C300.003662,526.669922 297.759949,526.540222 294.965942,527.144470 
	C292.451324,527.688293 290.643219,528.727112 290.495239,531.589966 
	C290.079681,539.630432 292.919739,543.203491 302.119507,545.166382 
M206.311813,331.396729 
	C206.325180,335.066406 209.009567,338.853333 205.606857,342.587982 
	C207.225403,340.594360 209.055206,339.864990 211.300797,339.407867 
	C213.870895,338.884735 216.233215,337.073090 215.587524,334.164948 
	C214.337418,328.534637 212.501923,323.034302 210.917679,317.510223 
	C206.516891,318.762177 205.855667,322.795319 203.752304,324.872284 
	C201.890869,325.481018 201.080856,323.464478 199.112900,324.340851 
	C198.769028,326.530670 198.380600,329.004181 197.789200,332.770203 
	C199.272476,330.310272 199.860352,328.864899 200.852814,327.794739 
	C202.529205,325.987030 204.894440,326.009674 206.811874,327.018677 
	C208.586945,327.952789 207.626938,329.588684 206.311813,331.396729 
M228.168823,266.252930 
	C223.589020,264.694275 216.310715,268.640320 213.847778,274.028046 
	C214.603653,274.810242 215.362762,274.307678 216.119690,274.021179 
	C217.702698,273.421906 219.560501,272.645691 220.546844,274.548401 
	C221.717575,276.806885 219.539749,277.632507 218.124680,278.711975 
	C215.871140,280.431000 213.016113,280.651154 209.734543,281.931915 
	C219.301880,280.984894 228.596252,275.881317 232.406570,269.782349 
	C231.751678,268.137543 229.953644,267.730469 228.168823,266.252930 
M216.927338,264.567719 
	C218.736938,263.819977 219.502655,262.617981 218.697266,260.664734 
	C217.578735,257.952148 215.731674,255.247787 213.122604,254.708923 
	C209.644028,253.990448 209.104202,258.254150 205.963333,260.303680 
	C210.283478,261.422577 211.893173,265.953278 216.927338,264.567719 
M222.602509,314.322540 
	C218.942062,314.120270 216.987167,316.133026 216.519226,319.487762 
	C216.223373,321.608826 215.906479,324.133240 219.662628,325.213531 
	C219.395798,320.858307 223.928665,318.696564 222.602509,314.322540 
M223.836258,306.038574 
	C223.226807,307.064545 221.839676,307.816956 222.578018,309.349304 
	C228.477478,309.720886 229.124252,305.047272 231.536087,300.044769 
	C228.365112,302.451843 226.318314,304.005554 223.836258,306.038574 
M244.209045,260.314636 
	C248.068817,259.213623 249.655701,256.281250 250.946136,252.170624 
	C245.756241,254.661423 243.404602,258.649292 241.124985,263.025543 
	C242.760101,262.832520 242.880600,261.410614 244.209045,260.314636 
M503.194427,519.396057 
	C505.257843,520.277100 505.257843,520.277100 507.932404,515.511353 
	C504.105377,512.884705 503.657318,513.185852 503.194427,519.396057 
M185.336945,181.978821 
	C184.129578,185.748474 185.878036,187.348740 189.489227,187.893021 
	C191.650620,183.560745 187.700607,183.330154 185.336945,181.978821 
M221.506119,215.144241 
	C223.709320,213.271286 225.186905,210.907349 226.849106,207.852203 
	C221.899078,208.511642 220.487411,211.021942 221.506119,215.144241 
M247.425842,311.813995 
	C248.339691,314.335632 248.068253,317.260559 249.862732,319.848450 
	C249.862732,316.973633 249.966202,314.513947 249.826904,312.068115 
	C249.731659,310.395935 249.067627,309.375305 247.425842,311.813995 
z"/>
<path fill="#000000" opacity="1.000000" stroke="none" 
	d="
M136.437500,641.000000 
	C137.364716,640.116089 138.729446,639.232178 140.064743,638.367310 
	C137.805740,631.895386 137.837219,631.980896 144.698975,629.454834 
	C149.381393,627.730957 153.850204,626.160034 159.154556,626.851196 
	C162.476486,627.284058 165.610764,623.496033 169.203552,624.915405 
	C171.313599,623.271301 169.972931,620.678711 171.995697,618.940125 
	C175.502213,620.907959 178.899490,619.774475 182.140686,617.124634 
	C187.609726,621.516479 193.310745,624.750183 200.736191,621.878418 
	C200.784149,619.140442 198.498489,617.702576 197.119934,615.778687 
	C195.292709,613.228760 194.732834,611.296631 198.388153,609.509583 
	C202.334854,607.579956 207.427902,594.791016 206.712036,590.179321 
	C206.562958,589.219055 206.338837,587.896301 206.827667,587.270081 
	C210.827271,582.146179 210.736847,575.336609 214.239975,569.970886 
	C218.428925,563.554688 215.471695,556.439209 215.250717,549.680359 
	C215.130692,546.009338 212.285324,542.685791 212.457138,538.674500 
	C212.536240,536.827759 210.479935,536.658447 209.516113,535.628784 
	C207.343170,533.307312 204.532104,530.838806 209.626602,528.432068 
	C211.291809,527.645386 212.311920,525.994263 210.440659,524.462036 
	C206.996094,521.641479 209.277740,519.213318 211.135376,517.360718 
	C213.138000,515.363525 212.897751,514.150635 211.049698,512.498169 
	C206.559097,508.482849 205.604904,503.139160 205.746246,497.502991 
	C205.841415,493.708344 205.721802,490.359344 201.649933,488.229614 
	C199.126419,486.909760 199.637939,483.931335 199.651871,481.418243 
	C199.688843,474.751801 197.803619,473.332703 191.482178,475.164032 
	C187.875946,476.208771 185.636932,474.690369 185.581024,470.965698 
	C185.551620,469.006470 185.898560,467.041534 186.101593,464.790771 
	C179.798904,463.654175 177.564926,459.068390 176.344299,453.568939 
	C176.099274,452.464935 175.543732,451.340607 174.849609,450.443726 
	C173.319366,448.466400 171.825760,444.405365 169.226562,446.271423 
	C166.688416,448.093597 162.425278,450.377899 164.114731,455.344391 
	C164.951782,457.805084 165.080933,460.329956 162.053238,461.710999 
	C161.626083,461.905853 161.149979,462.315216 160.994736,462.735413 
	C159.180939,467.645477 157.176483,471.363281 150.499130,469.023590 
	C146.180862,467.510498 140.752289,469.290039 137.509415,464.429382 
	C136.990295,463.651245 135.860580,462.600525 135.185471,462.712738 
	C129.167267,463.712891 127.645729,459.511292 125.164124,455.360168 
	C122.594246,451.061432 118.467407,447.705963 115.108253,443.862152 
	C112.948090,441.390289 111.006432,438.830780 116.126106,437.375854 
	C117.462440,436.996094 118.297775,435.860992 118.883865,434.621338 
	C120.137268,431.970215 122.156342,431.134918 125.022377,431.643921 
	C128.472778,432.256714 130.638168,430.525574 131.982361,427.459900 
	C130.662735,425.796753 128.467575,426.416260 127.096977,424.952057 
	C125.549423,423.298767 123.369942,421.309937 125.056847,419.580353 
	C126.586418,418.012085 128.318344,414.564819 131.530197,416.253723 
	C135.964554,418.585419 139.358383,415.139771 141.552246,413.261200 
	C143.810303,411.327667 146.788712,408.182404 147.157974,404.768829 
	C147.583344,400.836517 149.835236,397.666656 150.449509,393.920410 
	C150.793427,391.823029 151.654770,390.178833 153.954971,389.544373 
	C154.865463,389.293274 155.978149,388.723724 156.412247,387.963989 
	C159.771133,382.085663 165.004654,378.418457 172.406769,375.139862 
	C165.202728,372.940704 160.782837,368.653900 155.550735,364.189270 
	C155.501678,368.354309 160.829102,368.316437 159.051575,371.310852 
	C157.491364,373.939148 154.525757,371.541046 152.197678,371.623627 
	C150.173248,371.695374 147.869690,371.914978 146.611282,374.199890 
	C145.427307,376.349640 146.455765,377.952423 147.500717,379.721069 
	C151.026093,385.687866 150.285156,390.244232 144.814194,394.273743 
	C142.303391,396.123047 141.287415,400.837646 135.664566,398.770966 
	C139.053085,395.194824 136.929169,389.799591 141.228134,386.642242 
	C143.419083,385.033112 143.258118,383.023407 141.001907,381.214050 
	C138.401169,382.440735 139.807083,387.035156 136.031647,387.224731 
	C133.494919,385.943665 136.072418,382.389252 133.118591,381.232178 
	C131.579483,381.014038 131.280106,382.696777 130.315170,383.486816 
	C128.663132,384.839417 126.498871,385.104004 125.539482,383.272217 
	C122.957016,378.341431 120.176155,381.339569 117.973221,383.087280 
	C115.924469,384.712646 114.443558,386.018402 112.003654,383.998962 
	C111.190979,383.326355 110.033714,383.430084 109.302895,384.327118 
	C107.386444,386.679535 107.842987,390.362854 105.352089,392.263062 
	C101.575081,395.144501 104.187576,398.194489 105.719963,399.911530 
	C110.041199,404.753510 106.587494,406.765991 103.219978,409.110992 
	C102.711891,409.464813 102.143944,409.732635 101.687126,409.992737 
	C101.652702,412.117279 104.083290,413.961212 102.005760,415.778564 
	C100.087059,417.456970 97.926956,416.439270 95.842133,415.845276 
	C90.393143,414.292816 88.254791,415.781494 87.072258,422.217194 
	C96.790855,425.830933 106.684555,422.474487 116.725128,423.018951 
	C118.197128,425.636810 116.525131,427.351013 115.253967,430.027740 
	C111.215836,438.530914 102.373627,440.731842 96.218674,446.316772 
	C95.740845,446.750336 95.158257,447.068451 94.569168,447.478607 
	C100.586617,451.301056 101.219734,454.390411 96.626419,457.066803 
	C97.243431,458.115356 100.110817,458.307709 98.250259,460.245514 
	C96.676796,461.884216 94.027832,462.698914 92.434341,460.904755 
	C89.462051,457.558105 86.346024,456.926666 82.306389,458.378571 
	C80.813103,458.915222 79.479622,457.600098 78.267822,456.752747 
	C74.848724,454.361816 72.323524,455.191193 70.657425,458.847565 
	C69.378052,461.655243 68.268105,464.540100 66.421722,467.622162 
	C65.635902,462.657806 59.261730,461.605530 59.338432,456.101318 
	C59.356014,454.839966 58.324333,453.994232 56.530857,454.011749 
	C53.097103,454.045319 49.603500,453.844940 46.233917,453.212891 
	C40.801880,452.194000 36.689304,454.255341 33.264267,458.096436 
	C28.056854,463.936432 30.122501,470.017853 33.021572,476.005341 
	C33.589115,477.177490 35.097927,478.050110 35.304604,479.214905 
	C36.459778,485.725311 40.857361,485.586884 45.740524,484.561005 
	C49.169384,487.509003 47.124512,491.483978 47.622063,494.904144 
	C47.849224,496.465668 45.566921,497.200317 43.778122,497.343048 
	C41.459145,497.528107 39.142998,497.774475 36.835297,498.069977 
	C30.914600,498.828003 29.540276,501.403046 32.059849,506.819153 
	C32.537910,507.846771 32.793308,508.977966 33.269142,510.417480 
	C29.378979,511.290222 28.233091,514.993896 25.592516,517.197205 
	C23.278553,519.128052 24.663719,522.645630 24.372288,525.437683 
	C24.286518,526.259399 25.920456,526.794312 26.759354,525.842285 
	C28.891432,523.422729 31.148024,522.433716 34.188190,524.293274 
	C37.594212,526.376648 35.211838,528.967346 34.994022,531.386353 
	C34.969597,531.657654 35.239170,531.955383 35.553051,532.627808 
	C37.131641,530.604614 38.244720,528.097717 40.161186,527.021790 
	C42.128716,525.917236 44.881359,526.211060 47.341911,525.886169 
	C48.934361,529.216919 47.787300,532.433960 48.206444,535.510437 
	C48.685108,539.023682 50.459782,540.138306 53.671612,539.370422 
	C59.478138,537.982239 65.489372,538.564270 71.360023,536.859192 
	C77.337173,535.123352 79.725334,538.213196 78.477936,544.534851 
	C78.226021,545.811523 78.205292,547.133850 78.042511,548.797607 
	C72.803947,548.772095 68.104538,552.764465 62.609856,550.095337 
	C61.549007,549.579956 60.828365,550.614014 60.245541,551.469238 
	C58.097965,554.620361 55.562752,557.553650 54.663826,561.686890 
	C57.998283,563.771118 58.347507,566.319885 55.246078,569.110229 
	C55.122814,569.221069 54.949005,569.340149 54.918999,569.481018 
	C52.871731,579.093445 44.887943,583.896851 38.147644,589.667358 
	C44.229027,595.574524 43.914787,599.546570 37.236469,604.475281 
	C33.081657,607.541565 32.946007,613.349121 37.023758,616.874146 
	C38.904652,618.500122 39.110062,620.382263 36.661602,620.874390 
	C32.743637,621.661987 28.683626,624.114197 24.634995,621.238708 
	C22.958250,620.047791 21.430830,620.756470 19.931166,621.436707 
	C17.740585,622.430298 15.897172,623.211914 13.611661,621.104431 
	C11.748898,619.386841 10.230824,621.412842 9.303478,622.946106 
	C8.262680,624.667053 8.780343,625.978516 10.811387,626.853333 
	C13.811104,628.145447 16.730381,628.764893 20.008265,627.912415 
	C23.697283,626.953186 27.468529,626.288635 31.227266,625.628235 
	C33.008156,625.315247 34.924953,624.942139 35.643585,627.520508 
	C36.310402,629.912964 34.573837,630.622192 33.175747,631.826538 
	C28.497063,635.856934 22.357296,637.107056 17.152214,640.696472 
	C14.299986,641.000000 11.599973,641.000000 8.737481,640.799988 
	C12.449419,638.716431 16.290112,636.726562 20.525604,635.762817 
	C23.427738,635.102539 25.293333,633.685913 25.234192,629.537842 
	C17.174957,632.255066 8.896466,630.831909 1.000000,633.000000 
	C1.000000,629.969421 1.000000,626.938782 1.000000,623.454102 
	C4.693121,622.204956 7.444435,619.661560 10.547516,617.791138 
	C13.575397,615.966003 16.463858,614.251953 18.811361,618.110901 
	C20.510550,617.919373 20.789183,616.940491 21.043831,615.962402 
	C21.363823,614.733398 21.926786,613.797485 23.391401,613.863464 
	C24.891981,613.931030 25.314423,614.920532 25.417089,616.210693 
	C25.589500,618.377319 26.645651,619.542664 29.106472,619.326111 
	C29.738354,617.130615 30.403582,614.962708 30.979092,612.771362 
	C31.394283,611.190308 31.253231,609.835266 29.406641,609.113159 
	C28.059614,608.586487 26.255604,608.112976 26.835318,606.082703 
	C27.377792,604.182861 29.208136,604.721741 30.635378,604.502441 
	C33.754074,604.023132 36.042057,601.949707 38.292961,600.031555 
	C40.138935,598.458496 39.648315,596.486816 38.193130,594.762512 
	C30.636271,596.064087 30.636271,596.064087 27.288303,594.886047 
	C29.532625,591.070435 34.138832,590.265076 36.676517,587.120850 
	C42.035198,580.481445 51.372543,576.963074 52.284988,566.822937 
	C52.428837,565.327454 50.068001,565.846436 49.895531,563.744812 
	C51.402802,560.770264 53.037571,557.337769 54.866348,554.011902 
	C55.978321,551.989624 58.000957,550.547424 58.690617,548.212646 
	C59.086006,546.874084 60.237858,546.131592 61.385658,546.677124 
	C65.933853,548.838684 69.153229,545.291931 73.075455,544.505798 
	C73.180908,541.111023 72.582466,539.340637 68.614250,539.896423 
	C62.558731,540.744507 56.456142,541.748108 50.430565,542.172119 
	C45.996334,542.484253 41.045742,542.476074 36.802650,541.422852 
	C35.549011,539.460205 37.817120,538.248596 36.665359,536.449219 
	C32.577251,536.980957 29.759853,535.821472 27.765184,531.238281 
	C26.841497,529.115906 22.150515,528.510071 19.072765,527.507385 
	C17.801655,527.093262 16.486416,527.017151 15.631618,525.759338 
	C15.271096,523.647583 17.391008,522.735596 18.067009,521.013306 
	C17.076021,518.985352 14.797499,517.655457 14.671251,514.605286 
	C17.805857,512.542603 21.092964,510.164856 25.194063,509.676758 
	C27.812963,509.365082 28.825924,508.395050 28.181332,505.816315 
	C28.020588,505.173218 27.899702,504.502502 27.888689,503.842377 
	C27.768482,496.636993 28.378828,496.023193 35.660046,495.505066 
	C37.131077,495.400330 38.578594,494.979309 40.039909,494.720825 
	C42.879547,494.218536 42.462452,491.828033 42.560001,489.984406 
	C42.664780,488.004150 40.845936,487.762390 39.380821,487.522369 
	C37.721687,487.250519 36.184189,487.517181 34.576881,488.304901 
	C28.508604,491.278931 26.461300,491.104584 22.759048,485.731995 
	C20.642424,482.660492 18.671259,480.875885 14.901588,481.311279 
	C14.239117,481.387817 13.480786,480.634460 12.769163,480.265594 
	C14.305913,477.194244 14.305913,477.194244 25.489529,474.034546 
	C24.061041,471.024567 26.010593,467.872772 25.231491,464.416870 
	C22.290270,465.060150 22.449848,467.117981 22.382109,469.040955 
	C22.335176,470.373199 21.791412,471.311279 20.330795,471.350586 
	C19.229532,471.380219 18.444841,470.782074 17.947838,469.828827 
	C17.347179,468.676758 20.100286,455.474792 20.976875,454.361298 
	C23.661076,450.951660 26.333294,452.432831 29.638062,455.108978 
	C31.143263,448.296967 35.044209,448.722290 40.306259,450.052551 
	C45.005936,451.240662 50.197136,450.816833 55.147171,450.585327 
	C59.758564,450.369659 62.937851,451.711761 64.221817,456.366455 
	C64.545219,457.538849 64.996765,458.569519 66.298973,458.948242 
	C67.771523,458.954315 68.394363,457.833618 68.631721,456.744568 
	C69.790054,451.429657 74.003616,451.489990 77.083908,453.270538 
	C82.014732,456.120789 86.584686,453.375458 91.780182,454.214508 
	C86.699081,449.788361 88.382561,447.039307 92.963783,444.541473 
	C95.091743,443.381226 97.375504,442.121765 98.193573,439.432678 
	C98.355598,438.900085 99.187233,438.095978 99.555885,438.171326 
	C107.612511,439.818329 108.959137,433.211029 111.737091,428.367371 
	C105.444336,428.385986 105.444336,428.385986 100.297035,431.056061 
	C98.677612,428.817047 96.663536,427.543121 93.443779,427.881500 
	C89.847916,428.259521 86.850609,425.912384 84.031761,423.902557 
	C81.982895,422.441711 81.594734,420.419006 83.437332,418.347443 
	C85.761261,415.734802 87.944244,412.912140 91.848236,412.628876 
	C92.881271,412.553925 94.494881,412.158508 94.398483,411.468384 
	C93.661232,406.189789 97.781075,406.547791 102.251366,405.923401 
	C98.089005,403.222748 100.299461,397.513153 94.805450,396.778442 
	C93.610634,396.618652 93.690468,394.812042 94.264389,393.730072 
	C95.531082,391.342010 97.536469,393.516510 98.911316,393.251099 
	C100.398331,392.009888 98.635635,390.433777 100.081306,389.063843 
	C103.819923,391.058807 105.076218,388.782410 105.745758,385.340363 
	C106.330574,382.333893 107.541641,380.442780 111.425041,380.715820 
	C114.887413,380.959229 118.935539,380.837555 120.573189,376.379578 
	C120.768089,375.848999 121.665611,375.085938 122.038147,375.184479 
	C128.103363,376.787994 132.201889,371.613739 137.577194,370.752686 
	C142.472198,369.968506 140.646057,374.565002 142.676651,376.271851 
	C143.996719,372.559021 145.048203,368.968933 150.140045,368.280792 
	C153.269836,367.857819 152.119843,364.740997 150.365494,362.116058 
	C155.238907,361.525391 159.334671,362.513580 161.800842,365.426941 
	C164.355347,368.444641 167.304688,370.049377 170.719391,371.391144 
	C173.095825,372.324890 175.224686,373.148956 174.365509,376.752960 
	C173.782150,379.199982 178.863770,381.282440 181.770966,379.063599 
	C185.584503,376.152985 190.880157,376.994263 194.200226,373.184021 
	C195.774475,371.377319 197.931915,373.649475 199.912872,373.322052 
	C204.470932,372.568634 208.326355,376.296692 213.263550,375.216339 
	C215.425446,374.743286 218.824692,378.151886 218.251862,380.536316 
	C216.968948,385.876404 220.606384,389.653168 221.815033,393.984436 
	C223.020859,398.305695 226.169968,402.894440 230.594543,405.510406 
	C236.564636,409.040161 236.822296,415.153961 231.009766,418.711853 
	C229.551178,419.604706 227.576584,419.974426 226.838837,422.743439 
	C230.192413,420.613037 233.589508,422.066711 236.754517,420.830811 
	C239.165771,419.889252 240.906555,421.606018 242.077957,423.539825 
	C249.009109,434.982239 248.501938,445.503906 240.511292,455.817963 
	C238.662903,458.203735 236.937363,460.176514 233.044922,458.706116 
	C228.820053,457.110199 226.693161,459.092987 226.370132,463.802002 
	C226.105545,467.658875 224.594543,470.768707 221.650391,473.330048 
	C219.012222,475.625214 215.901581,477.211426 213.228012,479.501373 
	C210.488678,481.847565 207.210159,479.467041 203.986343,478.997009 
	C201.663742,482.396118 201.031876,485.099976 205.577103,487.388550 
	C209.709915,489.469452 208.915878,493.914673 208.523727,497.267700 
	C207.879395,502.777100 209.060608,507.172302 213.362198,510.586487 
	C216.115097,512.771545 216.732483,515.265381 215.478012,518.510437 
	C214.283249,521.600952 212.971909,524.564941 216.679642,527.398987 
	C218.520416,528.806030 217.607285,530.898254 214.850357,530.691101 
	C213.400284,530.582153 212.074219,530.425659 211.540573,532.013367 
	C210.976425,533.691772 212.340805,534.388733 213.530685,534.999695 
	C216.402435,536.474243 214.145630,539.367249 215.324020,541.294861 
	C219.308807,547.813293 217.231750,555.612671 219.744980,562.473877 
	C220.119736,563.496887 219.417053,565.131287 218.805618,566.262817 
	C215.437943,572.495667 213.487808,579.309875 210.666992,585.763672 
	C210.141068,586.966980 209.195908,588.551880 209.581284,589.496948 
	C212.050827,595.552551 208.513107,599.875610 205.301407,603.975281 
	C203.035202,606.868042 202.812378,610.351929 201.235336,613.393494 
	C200.472290,614.865051 201.204758,616.848938 202.641846,617.859070 
	C205.035080,619.541321 204.505997,621.289612 203.520218,623.479980 
	C202.445419,625.868164 200.835403,625.731873 198.630920,625.551208 
	C194.012146,625.172791 189.224777,626.598145 184.917023,623.431030 
	C184.069153,622.807617 181.322952,623.205994 180.726181,624.042236 
	C174.666397,632.533325 165.617477,627.991821 157.996643,629.460266 
	C155.583252,629.925415 153.000046,629.497314 150.580124,629.942871 
	C144.890259,630.990479 144.347641,635.907288 143.113022,640.658752 
	C140.958328,641.000000 138.916672,641.000000 136.437500,641.000000 
M240.939072,428.062866 
	C240.605133,424.805817 239.110504,423.669006 235.601822,423.950195 
	C232.166382,424.225525 228.984085,424.354706 226.524246,427.098389 
	C225.703430,428.013885 224.714935,428.687164 223.451859,428.093994 
	C221.970749,427.398438 221.951401,425.965607 222.113159,424.637024 
	C222.592743,420.697571 225.324768,418.596924 228.608078,417.036438 
	C230.373260,416.197510 232.484375,415.022736 230.563889,413.082123 
	C225.984024,408.454285 224.171478,402.112946 220.013031,397.093048 
	C217.597092,394.176605 213.896271,389.786377 215.721893,384.340179 
	C216.664261,381.528931 214.932571,377.636292 212.531754,378.127106 
	C207.875458,379.078979 204.347565,376.104187 200.088043,376.197662 
	C197.463379,376.255219 195.197174,376.614960 192.632141,377.356964 
	C187.604416,378.811371 183.432510,383.207275 177.707428,382.083984 
	C174.615189,381.477264 173.156815,382.584869 172.286179,385.526703 
	C170.802856,390.538757 168.187012,393.269348 162.002319,392.206299 
	C159.739120,391.817291 154.683319,389.607361 153.425156,394.159058 
	C151.228546,402.105804 147.587173,409.404327 144.309601,416.993805 
	C138.910767,417.355896 134.338837,421.153564 127.492752,420.229279 
	C130.284409,423.509247 132.415039,424.255005 134.736481,424.701172 
	C138.198547,425.366516 137.922897,427.268127 135.867813,429.151581 
	C132.606705,432.140411 129.505966,435.365906 124.283440,434.793335 
	C120.587929,434.388214 120.157486,438.632172 117.934959,440.454895 
	C116.472527,441.654236 117.931015,443.612488 119.063606,444.232574 
	C126.745811,448.438507 127.581238,460.387573 138.247971,461.146454 
	C138.533340,461.166748 138.832336,461.469757 139.063782,461.701904 
	C141.882782,464.529663 144.584137,465.702576 149.159744,464.816162 
	C157.185837,463.261322 160.114960,460.964966 159.629303,453.330109 
	C159.524094,451.676331 160.535095,450.528259 161.569855,449.439728 
	C162.593994,448.362335 163.799377,447.442078 164.732422,446.295898 
	C168.395096,441.796539 171.266312,441.640381 175.200043,445.981781 
	C176.882355,447.838470 177.714630,450.136566 178.617264,452.508453 
	C179.714111,455.390625 179.814804,459.803680 183.830795,460.252716 
	C188.976044,460.828033 189.748947,463.613770 189.177567,467.822357 
	C188.909866,469.794189 189.253174,472.155273 191.651474,471.701263 
	C195.403458,470.990997 200.490356,472.570679 202.051361,466.849915 
	C202.269379,466.050903 202.597427,464.807587 204.600616,465.018463 
	C205.314331,467.889435 208.657730,467.931091 210.702866,469.692108 
	C213.167450,471.814331 215.971207,473.099274 218.704300,471.786163 
	C222.163651,470.124176 224.091522,466.891266 223.612564,462.726685 
	C223.191803,459.068115 224.867859,456.380737 227.580917,453.878906 
	C230.771729,455.891144 234.040573,456.536194 237.394608,454.553314 
	C238.940414,453.639496 239.921707,452.300659 239.623550,450.441925 
	C239.277069,448.281982 237.689194,448.654877 236.138000,448.880219 
	C235.100769,449.030914 234.177246,448.622437 233.400589,447.249298 
	C236.348984,443.005585 234.970657,438.771118 232.423599,434.621918 
	C231.132904,432.519379 232.141403,430.615051 233.530762,429.222992 
	C235.119690,427.630951 236.524704,429.439972 237.960861,430.099731 
	C239.239243,430.687073 240.009308,432.372772 241.944489,431.904205 
	C242.395157,430.670776 241.687729,429.688934 240.939072,428.062866 
M162.614532,384.023376 
	C161.776169,385.216064 160.558823,386.249969 160.915741,387.939026 
	C166.957260,391.024902 170.351761,388.225677 170.859802,379.540802 
	C167.644897,379.766541 165.527298,381.973389 162.614532,384.023376 
M237.984634,444.551849 
	C241.991943,438.007263 241.663986,435.817993 236.273193,433.097198 
	C238.908890,436.546448 236.573364,440.606995 237.984634,444.551849 
M208.766632,474.578979 
	C206.899841,473.222534 205.220337,470.249603 202.401947,473.862305 
	C204.851715,476.399780 207.890259,476.928589 210.824615,478.150757 
	C210.824615,477.464355 210.945648,477.075623 210.802597,476.884155 
	C210.314178,476.230438 209.732864,475.646149 208.766632,474.578979 
z"/>
<path fill="#000000" opacity="1.000000" stroke="none" 
	d="
M389.468628,641.000000 
	C389.191620,639.503601 389.457001,638.038452 390.968079,636.708618 
	C393.616333,638.412354 397.326721,635.329651 400.090271,639.039185 
	C401.246063,640.590576 402.958923,638.804626 403.858276,637.223816 
	C405.439178,634.444946 406.760132,633.282166 409.804749,636.374146 
	C412.512360,639.123962 415.357269,635.042664 418.311554,634.763123 
	C418.813873,634.715576 419.155487,633.696655 419.716248,633.411865 
	C421.966492,632.269348 424.135132,628.248962 426.264099,630.243835 
	C429.063538,632.866943 434.042847,634.738342 433.026215,640.591675 
	C431.611115,641.000000 430.222198,641.000000 428.509735,640.689087 
	C429.156708,637.289246 427.302155,635.611572 424.337524,633.093933 
	C424.181671,639.748535 420.369171,639.947998 415.868469,639.327148 
	C415.005646,639.208130 413.960846,640.408386 413.000000,641.000000 
	C405.312408,641.000000 397.624847,641.000000 389.468628,641.000000 
z"/>
<path fill="#000000" opacity="1.000000" stroke="none" 
	d="
M568.463196,641.000000 
	C567.144226,639.470093 565.599731,638.193237 566.110352,636.004150 
	C569.311157,634.681885 571.005554,638.761536 574.019165,638.029785 
	C576.412109,636.115784 570.906311,632.196899 575.661865,630.689697 
	C577.866333,632.049316 577.119385,635.156006 578.861755,636.230347 
	C586.729187,632.995239 588.724792,626.622742 588.793396,619.029236 
	C588.822632,615.797729 590.886719,613.159424 592.722412,610.216187 
	C593.000000,612.041687 593.000000,614.083313 592.736694,616.819458 
	C592.155396,618.090515 591.633240,618.639343 591.550415,619.247925 
	C590.615967,626.111450 590.362122,633.208679 583.013062,637.113159 
	C581.952881,637.676392 581.652161,639.668884 581.000000,641.000000 
	C576.975464,641.000000 572.950928,641.000000 568.463196,641.000000 
z"/>
<path fill="#000000" opacity="1.000000" stroke="none" 
	d="
M372.600006,1.000000 
	C370.624664,5.621592 370.201294,10.119920 373.921722,14.683460 
	C373.999695,15.005420 374.025604,14.975766 374.025604,14.975766 
	C371.620667,17.169123 370.042664,14.573971 368.224609,14.301351 
	C363.358673,13.571699 362.801605,10.284547 361.225098,6.738615 
	C364.028290,5.447818 366.452087,3.623541 368.870483,1.309715 
	C370.066681,1.000000 371.133331,1.000000 372.600006,1.000000 
z"/>
<path fill="#000000" opacity="1.000000" stroke="none" 
	d="
M175.135315,107.144104 
	C184.901276,97.963051 197.322021,92.619919 206.687805,81.855896 
	C215.156860,92.130913 210.452469,100.630051 204.582413,109.362999 
	C208.149124,109.886360 209.203888,105.203751 212.383850,106.564430 
	C212.824249,112.496758 211.103928,114.421478 205.198318,114.415756 
	C203.856735,114.414459 202.786972,114.737129 202.522324,116.064377 
	C202.105225,118.156334 201.169525,120.108032 201.462631,122.398827 
	C202.648544,131.667068 198.187805,137.755768 188.500824,140.013779 
	C189.110336,143.435516 186.964615,144.833160 184.184830,146.404251 
	C180.623947,148.416809 177.262390,150.956940 174.575806,154.180847 
	C172.879791,156.216049 171.115768,156.100647 169.619385,154.124542 
	C167.548813,151.390076 163.723495,149.740082 163.751633,145.532135 
	C169.660141,144.097839 169.660141,144.097839 173.587616,137.115036 
	C169.948593,136.036118 166.046051,135.402039 163.985367,131.656357 
	C163.308090,130.425308 161.279831,129.916702 161.856171,128.028381 
	C162.519943,125.853477 164.788239,127.381203 166.204987,126.342316 
	C163.579742,122.508675 162.579453,118.358612 164.956497,114.234047 
	C168.749634,107.652313 166.684937,107.145599 175.064255,109.823906 
	C175.064255,108.965645 175.064255,108.191696 175.135315,107.144104 
M166.843872,118.164879 
	C166.168030,125.030373 173.124222,123.413139 176.358810,126.305206 
	C173.886353,128.583878 169.350525,127.897247 168.791534,132.556473 
	C173.973602,133.097229 177.812714,136.878403 183.316467,138.354370 
	C179.718002,129.806610 183.603806,125.597610 190.769470,121.479691 
	C192.179764,120.669235 193.391037,119.395142 194.603806,118.676041 
	C198.266510,116.504250 198.832916,112.609711 200.604874,109.506081 
	C203.569794,104.312927 208.666061,100.103317 208.501099,93.319756 
	C208.449509,91.198128 209.415680,88.688011 207.238098,87.391464 
	C205.352768,86.268913 203.968903,88.352577 202.520752,89.336510 
	C196.808792,93.217453 192.809280,99.242081 185.929871,101.784515 
	C181.944244,103.257492 181.304138,106.679100 183.871643,110.336952 
	C184.346588,111.013588 184.686401,111.785355 185.085403,112.514946 
	C185.603348,113.461922 185.703873,114.434395 185.018524,115.318031 
	C184.072311,116.538048 183.006424,116.104797 181.947235,115.433723 
	C181.106323,114.900932 180.266647,114.307968 179.182724,114.834068 
	C178.023239,115.604004 178.138412,116.784561 178.141968,117.957893 
	C178.145248,119.042221 178.599579,120.385727 176.877396,120.687447 
	C171.765442,113.678734 171.765442,113.678734 166.843872,118.164879 
M196.545624,127.714912 
	C196.871811,126.547203 197.198013,125.379494 197.522614,124.217453 
	C193.756256,123.003387 192.152969,125.975632 189.800232,127.254951 
	C188.178833,128.136581 186.077820,128.807938 186.542801,131.046616 
	C187.069763,133.583679 189.363113,133.682632 192.084229,133.947083 
	C188.692413,128.151855 193.163284,128.697464 196.545624,127.714912 
M169.959946,146.943665 
	C167.837570,149.711929 169.673569,150.991440 172.012650,151.325211 
	C174.074081,151.619385 178.126205,144.521042 177.487000,141.259964 
	C175.896301,144.550690 172.264816,144.090622 169.959946,146.943665 
z"/>
<path fill="#000000" opacity="1.000000" stroke="none" 
	d="
M355.425140,49.903564 
	C356.128082,54.855286 359.525909,50.945705 361.629425,52.274990 
	C362.585266,55.938869 359.710693,58.093342 357.220886,59.192719 
	C354.702667,60.304646 351.192505,60.576534 348.947571,57.838600 
	C346.959015,55.413376 345.992279,52.274448 343.713562,49.982063 
	C342.777100,49.039986 343.009491,47.347038 343.741211,46.731762 
	C348.694916,42.566441 346.287933,36.917652 346.698364,31.977962 
	C347.413605,23.369120 350.640594,20.899708 358.627441,23.936213 
	C358.923157,21.934036 358.272675,18.786819 361.242188,19.004459 
	C364.178162,19.219641 367.777710,19.033142 369.727325,22.145884 
	C370.565552,23.484219 370.560883,25.619612 368.774292,25.874269 
	C364.607086,26.468260 364.091095,28.494385 365.213104,32.032040 
	C365.550446,33.095661 364.850433,34.488297 364.999603,36.195866 
	C368.117889,33.663853 369.616730,28.604052 375.132385,29.719072 
	C375.755066,32.675877 376.226227,35.644695 372.853516,37.518814 
	C374.147217,38.320030 375.329315,39.220463 376.644653,39.836414 
	C381.315460,42.023678 381.616150,43.930531 377.222015,46.924183 
	C372.150452,50.379368 370.281128,55.181957 370.216064,61.012707 
	C370.189056,63.434193 368.784515,64.406815 366.625244,63.692211 
	C363.930969,62.800533 362.636841,54.559486 364.914459,52.711876 
	C367.136688,50.909206 368.181702,49.147377 366.567230,46.349091 
	C364.761932,43.220024 362.421997,44.533039 360.679047,45.849754 
	C358.942535,47.161572 355.037079,45.504314 355.425140,49.903564 
M357.830383,43.810177 
	C359.368561,42.455311 361.976562,43.131611 363.438538,41.134048 
	C361.289368,39.231960 355.917755,39.231388 359.898804,34.502911 
	C361.252563,32.894966 363.064697,31.150045 360.727264,28.956648 
	C358.508209,26.874340 356.003021,24.893749 352.810638,25.815784 
	C350.051208,26.612780 349.131226,28.959345 349.766846,31.826283 
	C349.951782,32.660389 349.950195,33.535854 350.077698,34.837360 
	C350.901642,32.984264 351.585449,31.639662 353.439545,31.717127 
	C355.304596,31.795048 355.132355,33.467628 355.695709,34.582485 
	C356.722046,36.613499 357.139618,38.562679 355.906036,40.747227 
	C355.130280,42.120983 354.888306,43.717373 357.830383,43.810177 
M353.472992,53.927670 
	C353.235596,49.729664 350.763428,47.867725 345.976044,46.876068 
	C347.643921,50.013767 348.869568,52.283699 350.061127,54.571381 
	C351.197693,56.753517 352.260956,55.935131 353.472992,53.927670 
z"/>
<path fill="#000000" opacity="1.000000" stroke="none" 
	d="
M161.924255,185.321381 
	C160.645142,187.277481 159.806091,188.902710 160.710526,191.132721 
	C161.759216,193.718369 161.540573,196.181412 159.644287,198.556274 
	C157.353821,201.424820 158.534882,205.095352 159.613312,207.626572 
	C161.614532,212.323700 158.624313,214.164902 156.414124,216.856903 
	C151.916565,212.897141 149.061005,208.424561 148.663910,202.613785 
	C148.596588,201.628830 147.804642,200.411240 148.161331,199.722855 
	C151.976822,192.359818 148.285446,184.063446 151.189590,176.536865 
	C152.134125,174.088943 149.637711,172.512848 147.709427,171.078430 
	C145.982788,169.794037 142.746292,169.040344 143.849594,166.117386 
	C144.814331,163.561600 145.928040,161.077316 149.710953,160.211548 
	C153.143204,159.426041 156.679062,159.457779 160.102188,158.388367 
	C163.946350,157.187363 168.232895,162.799332 166.906601,166.673523 
	C165.299454,171.368134 164.591278,176.381073 161.772247,180.646439 
	C160.850037,182.041809 161.652039,183.555511 161.924255,185.321381 
M147.332642,166.263367 
	C151.820694,167.812637 154.773712,171.771133 159.948853,174.794586 
	C158.811661,172.616943 157.163345,172.528030 157.238052,171.703552 
	C157.782364,169.192581 160.517761,170.373108 161.146530,168.538727 
	C160.952148,166.578598 160.759903,164.640121 160.509659,162.116699 
	C158.703110,163.652817 156.485703,163.646713 155.087204,164.280624 
	C152.452789,165.474747 149.369980,162.908173 147.332642,166.263367 
M156.389862,198.142960 
	C158.066925,195.082993 156.481522,189.901001 152.562592,187.321640 
	C152.971695,193.805801 149.836411,199.704620 152.198669,206.506165 
	C158.856857,204.478622 151.847656,201.746353 152.777847,199.769180 
	C153.412994,198.440414 154.795288,198.894272 156.389862,198.142960 
z"/>
<path fill="#000000" opacity="1.000000" stroke="none" 
	d="
M290.186066,470.154236 
	C286.466736,476.203430 280.179230,471.089447 275.955933,474.526764 
	C278.124634,470.470795 279.707123,466.792023 280.178162,462.627380 
	C280.355377,461.060028 280.834351,459.356659 282.394440,458.337982 
	C285.181885,456.517883 286.633881,453.712921 287.677032,450.714233 
	C289.426727,445.684570 293.213562,443.617523 298.022003,442.946716 
	C299.719421,444.137665 299.340820,445.675812 299.214203,447.117065 
	C299.142578,447.932678 298.669556,448.783569 298.811432,449.536774 
	C300.710388,459.618317 299.401154,462.881683 290.186066,470.154236 
M296.662476,449.822998 
	C296.410309,448.627686 297.264404,447.144714 295.588501,446.131683 
	C294.790619,446.562988 293.620758,446.808441 293.132935,447.520905 
	C289.534943,452.775818 285.968292,458.060059 282.654297,463.495148 
	C281.969940,464.617523 282.233002,466.421539 282.336700,467.891876 
	C282.445831,469.439240 283.357788,470.213196 285.061462,469.873688 
	C291.945770,468.501862 298.528412,457.609741 296.662476,449.822998 
z"/>
<path fill="#000000" opacity="1.000000" stroke="none" 
	d="
M249.913574,351.583374 
	C249.722702,348.693390 249.611710,346.233643 248.071854,344.047699 
	C247.274841,342.916260 247.355316,341.556946 247.799896,340.205292 
	C249.029358,336.467346 250.535095,332.334076 255.026657,332.466644 
	C259.670868,332.603760 261.832520,336.647919 262.162689,340.817963 
	C262.440399,344.325043 264.946198,347.147400 264.483246,350.779724 
	C264.169525,353.241333 265.928223,356.454590 262.355347,357.646057 
	C258.580963,358.904755 254.723129,359.093018 251.878922,355.485321 
	C251.071640,354.461365 250.625320,353.152802 249.913574,351.583374 
M258.836548,338.798401 
	C257.782532,336.924377 256.887543,334.526978 254.053421,336.147888 
	C251.634308,337.531464 249.581543,339.632385 250.718781,342.601196 
	C251.742355,345.273315 252.207260,347.953796 252.683136,350.715820 
	C253.017776,352.658142 253.998215,354.419342 255.896240,355.517731 
	C257.325958,356.345123 258.615265,356.506897 260.079437,355.657013 
	C261.693268,354.720306 261.846893,353.397217 261.301270,351.830841 
	C259.905487,347.823944 259.284454,343.682922 258.836548,338.798401 
z"/>
<path fill="#000000" opacity="1.000000" stroke="none" 
	d="
M373.988708,15.021854 
	C375.965759,12.491522 377.707123,14.782584 380.132812,15.798840 
	C382.027435,9.330958 386.688782,7.376710 393.148895,8.699220 
	C394.491913,8.739841 394.572174,10.336489 395.164490,11.293581 
	C389.855530,15.226111 384.445129,18.475630 378.185913,21.147396 
	C377.650146,22.094336 379.591675,24.077030 377.574829,25.178518 
	C376.673462,25.670799 375.558746,25.797468 374.795868,24.984983 
	C373.403076,23.501667 372.409668,21.806063 372.998535,19.613226 
	C373.339447,18.343786 373.641602,17.063936 373.993408,15.382271 
	C374.025604,14.975766 373.999695,15.005420 373.988708,15.021854 
z"/>
<path fill="#000000" opacity="1.000000" stroke="none" 
	d="
M149.393066,226.404449 
	C148.370239,227.283539 147.666962,227.997910 146.859985,228.564667 
	C145.584076,229.460785 144.173492,230.057526 142.822266,228.766937 
	C141.556015,227.557510 141.669556,225.998337 142.440201,224.643768 
	C144.059418,221.797638 145.609543,218.854935 147.653610,216.328583 
	C148.944168,214.733521 151.403214,214.552444 152.820465,216.216202 
	C154.126083,217.748901 156.568771,219.590698 153.971069,222.093842 
	C152.547501,223.465591 151.101807,224.814392 149.393066,226.404449 
z"/>
<path fill="#000000" opacity="1.000000" stroke="none" 
	d="
M184.116180,260.132690 
	C184.863556,262.190613 184.241638,263.322815 182.223312,264.483246 
	C179.455139,266.074799 176.401413,267.648315 175.500397,271.235138 
	C171.528534,271.147369 170.529541,268.850342 170.509705,265.683105 
	C170.489700,262.489441 172.670746,262.145294 175.162949,261.756256 
	C177.908005,261.327698 180.579910,260.430542 183.639954,259.871704 
	C183.996216,260.005920 184.116180,260.132690 184.116180,260.132690 
z"/>
<path fill="#000000" opacity="1.000000" stroke="none" 
	d="
M183.934799,259.943970 
	C185.684387,254.636215 189.905228,251.485870 194.058472,248.318207 
	C194.985733,247.610977 196.266693,247.548935 197.277847,248.448654 
	C198.340652,249.394302 198.013931,250.529282 197.573257,251.640945 
	C195.274399,257.440155 190.570175,259.635254 184.441299,260.156097 
	C184.116180,260.132690 183.996216,260.005920 183.934799,259.943970 
z"/>
<path fill="#000000" opacity="1.000000" stroke="none" 
	d="
M200.678452,225.631668 
	C199.321777,223.294586 195.736633,222.502579 196.752808,219.534393 
	C197.483887,217.398987 199.464966,215.841599 201.962891,215.442780 
	C204.593414,215.022797 206.417999,216.203690 207.634323,218.421600 
	C209.257736,221.381790 207.782272,223.928635 206.087357,226.109497 
	C204.580353,228.048615 202.597748,227.465103 200.678452,225.631668 
M204.170273,223.669998 
	C204.382706,222.924927 204.795380,222.171158 204.763412,221.436722 
	C204.707199,220.145111 204.487839,218.722809 202.846207,218.480774 
	C202.307526,218.401352 201.517075,218.686874 201.141876,219.086975 
	C199.887863,220.424164 201.027771,221.474792 201.818497,222.441696 
	C202.295319,223.024750 203.010742,223.412659 204.170273,223.669998 
z"/>
<path fill="#000000" opacity="1.000000" stroke="none" 
	d="
M43.432259,554.781128 
	C40.171272,551.764160 35.418156,551.611572 32.849541,547.968933 
	C37.922329,545.532715 45.684208,549.059937 49.071918,555.137695 
	C47.223221,557.481384 45.516548,555.162170 43.432259,554.781128 
z"/>
<path fill="#000000" opacity="1.000000" stroke="none" 
	d="
M387.843079,27.033539 
	C388.080109,32.060123 387.624207,32.271065 379.780609,30.880926 
	C380.413635,28.080055 379.002960,24.205200 381.796753,22.697145 
	C384.609955,21.178600 386.229034,24.557329 387.843079,27.033539 
z"/>
<path fill="#000000" opacity="1.000000" stroke="none" 
	d="
M208.781860,298.897522 
	C210.080582,297.851990 211.093399,296.994385 213.233200,297.368866 
	C212.963318,301.456604 211.106628,304.762177 208.893433,307.900238 
	C208.331207,308.697479 207.337082,309.198700 206.279602,308.611664 
	C205.307999,308.072327 204.945419,307.087677 205.098648,306.076996 
	C205.501190,303.421936 206.415802,300.976624 208.781860,298.897522 
z"/>
<path fill="#000000" opacity="1.000000" stroke="none" 
	d="
M214.309601,226.953369 
	C214.513840,227.931152 214.747925,228.613739 214.637970,229.235489 
	C214.251877,231.419174 213.749512,233.791840 210.721161,233.047913 
	C208.884338,232.596680 207.792694,230.755325 208.821808,229.190704 
	C209.913422,227.531021 210.715607,223.843842 214.309601,226.953369 
z"/>
<path fill="#000000" opacity="1.000000" stroke="none" 
	d="
M25.193249,491.718323 
	C27.139555,492.181549 28.293419,493.082642 27.471312,494.919556 
	C26.883204,496.233704 25.590216,496.760132 24.159657,496.639526 
	C23.147327,496.554169 22.034576,496.215118 21.873468,495.089325 
	C21.562864,492.918671 23.378740,492.430542 25.193249,491.718323 
z"/>
<path fill="#000000" opacity="1.000000" stroke="none" 
	d="
M206.934296,370.940033 
	C205.091125,370.061005 204.419525,369.007507 206.229584,367.991669 
	C207.739746,367.144135 209.558746,367.130890 210.802689,368.552582 
	C211.739624,369.623383 211.658585,371.008972 210.749069,372.211761 
	C209.124817,373.181183 208.446152,371.332031 206.934296,370.940033 
z"/>
</svg>