<svg width="416" height="355" viewBox="0 0 416 355" fill="none" xmlns="http://www.w3.org/2000/svg">
<path d="M143.803 259.057C138.222 259.447 43.2904 266.304 43.098 277.99C42.955 286.448 92.4745 294.24 122.285 297.358C168.362 302.181 196.116 297.583 230.739 296.066C296.574 293.184 319.984 320.724 367.595 305.964C379.957 302.131 401.201 293.701 400.304 287.031C398.649 274.707 304.356 281.982 303.905 275.84C303.668 272.672 328.601 269.945 328.436 266.37C328.178 260.822 267.781 259.337 236.337 258.622C192.91 257.638 171.2 257.143 143.809 259.051L143.803 259.057Z" fill="#99DA49"/>
<mask id="mask0_394_1542" style="mask-type:alpha" maskUnits="userSpaceOnUse" x="0" y="0" width="368" height="287">
<path d="M242.713 13.4206C202.138 11.6973 181.87 79.6989 129.466 86.4564C111.758 88.7364 112.562 81.1656 91.4615 83.7118C66.9823 86.6694 30.9243 101.08 11.8473 134.379C-6.8183 166.957 -1.93408 204.883 16.1409 227.368C34.7387 250.497 65.7431 254.5 127.752 262.511C160.339 266.718 170.137 264.447 203.194 271.258C247.084 280.325 247.244 287.963 263.077 285.553C314.088 277.783 348.704 192.825 359.987 151.951C370.395 114.261 367.844 89.0898 366.813 81.0446C362.567 47.6634 345.141 0.74293 319.708 0.505738C304.257 0.365359 296.933 17.5545 272.134 19.2197C256.736 20.2605 254.926 13.9386 242.713 13.4206Z" fill="#D8FFA7"/>
</mask>
<g mask="url(#mask0_394_1542)">
<path d="M241.953 13.4206C201.379 11.6973 181.111 79.6989 128.706 86.4564C110.999 88.7364 111.802 81.1656 90.7018 83.7118C66.2226 86.6694 30.1645 101.08 11.0875 134.379C-7.57806 166.957 -2.69384 204.883 15.3812 227.368C33.979 250.497 64.9834 254.5 126.992 262.511C159.579 266.718 169.377 264.447 202.434 271.258C246.324 280.325 246.484 287.963 262.318 285.553C313.328 277.783 347.944 192.825 359.227 151.951C369.635 114.261 367.084 89.0898 366.053 81.0446C361.808 47.6634 344.381 0.74293 318.948 0.505738C303.497 0.365359 296.173 17.5545 271.374 19.2197C255.976 20.2605 254.166 13.9386 241.953 13.4206Z" fill="#D8FFA7"/>
<path d="M191.973 189.16H189.01L189.881 142.135H190.914L191.973 189.16Z" fill="#DBDBDB"/>
<path d="M189.029 189.159H191.979L191.007 146.016C191.04 156.252 190.839 176.201 189.029 189.159Z" fill="#828282"/>
<path d="M190.335 142.899C191.72 142.899 192.842 141.776 192.842 140.392C192.842 139.007 191.72 137.885 190.335 137.885C188.951 137.885 187.828 139.007 187.828 140.392C187.828 141.776 188.951 142.899 190.335 142.899Z" fill="#DBDBDB"/>
<path d="M188.684 142.275C189.206 142.738 189.924 142.986 190.701 142.872C191.747 142.724 192.598 141.907 192.8 140.868C192.907 140.311 192.82 139.788 192.612 139.333C192.216 140.11 191.298 141.531 189.776 141.94C189.367 142.047 189.005 142.161 188.69 142.275H188.684Z" fill="#828282"/>
<path d="M192.1 137.322L189.01 136.792L190.451 131.919L209.757 102.27L210.126 103.831L194.942 134.593L192.1 137.322Z" fill="#DBDBDB"/>
<path d="M192.729 143L194.156 140.218L198.373 143.06L220.836 170.39L219.234 170.269L194.471 146.532L192.729 143Z" fill="#DBDBDB"/>
<path d="M149.896 149.168L183.132 140.668L187.053 141.057L188.662 143.745L184.023 145.823L148.951 150.461" fill="#DBDBDB"/>
<path d="M219.231 170.268L220.833 170.389L218.708 167.727L217.736 166.548C216.744 166.139 214.86 165.361 214.558 165.1C214.129 164.738 195.896 146.658 195.896 146.303C195.896 145.948 193.128 142.214 193.128 142.214L192.719 143.005L194.462 146.538L219.224 170.275L219.231 170.268Z" fill="#828282"/>
<path d="M189.057 136.726L189.01 136.873L192.1 137.396L194.942 134.668L210.126 103.913L209.757 102.351L194.493 134.105L189.057 136.726Z" fill="#828282"/>
<path d="M148.951 150.542L184.023 145.896L188.662 143.818L187.053 141.137L186.705 141.103C185.733 142.142 183.346 144.723 183.346 144.891C183.346 145.085 154.823 149.214 149.34 150.012" fill="#828282"/>
<path d="M78.9933 194.999C119.39 193.371 132.445 195.648 158.467 190.693C171.835 188.147 170.427 187.162 179.413 186.101C206.584 182.901 214.041 192.579 241.283 194.861C267.256 197.039 269.23 188.977 307.372 190.401C327.389 191.149 335.736 193.701 339.503 194.993C349.99 198.584 353.806 202.252 366.185 205.32C379.625 208.653 382.809 206.239 387.131 209.049C399.642 217.193 396.084 252.514 386.559 271.31C354.274 335.006 183.295 347.231 90.47 273.031C64.4592 252.244 10.6443 243.072 18.9205 229.203C20.2018 227.053 44.1674 196.39 78.9933 194.993V194.999Z" fill="#CAFC8C"/>
<path d="M91.003 206.932H86.2637L87.658 131.592H89.3137L91.003 206.932Z" fill="#DBDBDB"/>
<path d="M86.2899 206.931H91.0091L89.4539 137.799C89.5075 154.196 89.1858 186.171 86.2832 206.931H86.2899Z" fill="#828282"/>
<path d="M88.3903 132.811C90.608 132.811 92.4057 131.013 92.4057 128.795C92.4057 126.578 90.608 124.78 88.3903 124.78C86.1727 124.78 84.375 126.578 84.375 128.795C84.375 131.013 86.1727 132.811 88.3903 132.811Z" fill="#DBDBDB"/>
<path d="M85.7402 131.814C86.5782 132.551 87.7244 132.947 88.9713 132.773C90.6471 132.538 92.0146 131.224 92.3297 129.562C92.4973 128.677 92.3632 127.832 92.028 127.108C91.3912 128.355 89.9232 130.634 87.4831 131.284C86.8195 131.459 86.243 131.64 85.7402 131.814Z" fill="#828282"/>
<path d="M91.2041 123.869L86.2637 123.031L88.5696 115.215L119.499 67.7075L120.089 70.2146L95.7691 119.498L91.2041 123.869Z" fill="#DBDBDB"/>
<path d="M92.2441 132.973L94.53 128.509L101.287 133.067L137.284 176.86L134.717 176.666L95.0328 138.637L92.2441 132.973Z" fill="#DBDBDB"/>
<path d="M23.6018 142.853L76.847 129.239L83.1348 129.862L85.7156 134.159L78.2748 137.49L22.0801 144.931" fill="#DBDBDB"/>
<path d="M134.717 176.665L137.284 176.86L133.886 172.596L132.331 170.706C130.742 170.042 127.725 168.802 127.236 168.38C126.552 167.797 97.332 138.831 97.332 138.261C97.332 137.691 92.8944 131.705 92.8944 131.705L92.2441 132.972L95.0395 138.637L134.717 176.672V176.665Z" fill="#828282"/>
<path d="M86.3307 122.924L86.2637 123.152L91.2041 123.997L95.7691 119.626L120.089 70.3357L119.499 67.8286L95.0451 118.714L86.3307 122.924Z" fill="#828282"/>
<path d="M22.0801 145.059L78.2748 137.618L85.7089 134.286L83.1281 129.983L82.5717 129.929C81.0165 131.592 77.1889 135.728 77.1889 136.002C77.1889 136.311 31.485 142.934 22.6968 144.207" fill="#828282"/>
<path d="M37.6869 219.964C63.2202 208.647 63.9947 207.839 107.691 205.331C129.874 204.061 141.098 203.418 157.04 204.759C207.747 209.027 209.98 225.271 239.67 223.984C283.135 222.098 292.153 186.684 330.62 192.139C334.073 192.628 358.693 196.516 374.519 218.249C385.347 233.124 390.906 254.763 384.56 273.047C372.176 308.742 319.616 316.754 293.896 320.675C260.698 325.734 234.847 320.51 183.15 310.062C105.882 294.439 80.2556 276.792 65.518 263.869C58.6441 257.848 2.06381 249.65 16.1745 231.403C21.995 223.876 28.9883 223.82 37.6869 219.964Z" fill="#C2F97D"/>
<path d="M269.791 221.832H262.498L264.65 105.95H267.19L269.791 221.832Z" fill="#DBDBDB"/>
<path d="M262.533 221.831H269.793L267.407 115.508C267.487 140.727 266.991 189.903 262.533 221.831Z" fill="#828282"/>
<path d="M265.765 107.834C269.178 107.834 271.945 105.067 271.945 101.653C271.945 98.2398 269.178 95.4727 265.765 95.4727C262.351 95.4727 259.584 98.2398 259.584 101.653C259.584 105.067 262.351 107.834 265.765 107.834Z" fill="#DBDBDB"/>
<path d="M261.697 106.292C262.991 107.425 264.754 108.035 266.664 107.767C269.245 107.398 271.343 105.387 271.833 102.827C272.094 101.459 271.886 100.172 271.364 99.0527C270.385 100.97 268.133 104.469 264.379 105.475C263.36 105.743 262.475 106.024 261.697 106.292Z" fill="#828282"/>
<path d="M270.106 94.078L262.498 92.7842L266.051 80.765L313.618 7.69775L314.523 11.5522L277.118 87.3544L270.106 94.078Z" fill="#DBDBDB"/>
<path d="M271.682 108.074L275.208 101.21L285.598 108.215L340.955 175.578L337.006 175.276L275.979 116.789L271.682 108.074Z" fill="#DBDBDB"/>
<path d="M166.114 123.272L248.016 102.338L257.683 103.29L261.651 109.906L250.215 115.027L163.781 126.47" fill="#DBDBDB"/>
<path d="M337.006 175.277L340.954 175.572L335.725 169.009L333.332 166.1C330.885 165.081 326.253 163.171 325.496 162.527C324.443 161.629 279.504 117.078 279.504 116.207C279.504 115.335 272.686 106.125 272.686 106.125L271.688 108.075L275.984 116.79L337.012 175.284L337.006 175.277Z" fill="#828282"/>
<path d="M262.605 92.6171L262.498 92.9723L270.106 94.2661L277.118 87.5493L314.523 11.7403L313.618 7.89258L276.005 86.1483L262.605 92.6171Z" fill="#828282"/>
<path d="M163.781 126.664L250.215 115.221L261.651 110.093L257.683 103.477L256.825 103.389C254.438 105.95 248.546 112.312 248.546 112.727C248.546 113.203 178.254 123.392 164.74 125.343" fill="#828282"/>
<path d="M138.667 256.666C133.085 257.056 38.1537 263.914 37.9612 275.599C37.8183 284.057 87.3378 291.849 117.149 294.967C163.226 299.79 190.98 295.193 225.602 293.675C291.438 290.793 314.847 318.333 362.459 303.573C374.821 299.74 396.064 291.31 395.167 284.64C393.512 272.316 299.219 279.592 298.768 273.449C298.531 270.282 323.464 267.554 323.299 263.98C323.041 258.431 262.644 256.946 231.2 256.231C187.774 255.247 166.063 254.752 138.672 256.66L138.667 256.666Z" fill="#99DA49"/>
<path d="M232.047 227.586L226.218 228.378C226.218 228.378 228.005 250.682 226.463 254.025C224.921 257.36 224.619 257.756 221.398 259.515C219.892 260.336 213.682 255.095 213.682 262.066C213.682 262.843 219.215 263.128 224.114 263.458C226.016 263.583 227.983 263.568 229.345 263.48C233.56 263.216 236.73 263.59 235.822 261.083C235.404 259.933 235.203 259.266 234.705 258.687C233.056 256.751 235.239 253.101 235.123 252.229C235.008 251.357 240.26 231.617 239.237 229.602C238.214 227.586 232.061 227.593 232.061 227.593L232.047 227.586Z" fill="#221130"/>
<path d="M238.338 95.05L237.667 106.564L232.464 111.477C232.464 111.477 227.705 104.486 228.084 102.819C228.463 101.152 236.479 95.1528 237.281 95.0793C238.083 95.0059 238.338 95.05 238.338 95.05Z" fill="#F9B233"/>
<path d="M231.487 84.3787C231.487 84.3787 240.644 83.0498 239.2 91.4311C237.755 99.8124 236.682 100.853 236.515 101.064C236.347 101.275 226.584 107.477 225.11 104.509C223.636 101.542 222.914 97.4007 222.914 97.4007C223.461 94.3702 223.914 86.3756 225.818 84.653C227.912 82.7545 231.502 84.3858 231.502 84.3858L231.487 84.3787Z" fill="#F9B233"/>
<path d="M224.448 92.9817C224.448 92.9817 220.631 97.7447 220.879 98.4568C221.127 99.169 223.519 98.6789 223.754 98.8397C223.99 99.0005 224.944 99.3528 224.976 98.9852C225.008 98.6176 224.448 92.9817 224.448 92.9817Z" fill="#F9B233"/>
<path d="M237.218 95.0874C236.844 95.1225 234.977 96.2746 232.981 97.6796C232.935 97.9044 232.912 98.1292 232.935 98.3611C233.088 100.054 233.035 100.974 232.232 103.735C231.757 105.372 234.113 106.622 236.125 107.367L237.631 106.067L238.335 95.0523C238.335 95.0523 238.067 95.0031 237.226 95.0804L237.218 95.0874Z" fill="#F39200"/>
<path d="M237.152 101.644C237.283 101.425 238.125 100.349 239.245 91.6786C239.813 87.2998 238.272 85.4886 236.612 84.7612C233.519 87.5471 226.791 90.6748 227.195 91.5331C227.826 92.8788 230.209 93.3152 232.961 94.3117C235.708 95.3082 234.104 96.9666 234.218 98.7269C234.332 100.48 234.292 101.433 233.695 104.284C235.514 103.106 237.095 101.746 237.158 101.644H237.152Z" fill="#F39200"/>
<path d="M234.225 97.9977C234.225 97.9977 234.203 105.988 230.891 106.878C227.578 107.768 220.243 109.454 220.91 107.462C221.577 105.47 223.866 103.901 223.777 102.712C223.688 101.522 221.221 100.887 221.732 99.9898C222.244 99.0923 223.444 97.4505 224.489 98.1364C225.533 98.8223 227.001 99.1725 226.563 100.471C226.126 101.77 225.57 103.667 226.963 102.529C228.356 101.391 230.691 98.815 231.231 99.1652C231.772 99.5155 231.469 100.099 232.232 98.888C232.995 97.6767 233.803 96.6186 234.01 97.3118L234.225 98.005V97.9977Z" fill="#33204B"/>
<path d="M239.902 92.7789C239.902 92.7789 239.875 83.6933 235.818 82.681C231.76 81.6687 222.774 79.7521 223.591 82.0172C224.408 84.2824 227.213 86.0664 227.104 87.4188C228.384 86.6389 231.543 89.1032 231.007 87.6263C232.713 88.9207 235.573 91.8496 236.235 91.4513C236.898 91.0531 236.526 90.3893 237.461 91.7666C238.396 93.144 239.385 94.3471 239.639 93.5589L239.902 92.7706V92.7789Z" fill="#33204B"/>
<path d="M251.272 226.565L239.385 229.55C239.385 229.55 252.092 250.673 250.767 253.999C249.442 257.325 250.614 256.204 247.473 258.126C246.002 259.026 238.88 254.134 239.385 260.863C239.444 261.615 245.065 261.501 250.057 261.466C251.99 261.451 253.988 261.296 255.357 261.118C259.602 260.565 262.852 260.7 261.747 258.346C261.242 257.268 260.986 256.637 260.444 256.112C258.629 254.368 257.904 250.808 257.721 249.971C257.538 249.135 254.178 230.755 252.992 228.883C251.807 227.011 251.272 226.558 251.272 226.558V226.565Z" fill="#221130"/>
<path d="M246.582 168.587V179.803L243.044 186.049C243.044 186.049 246.655 213.16 246.018 214.937C245.381 216.715 255.093 227.118 253.595 230.339C253.059 231.492 241.321 234.779 241.321 234.779C240.163 232.885 239.592 232.167 239.165 230.121C238.882 230.513 240.489 234.068 238.781 234.677C238.781 234.677 226.558 234.75 224.995 233.894C223.432 233.038 222.73 231.623 223.294 229.918C223.859 228.213 222.867 227.575 222.585 227.292C222.303 227.009 220.812 223.461 222.585 223.033C224.358 222.605 225.769 221.967 224.64 221.474C223.511 220.98 221.594 220.835 222.585 219.914C223.577 218.993 224.706 219.769 223.577 218.993C222.448 218.216 220.95 218.071 221.731 216.649C222.513 215.227 224.069 215.017 223.294 214.234C222.52 213.45 218.2 194.436 217.845 183.575C217.49 172.715 218.909 164.771 219.618 164.909C220.327 165.047 246.59 168.602 246.59 168.602L246.582 168.587Z" fill="#442768"/>
<path d="M239.067 234.678C240.748 234.07 239.166 230.527 239.443 230.136C239.861 232.176 240.429 232.899 241.557 234.779C241.557 234.779 253.056 231.503 253.588 230.353C255.057 227.142 245.536 216.771 246.161 214.999C246.785 213.227 243.245 186.201 243.245 186.201L246.714 179.974V168.793C246.714 168.793 244.288 168.461 240.904 167.99C237.378 173.509 232.881 178.224 232.625 181.088C232.349 184.198 228.738 199.862 230.681 202.784C232.625 205.706 234.384 210.899 234.292 213.162C234.2 215.426 230.958 216.178 233.278 220.807C235.59 225.428 231.703 234.548 231.696 234.548C235.278 234.678 239.059 234.656 239.059 234.656L239.067 234.678ZM239.145 228.343C239.145 228.343 239.145 228.335 239.145 228.328C239.116 228.089 239.123 228.133 239.145 228.343Z" fill="#221130"/>
<path d="M224.041 119.663C224.041 119.663 223.283 115.612 224.947 114.708C226.611 113.804 239.216 105.312 239.216 105.312H242.183C242.183 105.312 249.109 123.894 247.169 139.648C245.228 155.402 249.846 169.37 248.281 173.138C246.716 176.907 220.925 174.65 219.82 172.856C218.716 171.062 218.815 153.182 218.815 153.182C218.815 153.182 219.197 136.762 220.755 128.56C221.945 122.289 225.025 121.746 224.041 119.656" fill="#008D36"/>
<path d="M218.999 122.825C218.999 122.825 226.096 103.952 234.688 103.442C243.279 102.932 244.977 103.427 245.406 105.532C245.834 107.637 245.333 108.557 240.718 109.606C236.103 110.655 235.181 110.942 234.68 112.35C234.18 113.758 229.499 116.072 227.794 116.496C226.089 116.92 226.016 117.272 224.383 119.52C222.751 121.769 217.816 125.627 218.992 122.825H218.999Z" fill="#008D36"/>
<path d="M247.182 139.647C249.104 123.894 242.245 105.312 242.245 105.312H241.544C240.801 106.571 239.595 107.916 237.806 108.668C235.338 109.703 232.659 111.287 232.448 113.081L232.238 114.874C232.238 114.874 238.248 112.227 239.174 114.708C240.099 117.189 226.922 139.423 231.144 141.268C235.906 143.344 234.202 143.43 234.082 145.036C233.963 146.642 226.558 148.161 228.339 147.734C230.12 147.3 234.868 150.75 235.31 153.723C235.751 156.696 239.181 159.198 238.087 167.495C237 175.69 237.357 175.154 238.108 175.183C243.262 175.183 247.666 174.641 248.283 173.136C249.84 169.361 245.268 155.401 247.182 139.647Z" fill="#006D29"/>
<path d="M234.929 112.21C235.411 110.801 236.319 110.521 240.829 109.465C245.34 108.409 245.822 107.496 245.411 105.391C245.177 104.198 244.538 103.522 242.51 103.257C242.389 103.407 242.297 103.558 242.24 103.716C241.687 105.218 240.297 107.374 237.801 108.401C235.305 109.429 232.595 111.002 232.383 112.784C232.191 114.423 232.177 114.552 232.17 114.559C233.517 113.776 234.702 112.885 234.936 112.21H234.929Z" fill="#006D29"/>
<path d="M192.204 161.824C192.204 161.824 187.501 161.804 186.433 163.86C185.125 166.364 181.469 167.952 186.303 168.875C188.425 169.275 188.644 168.773 189.514 168.068C190.383 167.362 193.389 168.4 194.86 166.072C196.332 163.745 192.204 161.824 192.204 161.824Z" fill="#F39200"/>
<path d="M197.562 158.743C197.074 158.941 191.351 161.701 191.165 161.481C190.978 161.26 191.036 163.42 191.523 164.645C192.011 165.869 194.256 167.991 194.256 167.991L201.342 164.888L197.562 158.751V158.743Z" fill="#008D36"/>
<path d="M197.484 166.956C197.484 166.956 192.923 160.817 193.126 160.601C193.328 160.385 197.267 156.151 200.669 153.756C203.84 151.52 208.43 147.848 208.104 146.983C207.778 146.117 206.222 145.143 208.386 143.881C210.551 142.619 209.617 143.39 209.306 141.789C208.994 140.188 208.98 141.479 210.79 140.354C212.599 139.228 219.976 129.505 221.793 125.653C223.61 121.801 225.572 116.767 230.307 117.329C235.041 117.892 241.535 113.867 240.21 120.416C238.885 126.966 240.818 124.651 235.939 132.765C231.06 140.873 227.679 149.788 225.08 150.654C222.481 151.52 220.208 152.111 219.108 153.777C218.007 155.444 222.785 154.484 214.764 158.206C206.743 161.928 208.343 160.579 207.822 161.899C207.3 163.219 207.865 163.227 205.411 164.388C202.957 165.549 197.477 166.963 197.477 166.963L197.484 166.956Z" fill="#008D36"/>
<path d="M148.643 103.264C148.643 103.264 148.053 118.799 147.06 119.635C146.066 120.472 149.403 122.933 152.29 121.073C155.177 119.213 154.261 119.542 154.261 116.159C154.261 112.776 156.054 106.089 154.401 105.374C152.748 104.658 148.643 103.257 148.643 103.257V103.264Z" fill="#FFC55D"/>
<path d="M149.961 109.181C149.961 109.181 150.267 110.985 153.066 112.727C153.582 113.047 154.002 113.299 154.397 113.531C154.574 111.991 154.945 110.143 155.099 108.596C152.832 107.911 149.961 109.187 149.961 109.187V109.181Z" fill="#D79738"/>
<path d="M149.133 252.408C149.133 252.737 145.805 258.99 145.854 261.604C145.903 264.219 145.854 264.491 145.854 264.491C151.941 264.562 155.692 264.641 165.367 264.491C165.367 264.491 167.964 262.349 164.938 262.22C161.926 262.091 154.868 259.047 154.903 258.503C154.903 258.503 155.389 252.795 155.487 251.598C155.586 250.402 149.133 252.415 149.133 252.415V252.408Z" fill="#221130"/>
<path d="M152.169 90.0376C152.169 90.0376 145.804 89.8064 145.854 99.9381C145.909 110.07 150.684 110.735 150.684 110.735C150.684 110.735 155.127 111.326 157.137 109.605C161.609 105.774 161.543 93.0966 157.654 91.0205C155.36 89.3655 152.169 90.0304 152.169 90.0304V90.0376Z" fill="#FFC55E"/>
<path d="M131.344 252.605C131.344 252.983 127.307 260.253 127.364 263.284C127.421 266.314 127.364 266.632 127.364 266.632H151.075C151.075 266.632 153.747 265.301 150.122 264.674C146.497 264.047 136.988 259.618 136.988 259.618C136.988 259.618 138.949 253.051 139.07 251.661C139.191 250.27 131.344 252.605 131.344 252.605Z" fill="#221130"/>
<path d="M161.15 91.3535C166.05 94.506 158.315 96.8001 157.12 102.503C156.672 104.64 152.716 102.733 152.193 104.017C151.036 106.852 150.979 111.217 149.897 114.081C145.911 124.63 127.755 134.363 145.089 95.9236C149.603 87.0107 155.853 87.9462 161.15 91.3535Z" fill="#33204B"/>
<path d="M139.609 174.156C139.609 174.156 135.559 198.366 133.915 206.625C132.272 214.884 112.706 259.529 118.534 258.315C127.348 256.479 137.595 258.315 137.595 258.315C137.595 258.315 147.455 209.508 147.091 206.625C146.728 203.742 141.503 258.315 141.503 258.315L159.672 258.413C159.672 258.413 160.952 182.741 159.672 181.677C158.392 180.613 139.602 174.156 139.602 174.156H139.609Z" fill="#1E5158"/>
<path d="M159.66 183.075C159.624 183.044 159.566 183.012 159.494 182.972C159.472 182.956 159.444 182.948 159.422 182.932C159.371 182.9 159.314 182.876 159.249 182.844C159.212 182.828 159.176 182.812 159.14 182.788C159.068 182.757 158.996 182.725 158.916 182.685C158.873 182.669 158.83 182.645 158.786 182.629C158.692 182.589 158.584 182.541 158.483 182.501C158.447 182.485 158.411 182.469 158.367 182.454C158.057 182.326 157.703 182.182 157.306 182.031C157.255 182.007 157.197 181.991 157.14 181.967C156.988 181.911 156.836 181.848 156.677 181.792C156.612 181.768 156.547 181.744 156.475 181.72C156.316 181.664 156.157 181.6 155.991 181.537C155.919 181.513 155.854 181.489 155.782 181.457C155.594 181.385 155.399 181.313 155.197 181.242C155.153 181.226 155.11 181.21 155.06 181.194C154.547 181.01 154.012 180.811 153.449 180.62L153.297 180.564C153.073 180.484 152.842 180.404 152.611 180.325C152.539 180.301 152.474 180.277 152.402 180.253C152.171 180.173 151.939 180.094 151.708 180.006L151.542 179.95C151.282 179.862 151.029 179.775 150.769 179.679L150.661 179.639C150.054 179.432 149.448 179.217 148.841 179.009L148.718 178.969C148.465 178.882 148.22 178.802 147.967 178.714L147.75 178.642C147.505 178.563 147.266 178.475 147.021 178.395L146.876 178.347C146.631 178.268 146.393 178.18 146.154 178.1L145.981 178.044C145.699 177.949 145.418 177.853 145.143 177.765H145.121C144.854 177.67 144.594 177.582 144.334 177.494L144.161 177.439C143.973 177.375 143.785 177.311 143.597 177.247L143.323 177.159C143.179 177.112 143.041 177.064 142.904 177.024L142.586 176.92L142.283 176.817C142.066 176.745 141.864 176.681 141.662 176.609C141.554 176.577 141.445 176.538 141.344 176.506L140.968 176.378L140.867 176.346C140.723 176.298 140.586 176.251 140.456 176.211H140.42L138.838 176.314L138.816 176.458L138.787 176.649C138.758 176.849 138.722 177.064 138.686 177.319V177.335L138.636 177.638L138.607 177.821C138.542 178.244 138.47 178.714 138.39 179.232L138.361 179.424C138.339 179.583 138.311 179.751 138.289 179.918L138.274 179.99C138.217 180.365 138.159 180.771 138.094 181.186L138.072 181.313C138.029 181.577 137.993 181.84 137.95 182.111C137.913 182.334 137.884 182.557 137.848 182.78C137.827 182.916 137.805 183.052 137.783 183.187C137.762 183.347 137.733 183.506 137.711 183.673C137.61 184.311 137.509 184.981 137.401 185.667C137.372 185.842 137.343 186.025 137.314 186.209C137.263 186.528 137.213 186.847 137.162 187.174C137.133 187.349 137.112 187.516 137.083 187.692C137.047 187.915 137.011 188.13 136.982 188.354L136.924 188.736C136.866 189.127 136.801 189.518 136.736 189.908C136.714 190.06 136.693 190.203 136.664 190.355C136.628 190.594 136.592 190.833 136.548 191.072C136.527 191.192 136.512 191.312 136.491 191.431C136.418 191.878 136.346 192.332 136.274 192.779L136.223 193.097C136.18 193.353 136.144 193.6 136.101 193.855C136.079 193.99 136.057 194.134 136.036 194.269C135.971 194.66 135.906 195.051 135.848 195.449C135.819 195.609 135.797 195.768 135.768 195.92C135.732 196.159 135.689 196.39 135.653 196.629L135.595 196.988C135.53 197.387 135.465 197.786 135.4 198.184C135.371 198.344 135.349 198.503 135.321 198.663C135.284 198.886 135.248 199.101 135.212 199.324C135.169 199.58 135.126 199.835 135.082 200.09L135.061 200.233C137.559 201.66 140.037 203.367 141.091 204.985C141.98 206.349 142.861 207.576 143.727 208.685C143.359 211.706 142.153 221.433 141.669 222.661C141.091 224.12 138.173 245.225 136.101 248.557C134.028 251.89 135.537 253.238 129.882 254.904C126.56 255.885 125.007 257.36 124.277 258.412C124.335 258.412 124.407 258.412 124.472 258.412C124.53 258.412 124.581 258.412 124.646 258.412C124.718 258.412 124.797 258.412 124.877 258.412H125.043C125.13 258.412 125.209 258.412 125.296 258.412H125.476C125.563 258.412 125.657 258.412 125.751 258.412H125.939C126.119 258.412 126.3 258.412 126.487 258.412C126.56 258.412 126.625 258.412 126.697 258.412C126.791 258.412 126.892 258.412 126.986 258.412C127.072 258.412 127.159 258.412 127.246 258.412H127.513C127.621 258.412 127.73 258.412 127.838 258.412H128.069C128.177 258.412 128.286 258.412 128.394 258.412C128.611 258.412 128.828 258.412 129.044 258.412H129.203C129.333 258.412 129.463 258.412 129.586 258.412H129.759C129.875 258.412 129.998 258.412 130.12 258.412H130.662C130.814 258.412 130.965 258.412 131.117 258.404H131.24C131.63 258.404 132.02 258.396 132.395 258.388H133.147C133.255 258.38 133.363 258.38 133.472 258.38C133.797 258.38 134.107 258.38 134.403 258.372H135.234L135.508 258.356H135.985C136.158 258.348 136.31 258.348 136.433 258.34H136.859C136.859 258.34 136.881 258.229 136.924 258.029L136.96 257.846L137.018 257.575C137.133 257.033 137.299 256.227 137.523 255.191C137.545 255.071 137.574 254.952 137.596 254.832L137.632 254.665C137.783 253.931 137.964 253.102 138.152 252.193L138.202 251.938L138.303 251.436L138.383 251.061L138.455 250.71L138.52 250.399C138.831 248.924 139.17 247.298 139.524 245.56L139.553 245.432C139.611 245.169 139.661 244.906 139.719 244.635L139.762 244.427C139.813 244.196 139.856 243.957 139.907 243.726L139.957 243.479C140.08 242.881 140.21 242.275 140.333 241.653V241.629C140.672 240.002 141.019 238.312 141.366 236.606V236.566C141.438 236.263 141.496 235.952 141.561 235.649L141.59 235.498C141.655 235.163 141.727 234.836 141.792 234.501C142.492 231.041 143.193 227.549 143.836 224.264L143.85 224.184C143.908 223.881 143.966 223.578 144.031 223.275L144.045 223.195C144.103 222.892 144.161 222.589 144.219 222.287V222.239C144.255 222.095 144.284 221.96 144.305 221.816C144.847 219.01 145.331 216.418 145.721 214.242C145.75 214.082 145.779 213.923 145.808 213.771V213.739C145.851 213.508 145.894 213.285 145.93 213.062V213.038C146.169 211.682 146.356 210.518 146.479 209.609C146.465 209.928 146.458 210.287 146.443 210.67V210.686C146.443 210.869 146.429 211.061 146.429 211.268C146.429 211.34 146.429 211.419 146.429 211.499C146.429 211.643 146.421 211.778 146.414 211.922L146.443 211.698C146.537 211.794 146.508 212.073 146.4 212.448C145.721 226.332 141.792 257.846 141.792 257.846L151.564 258.388C152.048 258.269 152.329 258.253 152.293 258.388H159.653C159.653 258.388 160.975 184.096 159.653 183.052L159.66 183.075Z" fill="#18394B"/>
<path d="M147.361 112.505C147.361 112.505 140.666 121.449 139.173 128.871C138.939 130.025 133.097 134.425 139.088 134.425C139.692 134.425 138.278 134.238 137.965 139.907C136.991 157.572 134.767 167.029 134.767 167.029C134.767 167.029 123.047 191.763 125.691 192.044C128.335 192.325 162.293 192.852 162.293 192.571C162.293 192.289 159.521 164.576 159.244 156.274C158.967 147.972 163.416 134.988 162.023 129.766C160.63 124.543 159.414 119.884 155.086 117.345C150.758 114.806 147.361 112.505 147.361 112.505Z" fill="#87D7B0"/>
<path d="M160.373 101.125C160.381 101.233 160.697 102.738 161.236 103.693C161.446 104.065 161.38 104.584 160.953 104.597C160.185 104.619 159.312 104.374 159.312 104.374L160.373 101.125Z" fill="#FFC55D"/>
<path d="M153.831 121.207C154.392 121.207 151.487 117.809 150.986 121.207C152.153 120.823 155.179 122.368 154.529 122.749C157.237 121.964 157.656 122.961 156.655 122.749C157.364 120.344 155.857 120.486 154.529 120.345C153.543 120.235 153.019 120.576 151.836 120.409C151.54 120.37 151.259 120.351 150.986 120.345C151.146 120.859 151.927 121.207 153.823 121.207H153.831Z" fill="#221130"/>
<path d="M146.817 111.476L144.977 112.947C144.977 112.947 143.774 116.056 148.165 119.341C152.555 122.626 152.063 121.937 152.063 121.937C152.063 121.937 156.388 120.08 156.743 121.592C157.098 123.104 151.403 122.12 154.287 123.358C157.17 124.596 158.822 126.706 159.532 129.548C160.242 132.39 161.931 142.302 161.931 142.302C161.931 142.302 163.749 132.805 163.227 130.878C162.706 128.95 160.576 121.107 159.018 119.869C157.46 118.63 146.824 111.476 146.824 111.476H146.817Z" fill="#C6C6C6"/>
<path d="M162.287 192.571C162.287 192.292 159.51 164.812 159.233 156.58C159.169 154.742 159.347 152.682 159.639 150.522C158.079 151.094 155.153 152.589 154.526 155.908C153.665 160.478 154.277 171.214 152.996 173.682C151.714 176.149 155.986 185.197 149.023 189.117C146.452 190.562 144.373 191.663 142.771 192.486C152.334 192.636 162.294 192.722 162.294 192.571H162.287Z" fill="#76C29E"/>
<path d="M139.305 134.126C139.838 134.126 138.801 133.966 138.326 138.186C138.477 138.33 140.003 135.948 140.277 135.844C142.847 134.869 154.971 138.362 154.02 138.098C152.005 137.539 141.206 133.99 139.946 133.814C139.01 133.678 138.535 133.343 137.412 133.135C137.131 133.087 136.865 133.063 136.605 133.055C136.757 133.694 137.498 134.126 139.298 134.126H139.305Z" fill="#76C29E"/>
<path d="M158.969 119.697H158.962C158.793 120.571 156.794 119.998 157.211 121.237C158.163 124.037 161.48 127.54 161.59 129.646C161.7 131.745 161.195 133.013 161.59 134.409C161.986 135.813 161.642 139.538 161.986 139.875C162.066 139.953 162.183 140.09 162.323 140.247C162.828 137.26 163.589 132.26 163.223 130.907C162.689 128.944 160.543 120.957 158.969 119.697Z" fill="#494949"/>
<path d="M182.556 158.758C182.335 158.386 178.729 165.326 178.729 165.326C178.9 165.41 179.165 165.516 179.501 165.599C180.589 165.872 181.018 165.501 181.777 165.743C182.478 165.971 182.285 166.342 183.186 166.828C183.973 167.253 184.753 167.533 185.454 167.344C187.765 166.722 188.438 168.519 189.189 168.929C189.933 169.339 193.239 168.284 193.11 166.919C192.981 165.554 191.894 162.565 189.89 161.974C189.304 161.799 189.06 161.306 188.152 160.95C187.372 160.646 186.928 160.95 186.084 160.654C184.546 160.115 182.714 159.008 182.564 158.758H182.556Z" fill="#FFC55D"/>
<path d="M148.67 122.779C148.67 122.779 147.599 123.098 146.755 124.184C144.926 126.531 146.266 130.472 147.387 133.283C150.571 141.295 152.139 147.865 159.153 153.871C164.912 158.797 173.97 165.693 179.424 167.99C179.424 167.99 181.069 166.57 182.445 164.751C184.19 162.441 184.906 160.905 184.899 160.593C184.871 159.738 175.785 152.654 163.529 145.475C163.636 144.765 161.955 134.703 157.252 126.43C155.245 122.887 150.734 123.069 148.67 122.793V122.779Z" fill="#87D7B0"/>
<path d="M156.127 103.841L155.988 102.286C155.988 102.286 153.287 99.653 153.074 102.597C152.861 105.54 153.868 106.653 154.875 106.266C155.882 105.879 156.046 105.561 156.046 105.561L156.127 103.841Z" fill="#FFC55D"/>
<path d="M231.371 94.2119C231.371 94.2119 234.026 93.4142 234.166 94.9789C234.306 96.5436 234.262 98.837 232.882 98.8676C231.502 98.8983 230.611 99.5426 229.868 98.7603C229.126 97.9779 229.082 97.2722 229.082 97.2722L231.371 94.2119Z" fill="#F9B233"/>
<path d="M197.658 166.963C197.658 166.963 203.123 165.541 205.56 164.373C207.997 163.205 207.442 163.198 207.961 161.87C208.48 160.543 206.879 161.899 214.875 158.157C222.871 154.414 218.112 155.378 219.201 153.703C220.297 152.027 222.561 151.425 225.149 150.562C227.737 149.699 231.104 140.733 235.964 132.573C240.823 124.419 238.898 126.748 240.217 120.154C240.635 118.08 240.275 117.057 239.446 116.614C239.172 116.868 238.927 117.187 238.718 117.608C236.994 121.112 235.776 127.64 232.907 129.816C230.037 131.992 226.742 134.451 226.086 138.143C225.43 141.836 221.854 147.037 219.691 147.225C217.528 147.414 212.07 151.012 212.171 153.942C212.265 156.873 208.502 159.68 207.283 160.267C206.058 160.855 200.16 165.272 198.357 164.91C197.528 164.743 196.786 164.823 196.209 164.953C197.009 166.07 197.665 166.963 197.665 166.963H197.658Z" fill="#006D29"/>
<path d="M184.157 167.328C184.157 167.328 183.588 166.333 184.067 166.017C184.546 165.701 186.012 166.371 186.831 166.744C187.651 167.118 188.804 166.649 188.846 167.491C188.887 168.333 189.116 168.735 188.957 168.993C188.797 169.252 184.157 167.338 184.157 167.338V167.328Z" fill="#F39200"/>
<path d="M190.155 162.611C190.305 162.68 190.644 162.687 190.964 162.35C191.283 162.014 190.794 161.677 190.259 161.231C189.724 160.784 189.398 160.681 188.876 160.929C188.354 161.176 187.774 161.121 187.774 161.121C187.774 161.121 187.33 161.176 187.063 161.684C186.665 162.453 187.441 162.982 188.25 162.824C188.876 162.543 189.509 162.44 190.155 162.611Z" fill="#F39200"/>
<path d="M181.816 165.588C181.49 165.062 180.983 164.612 180.202 164.386C177.438 163.575 176.027 165.212 172.698 163.035C169.37 160.857 169.37 161.638 166.613 158.859C163.849 156.081 161.938 152.852 159.746 152.191C157.662 151.56 155.339 149.683 155.107 149.495C156.164 150.809 157.372 152.094 158.827 153.355C164.702 158.461 173.943 165.61 179.507 167.991C179.507 167.991 180.636 166.992 181.823 165.595L181.816 165.588Z" fill="#76C29E"/>
</g>
</svg>
