<svg width="240" height="157" viewBox="0 0 240 157" fill="none" xmlns="http://www.w3.org/2000/svg">
<path fill-rule="evenodd" clip-rule="evenodd" d="M112.322 135.539C136.895 134.72 147.51 132.156 175.176 132.19C196.49 132.216 202.46 134.325 207.579 135.657C212.079 136.828 211.122 138.139 202.106 139.196C194.043 140.142 172.356 140.197 161.745 141.032C153.617 141.672 160.295 142.892 149.478 143.338C138.795 143.777 124.997 143.04 112.322 143.066C99.0731 143.093 86.1816 143.794 73.7934 143.491C61.4478 143.188 59.3163 142.101 49.5527 141.528C34.2804 140.633 1.65174 140.524 0.568016 139.196C-0.486149 137.904 29.5856 137.497 45.627 136.718C56.0533 136.211 65.8015 135.637 78.3985 135.415C89.5092 135.218 102.09 135.88 112.322 135.539Z" fill="#99DA49"/>
<path fill-rule="evenodd" clip-rule="evenodd" d="M140.099 17.7874C171.064 9.9835 210.629 -13.3719 231.957 10.3917C253.539 34.4381 225.961 71.5353 215.894 102.237C209.962 120.331 202.125 137.704 186.598 148.729C173.298 158.172 156.41 156.006 140.099 156.053C123.709 156.1 108.629 154.878 93.3311 148.998C59.5941 136.029 2.97069 138.261 0.0973525 102.237C-2.69266 67.2567 55.1743 65.498 85.2253 47.3711C103.723 36.2134 119.151 23.0667 140.099 17.7874Z" fill="#D8FFA7"/>
<mask id="mask0_373_875" style="mask-type:alpha" maskUnits="userSpaceOnUse" x="0" y="0" width="240" height="157">
<path fill-rule="evenodd" clip-rule="evenodd" d="M140.099 17.7874C171.064 9.9835 210.629 -13.3719 231.957 10.3917C253.539 34.4381 225.961 71.5353 215.894 102.237C209.962 120.331 202.125 137.704 186.598 148.729C173.298 158.172 156.41 156.006 140.099 156.053C123.709 156.1 108.629 154.878 93.3311 148.998C59.5941 136.029 2.97069 138.261 0.0973525 102.237C-2.69266 67.2567 55.1743 65.498 85.2253 47.3711C103.723 36.2134 119.151 23.0667 140.099 17.7874Z" fill="#D8FFA7"/>
</mask>
<g mask="url(#mask0_373_875)">
<path fill-rule="evenodd" clip-rule="evenodd" d="M234.533 78.0845C244.504 91.2444 226.96 110.966 232.369 126.565C239.614 147.458 273.2 157.872 269.775 179.719C266.676 199.486 238.452 204.104 219.302 209.905C203.821 214.595 187.072 214.628 171.762 209.41C159.018 205.067 152.808 191.32 141.843 183.507C132.024 176.51 120.774 173.125 110.977 166.097C92.6723 152.967 58.9976 146.968 59.5061 124.446C59.991 102.971 95.1619 102.836 112.686 90.4128C124.598 81.9679 131.879 67.3439 145.884 63.2106C159.757 59.1163 173.845 65.7594 188.111 68.1529C204.039 70.8255 224.779 65.211 234.533 78.0845Z" fill="#CAFC8C"/>
<path d="M209.783 117.063C204.635 109.735 193.163 115.027 170.647 111.383C152.573 108.458 152.247 103.802 135.753 102.713C133.299 102.551 121.747 101.892 107.107 104.782C91.798 107.804 86.8148 112.004 75.7981 110.618C68.6675 109.72 66.3612 107.407 58.6099 104.323C56.4918 103.478 22.8801 90.452 8.72765 102.018C-1.22997 110.159 -2.81262 131.514 4.73575 145.473C32.3376 196.512 195.201 173.144 209.783 133.651C210.613 131.402 213.796 122.782 209.783 117.066V117.063Z" fill="#B8F36F"/>
<path fill-rule="evenodd" clip-rule="evenodd" d="M112.322 135.539C136.895 134.72 147.51 132.156 175.176 132.19C196.49 132.216 202.46 134.325 207.579 135.657C212.079 136.828 211.122 138.139 202.106 139.196C194.043 140.142 172.356 140.197 161.745 141.032C153.617 141.672 160.295 142.892 149.478 143.338C138.795 143.777 124.997 143.04 112.322 143.066C99.0731 143.093 86.1816 143.794 73.7934 143.491C61.4478 143.188 59.3163 142.101 49.5527 141.528C34.2804 140.633 1.65174 140.524 0.568016 139.196C-0.486149 137.904 29.5856 137.497 45.627 136.718C56.0533 136.211 65.8015 135.637 78.3985 135.415C89.5092 135.218 102.09 135.88 112.322 135.539Z" fill="#99DA49"/>
</g>
<path d="M181.101 26.0393C141.223 30.2746 112.435 27.0663 66.9834 26.0393C62.2429 26.0393 58.3999 29.8823 58.3999 34.6228C56.1133 55.8094 57.3214 69.3018 58.3999 92.6683C58.3999 97.4089 62.2429 101.252 66.9834 101.252H181.101C185.842 101.252 189.685 97.4089 189.685 92.6683C191.111 81.8836 190.8 66.6051 189.685 34.6228C189.685 29.8823 185.842 26.0393 181.101 26.0393Z" fill="#F7F7F7"/>
<path d="M73.1025 97.2549C108.515 93.492 134.08 96.3424 174.442 97.2549C178.651 97.2549 182.064 93.8405 182.064 89.6287C184.095 70.8053 183.022 58.8178 182.064 38.0575C182.064 33.8457 178.651 30.4314 174.442 30.4314H73.1025C68.8928 30.4314 65.4801 33.8457 65.4801 38.0575C64.2137 47.6393 64.4893 61.2137 65.4801 89.6287C65.4801 93.8405 68.8928 97.2549 73.1025 97.2549Z" fill="white"/>
<rect x="97.8848" y="82.5098" width="52.1275" height="7.14007" rx="0.539567" fill="#99DA49"/>
<rect x="105.439" y="84.668" width="37.0196" height="2.82353" rx="0.941177" fill="white"/>
<rect x="97.8828" y="48" width="52.0784" height="23.8431" fill="#D9D9D9"/>
<path d="M117.167 40.4143C117.082 40.2356 116.959 40.098 116.798 40.0014C116.637 39.9018 116.45 39.8521 116.236 39.8521C116.022 39.8521 115.829 39.9018 115.656 40.0014C115.486 40.098 115.352 40.2386 115.252 40.423C115.155 40.6046 115.107 40.8154 115.107 41.0555C115.107 41.2956 115.155 41.5064 115.252 41.688C115.352 41.8695 115.486 42.0101 115.656 42.1096C115.829 42.2063 116.022 42.2546 116.236 42.2546C116.535 42.2546 116.781 42.1653 116.974 41.9867C117.167 41.808 117.28 41.5665 117.312 41.2619H116.091V40.9369H117.738V41.2444C117.715 41.4962 117.636 41.7275 117.501 41.9383C117.366 42.1462 117.189 42.3117 116.969 42.4347C116.75 42.5547 116.505 42.6147 116.236 42.6147C115.952 42.6147 115.693 42.5488 115.458 42.4171C115.224 42.2824 115.038 42.0965 114.901 41.8593C114.766 41.6221 114.699 41.3542 114.699 41.0555C114.699 40.7568 114.766 40.4889 114.901 40.2518C115.038 40.0116 115.224 39.8257 115.458 39.6939C115.693 39.5593 115.952 39.4919 116.236 39.4919C116.561 39.4919 116.848 39.5724 117.097 39.7335C117.349 39.8945 117.532 40.1215 117.646 40.4143H117.167ZM119.316 42.6279C119.091 42.6279 118.886 42.5767 118.701 42.4742C118.52 42.3717 118.376 42.2268 118.271 42.0394C118.168 41.849 118.117 41.6294 118.117 41.3805C118.117 41.1346 118.17 40.9179 118.275 40.7305C118.384 40.5402 118.53 40.3952 118.714 40.2957C118.899 40.1932 119.105 40.1419 119.334 40.1419C119.562 40.1419 119.769 40.1932 119.953 40.2957C120.138 40.3952 120.282 40.5387 120.388 40.7261C120.496 40.9135 120.55 41.1316 120.55 41.3805C120.55 41.6294 120.495 41.849 120.383 42.0394C120.275 42.2268 120.127 42.3717 119.94 42.4742C119.752 42.5767 119.545 42.6279 119.316 42.6279ZM119.316 42.2765C119.46 42.2765 119.594 42.2429 119.72 42.1755C119.846 42.1082 119.947 42.0072 120.023 41.8725C120.102 41.7378 120.142 41.5738 120.142 41.3805C120.142 41.1873 120.104 41.0233 120.028 40.8886C119.952 40.7539 119.852 40.6544 119.729 40.5899C119.606 40.5226 119.473 40.4889 119.329 40.4889C119.183 40.4889 119.048 40.5226 118.925 40.5899C118.805 40.6544 118.709 40.7539 118.635 40.8886C118.562 41.0233 118.526 41.1873 118.526 41.3805C118.526 41.5767 118.561 41.7422 118.631 41.8768C118.704 42.0115 118.801 42.1126 118.921 42.1799C119.041 42.2443 119.173 42.2765 119.316 42.2765ZM122.126 42.6279C121.9 42.6279 121.695 42.5767 121.511 42.4742C121.329 42.3717 121.186 42.2268 121.08 42.0394C120.978 41.849 120.927 41.6294 120.927 41.3805C120.927 41.1346 120.979 40.9179 121.085 40.7305C121.193 40.5402 121.339 40.3952 121.524 40.2957C121.708 40.1932 121.915 40.1419 122.143 40.1419C122.372 40.1419 122.578 40.1932 122.762 40.2957C122.947 40.3952 123.092 40.5387 123.197 40.7261C123.306 40.9135 123.36 41.1316 123.36 41.3805C123.36 41.6294 123.304 41.849 123.193 42.0394C123.085 42.2268 122.937 42.3717 122.749 42.4742C122.562 42.5767 122.354 42.6279 122.126 42.6279ZM122.126 42.2765C122.269 42.2765 122.404 42.2429 122.53 42.1755C122.656 42.1082 122.757 42.0072 122.833 41.8725C122.912 41.7378 122.951 41.5738 122.951 41.3805C122.951 41.1873 122.913 41.0233 122.837 40.8886C122.761 40.7539 122.661 40.6544 122.538 40.5899C122.416 40.5226 122.282 40.4889 122.139 40.4889C121.992 40.4889 121.858 40.5226 121.735 40.5899C121.615 40.6544 121.518 40.7539 121.445 40.8886C121.372 41.0233 121.335 41.1873 121.335 41.3805C121.335 41.5767 121.37 41.7422 121.44 41.8768C121.514 42.0115 121.61 42.1126 121.73 42.1799C121.85 42.2443 121.982 42.2765 122.126 42.2765ZM123.736 41.3761C123.736 41.1302 123.786 40.915 123.885 40.7305C123.985 40.5431 124.121 40.3982 124.294 40.2957C124.469 40.1932 124.666 40.1419 124.882 40.1419C125.07 40.1419 125.244 40.1859 125.405 40.2737C125.566 40.3586 125.689 40.4714 125.774 40.6119V39.3382H126.178V42.5884H125.774V42.136C125.695 42.2795 125.578 42.3981 125.423 42.4918C125.267 42.5825 125.086 42.6279 124.878 42.6279C124.664 42.6279 124.469 42.5752 124.294 42.4698C124.121 42.3644 123.985 42.2165 123.885 42.0262C123.786 41.8359 123.736 41.6192 123.736 41.3761ZM125.774 41.3805C125.774 41.199 125.737 41.0409 125.664 40.9062C125.591 40.7715 125.491 40.669 125.365 40.5987C125.243 40.5255 125.106 40.4889 124.957 40.4889C124.808 40.4889 124.672 40.5241 124.549 40.5943C124.426 40.6646 124.327 40.7671 124.254 40.9018C124.181 41.0365 124.144 41.1946 124.144 41.3761C124.144 41.5606 124.181 41.7217 124.254 41.8593C124.327 41.994 124.426 42.0979 124.549 42.1711C124.672 42.2414 124.808 42.2765 124.957 42.2765C125.106 42.2765 125.243 42.2414 125.365 42.1711C125.491 42.0979 125.591 41.994 125.664 41.8593C125.737 41.7217 125.774 41.5621 125.774 41.3805ZM128.465 42.5884L127.736 41.3366H127.253V42.5884H126.853V39.527H127.842C128.073 39.527 128.268 39.5666 128.426 39.6456C128.587 39.7247 128.707 39.8316 128.786 39.9663C128.865 40.101 128.905 40.2547 128.905 40.4274C128.905 40.6383 128.843 40.8242 128.72 40.9852C128.6 41.1463 128.419 41.2532 128.176 41.3059L128.944 42.5884H128.465ZM127.253 41.016H127.842C128.058 41.016 128.221 40.9633 128.329 40.8579C128.438 40.7495 128.492 40.6061 128.492 40.4274C128.492 40.2459 128.438 40.1053 128.329 40.0058C128.224 39.9062 128.061 39.8565 127.842 39.8565H127.253V41.016ZM131.722 41.2927C131.722 41.3688 131.717 41.4493 131.709 41.5343H129.785C129.799 41.7714 129.88 41.9574 130.026 42.0921C130.176 42.2238 130.356 42.2897 130.567 42.2897C130.739 42.2897 130.883 42.2502 130.997 42.1711C131.114 42.0891 131.196 41.9808 131.243 41.8461H131.673C131.609 42.0774 131.48 42.2663 131.287 42.4127C131.094 42.5562 130.854 42.6279 130.567 42.6279C130.338 42.6279 130.133 42.5767 129.952 42.4742C129.773 42.3717 129.633 42.2268 129.53 42.0394C129.428 41.849 129.376 41.6294 129.376 41.3805C129.376 41.1316 129.426 40.9135 129.526 40.7261C129.625 40.5387 129.764 40.3952 129.943 40.2957C130.124 40.1932 130.332 40.1419 130.567 40.1419C130.795 40.1419 130.997 40.1917 131.173 40.2913C131.348 40.3908 131.483 40.5285 131.577 40.7041C131.673 40.8769 131.722 41.0731 131.722 41.2927ZM131.309 41.2092C131.309 41.057 131.275 40.9267 131.208 40.8183C131.141 40.7071 131.048 40.6236 130.931 40.568C130.817 40.5094 130.69 40.4801 130.549 40.4801C130.347 40.4801 130.174 40.5446 130.031 40.6734C129.89 40.8022 129.81 40.9808 129.789 41.2092H131.309ZM133.422 40.1376C133.715 40.1376 133.952 40.2269 134.134 40.4055C134.315 40.5812 134.406 40.8359 134.406 41.1697V42.5884H134.011V41.2268C134.011 40.9867 133.951 40.8037 133.83 40.6778C133.71 40.549 133.546 40.4845 133.339 40.4845C133.128 40.4845 132.959 40.5504 132.833 40.6822C132.71 40.8139 132.649 41.0057 132.649 41.2576V42.5884H132.249V40.1815H132.649V40.5241C132.728 40.4011 132.835 40.3059 132.97 40.2386C133.107 40.1712 133.258 40.1376 133.422 40.1376ZM137.255 41.2927C137.255 41.3688 137.25 41.4493 137.242 41.5343H135.318C135.333 41.7714 135.413 41.9574 135.559 42.0921C135.709 42.2238 135.889 42.2897 136.1 42.2897C136.272 42.2897 136.416 42.2502 136.53 42.1711C136.647 42.0891 136.729 41.9808 136.776 41.8461H137.207C137.142 42.0774 137.013 42.2663 136.82 42.4127C136.627 42.5562 136.387 42.6279 136.1 42.6279C135.871 42.6279 135.666 42.5767 135.485 42.4742C135.306 42.3717 135.166 42.2268 135.063 42.0394C134.961 41.849 134.909 41.6294 134.909 41.3805C134.909 41.1316 134.959 40.9135 135.059 40.7261C135.158 40.5387 135.297 40.3952 135.476 40.2957C135.658 40.1932 135.865 40.1419 136.1 40.1419C136.328 40.1419 136.53 40.1917 136.706 40.2913C136.881 40.3908 137.016 40.5285 137.11 40.7041C137.207 40.8769 137.255 41.0731 137.255 41.2927ZM136.842 41.2092C136.842 41.057 136.808 40.9267 136.741 40.8183C136.674 40.7071 136.581 40.6236 136.464 40.568C136.35 40.5094 136.223 40.4801 136.082 40.4801C135.88 40.4801 135.707 40.5446 135.564 40.6734C135.423 40.8022 135.343 40.9808 135.322 41.2092H136.842ZM138.678 42.2194L139.425 40.1815H139.851L138.907 42.5884H138.441L137.497 40.1815H137.927L138.678 42.2194ZM142.44 41.2927C142.44 41.3688 142.436 41.4493 142.427 41.5343H140.504C140.518 41.7714 140.599 41.9574 140.745 42.0921C140.894 42.2238 141.075 42.2897 141.285 42.2897C141.458 42.2897 141.602 42.2502 141.716 42.1711C141.833 42.0891 141.915 41.9808 141.962 41.8461H142.392C142.328 42.0774 142.199 42.2663 142.006 42.4127C141.812 42.5562 141.572 42.6279 141.285 42.6279C141.057 42.6279 140.852 42.5767 140.67 42.4742C140.492 42.3717 140.351 42.2268 140.249 42.0394C140.146 41.849 140.095 41.6294 140.095 41.3805C140.095 41.1316 140.145 40.9135 140.244 40.7261C140.344 40.5387 140.483 40.3952 140.662 40.2957C140.843 40.1932 141.051 40.1419 141.285 40.1419C141.514 40.1419 141.716 40.1917 141.891 40.2913C142.067 40.3908 142.202 40.5285 142.296 40.7041C142.392 40.8769 142.44 41.0731 142.44 41.2927ZM142.028 41.2092C142.028 41.057 141.994 40.9267 141.927 40.8183C141.859 40.7071 141.767 40.6236 141.65 40.568C141.536 40.5094 141.408 40.4801 141.268 40.4801C141.066 40.4801 140.893 40.5446 140.75 40.6734C140.609 40.8022 140.528 40.9808 140.508 41.2092H142.028ZM143.368 40.6295C143.45 40.486 143.57 40.3689 143.728 40.2781C143.886 40.1873 144.066 40.1419 144.268 40.1419C144.485 40.1419 144.68 40.1932 144.852 40.2957C145.025 40.3982 145.161 40.5431 145.261 40.7305C145.36 40.915 145.41 41.1302 145.41 41.3761C145.41 41.6192 145.36 41.8359 145.261 42.0262C145.161 42.2165 145.024 42.3644 144.848 42.4698C144.675 42.5752 144.482 42.6279 144.268 42.6279C144.06 42.6279 143.877 42.5825 143.719 42.4918C143.564 42.401 143.447 42.2853 143.368 42.1448V42.5884H142.968V39.3382H143.368V40.6295ZM145.002 41.3761C145.002 41.1946 144.965 41.0365 144.892 40.9018C144.819 40.7671 144.719 40.6646 144.593 40.5943C144.47 40.5241 144.334 40.4889 144.185 40.4889C144.038 40.4889 143.902 40.5255 143.776 40.5987C143.653 40.669 143.554 40.773 143.478 40.9106C143.404 41.0453 143.368 41.2019 143.368 41.3805C143.368 41.5621 143.404 41.7217 143.478 41.8593C143.554 41.994 143.653 42.0979 143.776 42.1711C143.902 42.2414 144.038 42.2765 144.185 42.2765C144.334 42.2765 144.47 42.2414 144.593 42.1711C144.719 42.0979 144.819 41.994 144.892 41.8593C144.965 41.7217 145.002 41.5606 145.002 41.3761ZM146.336 39.3382V42.5884H145.936V39.3382H146.336ZM149.213 41.2927C149.213 41.3688 149.209 41.4493 149.2 41.5343H147.276C147.291 41.7714 147.371 41.9574 147.518 42.0921C147.667 42.2238 147.847 42.2897 148.058 42.2897C148.231 42.2897 148.374 42.2502 148.488 42.1711C148.606 42.0891 148.688 41.9808 148.734 41.8461H149.165C149.1 42.0774 148.972 42.2663 148.778 42.4127C148.585 42.5562 148.345 42.6279 148.058 42.6279C147.83 42.6279 147.625 42.5767 147.443 42.4742C147.265 42.3717 147.124 42.2268 147.021 42.0394C146.919 41.849 146.868 41.6294 146.868 41.3805C146.868 41.1316 146.918 40.9135 147.017 40.7261C147.117 40.5387 147.256 40.3952 147.434 40.2957C147.616 40.1932 147.824 40.1419 148.058 40.1419C148.286 40.1419 148.488 40.1917 148.664 40.2913C148.84 40.3908 148.975 40.5285 149.068 40.7041C149.165 40.8769 149.213 41.0731 149.213 41.2927ZM148.8 41.2092C148.8 41.057 148.767 40.9267 148.699 40.8183C148.632 40.7071 148.54 40.6236 148.423 40.568C148.308 40.5094 148.181 40.4801 148.04 40.4801C147.838 40.4801 147.666 40.5446 147.522 40.6734C147.382 40.8022 147.301 40.9808 147.281 41.2092H148.8Z" fill="#152223"/>
<path d="M192.933 73.9585L193.06 78.9151L188.262 79.0743C188.262 79.0743 188.136 76.086 188.993 74.7835C189.851 73.481 192.933 73.9585 192.933 73.9585Z" fill="#FABB68"/>
<path d="M181.432 80.854C181.432 80.854 181.272 83.8715 181.113 84.2548C180.954 84.6381 178.222 91.7222 179.142 94.2655C180.061 96.8088 183.273 103.035 183.273 103.035L185.784 97.3155C185.784 97.3155 183.306 94.678 183.02 94.7105C182.734 94.743 183.371 94.4897 183.241 94.2331C183.111 93.9765 182.604 93.9472 182.702 93.5964C182.799 93.2456 183.718 92.4206 183.718 91.1831C183.718 89.9455 183.549 81.0781 183.549 81.0781L181.432 80.8573V80.854Z" fill="#777BDF"/>
<path d="M191.219 67.8582C191.219 67.8582 187.5 69.0015 187.438 71.7981C187.376 74.5948 187.659 76.5014 188.201 76.7223C188.744 76.9432 189.569 77.3265 191.03 77.1348C192.492 76.9432 193.064 75.1632 193.509 73.2598C193.954 71.3564 194.844 68.1765 191.222 67.8582H191.219Z" fill="#FABB68"/>
<path d="M193.312 72.5223C193.312 72.5223 194.137 72.1683 194.137 72.5223C194.137 72.8764 194.215 73.7664 193.724 73.8151C193.234 73.8638 193.059 73.513 193.059 73.513L193.312 72.5223Z" fill="#FABB68"/>
<path d="M190.117 136.65C190.117 136.65 189.942 139.414 190.117 139.551C190.292 139.69 192.527 140.054 193.544 139.69C194.336 139.408 194.863 139.471 195.191 139.165C195.288 139.074 195.721 138.112 195.75 137.985C195.857 137.488 194.762 137.315 194.411 137.315C193.975 137.315 194.736 136.735 191.049 136.985C190.078 137.05 190.12 136.65 190.12 136.65H190.117Z" fill="#152223"/>
<path d="M183.926 136.524C183.926 136.524 183.767 139.668 183.926 139.827C184.085 139.986 186.132 140.399 187.061 139.986C187.99 139.574 189.045 139.326 189.045 139.326C189.045 139.326 189.111 137.985 188.712 137.985C188.312 137.985 188.149 136.618 184.774 136.904C183.887 136.979 183.923 136.524 183.923 136.524H183.926Z" fill="#152223"/>
<path d="M186.242 68.1962C186.242 68.1962 186.456 69.9924 186.918 70.1191C187.379 70.2457 187.502 70.0411 187.434 70.5153C187.366 70.9896 187.151 71.7854 187.593 72.2304C188.035 72.6753 188.607 71.8503 188.782 72.5162C188.957 73.1821 191.358 74.6924 191.819 74.517C192.28 74.3416 193.791 73.2633 193.878 72.7533C193.966 72.2433 194.82 69.765 193.878 68.7321C192.936 67.6992 190.237 66.8742 188.376 67.2867C186.515 67.6992 186.154 67.6245 186.245 68.1929L186.242 68.1962Z" fill="#2A193D"/>
<path d="M184.618 98.3192C184.618 98.3192 184.365 113.358 184.829 115.222C185.294 117.087 184.703 116.707 184.829 116.918C184.956 117.129 185.235 117.045 185.011 117.428C184.787 117.811 184.475 118.234 184.823 118.36C185.17 118.487 184.823 118.825 184.823 118.825C184.823 118.825 184.56 118.74 184.823 119.205C185.086 119.669 184.608 120.052 184.55 120.221C184.492 120.39 183.433 132.168 183.559 134.585C183.686 137.001 183.751 137.17 183.751 137.17C183.796 137.894 185.04 137.985 188.009 137.17C188.009 137.17 188.347 125.159 188.581 124.269C188.815 123.379 189.218 120.52 189.218 120.52C189.218 120.52 189.958 119.185 190.169 117.873C190.38 116.561 192.31 109.909 192.31 109.909C192.31 109.909 191.654 118.298 191.293 119.718C190.933 121.137 190.043 129.631 189.789 132.301C189.536 134.971 189.789 137.173 189.789 137.173C190.76 137.677 192.378 137.703 194.746 137.173C194.746 137.173 196.016 125.756 196.844 124.168C197.672 122.58 198.686 112.095 198.686 112.095C198.686 112.095 199.131 105.105 198.686 101.99C198.423 100.148 191.754 96.7341 187.818 96.2697C185.092 95.9481 184.618 98.3257 184.618 98.3257V98.3192Z" fill="#2A193D"/>
<path d="M188.412 77.7099V76.5503C188.412 76.5503 188.987 75.2088 190.66 75.2738C192.333 75.3387 192.985 75.8974 192.985 75.8974V77.7099H188.412Z" fill="#DBDBDB"/>
<path d="M185.782 97.3158C185.782 97.3158 183.304 94.6783 183.018 94.7108C182.732 94.7433 183.369 94.4899 183.239 94.2333C183.113 93.98 182.603 93.9475 182.7 93.5967C182.794 93.2459 183.717 92.4209 183.717 91.1833C183.717 90.5564 183.674 87.9709 183.629 85.5738C183.454 85.5186 183.272 85.5608 183.048 86.2884C182.71 87.3895 182.573 88.195 182.365 88.8739C182.158 89.5528 181.385 89.2669 181.56 90.6571C181.735 92.0506 181.713 95.7599 181.365 96.2342C181.014 96.7084 181.164 97.5984 181.365 98.1928C181.44 98.4137 181.547 99.0698 181.654 99.8104C182.528 101.59 183.272 103.033 183.272 103.033L185.782 97.3126V97.3158Z" fill="#6265AD"/>
<path d="M198.686 112.088C198.686 112.088 199.131 105.098 198.686 101.983C198.572 101.177 197.227 100.07 195.425 99.0401C185.128 93.0635 186.229 101.145 186.229 103.487C186.229 106.111 189.874 110.646 189.237 111.409C188.6 112.172 187.967 113.78 187.626 116.154C187.288 118.526 188.262 120.984 187.116 122.807C185.969 124.629 185.761 126.916 185.505 128.4C185.251 129.884 185.42 132.002 185.083 133.694C184.745 135.39 184.478 135.634 184.15 136.524C184.076 136.725 183.952 137.033 183.812 137.394C184.102 137.901 185.378 137.891 188.006 137.17C188.006 137.17 188.344 125.158 188.578 124.268C188.811 123.378 189.214 120.52 189.214 120.52C189.214 120.52 189.955 119.185 190.166 117.873C190.377 116.561 192.306 109.908 192.306 109.908C192.306 109.908 191.65 118.298 191.29 119.718C190.929 121.137 190.039 129.631 189.786 132.301C189.532 134.971 189.786 137.173 189.786 137.173C190.757 137.677 192.375 137.703 194.742 137.173C194.742 137.173 196.012 125.756 196.841 124.168C197.666 122.579 198.682 112.094 198.682 112.094L198.686 112.088Z" fill="#152223"/>
<path d="M196.081 109.483C196.081 109.483 196.523 106.709 198.992 106.453C201.46 106.196 202.36 107.518 202.63 108.532C202.899 109.545 202.159 108.908 202.159 108.908C202.159 108.908 202.328 108.083 201.545 107.489C200.762 106.895 199.381 106.833 198.992 106.937C198.602 107.041 197.852 106.732 197.267 107.976C196.682 109.22 196.673 109.48 196.673 109.48H196.078L196.081 109.483Z" fill="#2D2E83"/>
<path d="M187.849 76.9469C187.849 76.9469 188.557 75.8977 190.681 75.8977C192.805 75.8977 193.822 77.1872 193.822 77.1872L198.746 79.3927C198.746 79.3927 199.603 79.9968 199.668 81.046C199.733 82.0951 200.208 89.5301 200.048 90.6117C199.889 91.6934 201.543 103.163 201.543 103.163C201.543 103.163 199.444 103.416 199.509 103.672C199.574 103.929 199.509 105.42 199.509 105.42H188.482L187.845 97.0301C187.845 97.0301 187.686 102.367 187.241 103.828C186.796 105.29 186.604 105.417 186.604 105.417L182.284 105.131C182.284 105.131 183.46 100.366 183.366 98.7126C183.272 97.0593 183.811 92.5801 183.811 92.5801C183.811 92.5801 181.684 83.8751 181.937 82.381C182.19 80.8868 181.365 81.046 181.365 81.046C181.365 81.046 181.365 80.221 181.875 80.0293C182.385 79.8377 187.251 77.8693 187.251 77.8693L187.852 76.9469H187.849Z" fill="#777BDF"/>
<path d="M205.993 107.96C205.781 108.002 192.542 109.782 192.542 109.782C192.542 109.782 191.928 109.824 191.886 110.734C191.844 111.643 192.246 119.208 192.246 119.208C192.246 119.208 192.12 119.718 193.156 119.929C194.192 120.14 194.449 119.929 194.449 119.929C194.449 119.929 206.1 112.959 206.1 112.897C206.1 112.835 205.993 107.96 205.993 107.96Z" fill="#777BDF"/>
<path d="M194.362 120.033L205.822 118.276C205.822 118.276 206.478 118.042 206.562 117.451C206.647 116.86 206.562 109.486 206.562 109.486L193.852 110.376C193.852 110.376 193.81 118.997 194.362 120.036V120.033Z" fill="#6265AD"/>
<path d="M207.456 111.156C207.469 111.263 207.501 111.659 207.244 112.046C207.024 112.38 206.715 112.514 206.605 112.556C203.019 113.114 199.433 113.67 195.847 114.229C195.847 114.229 194.83 114.206 194.661 113.488C194.34 112.124 194.609 111.38 193.856 110.734C193.654 110.558 193.265 110.396 192.459 110.542C196.857 109.889 201.255 108.661 205.65 108.008C205.65 108.008 205.799 107.979 205.984 107.982C205.984 107.982 206.264 107.995 206.543 108.135C206.874 108.301 207.335 109.477 207.456 111.159V111.156Z" fill="#777BDF"/>
<path d="M200.682 112.617L201.633 112.523L201.76 114.54C201.76 114.54 201.715 115.336 201.221 115.144C200.727 114.952 200.682 114.605 200.682 114.605V112.62V112.617Z" fill="#152223"/>
<path d="M198.619 104.134C198.619 104.134 198.36 105.69 198.619 105.988C198.879 106.287 198.869 107.239 198.869 107.239C198.869 107.239 200.945 108.532 201.075 107.346C201.205 106.161 201.455 105.29 201.075 105.121C200.695 104.952 200.822 103.871 200.822 103.871L198.619 104.134Z" fill="#FABB68"/>
<path d="M201.033 103.231C200.998 102.532 200.959 101.802 200.959 101.763L198.48 101.652V104.527H199.539C199.546 104.156 199.539 103.783 199.513 103.669C199.471 103.497 200.42 103.325 201.037 103.231H201.033Z" fill="#C6C6C6"/>
<path d="M199.724 103.822C199.689 103.766 199.624 103.714 199.51 103.669C198.812 103.403 197.922 104.634 197.964 103.87C198.006 103.107 198.006 103.065 197.922 102.048C197.837 101.031 198.091 99.8881 198.048 99.547C198.006 99.2092 197.584 98.277 197.285 97.8515C196.989 97.4292 197.749 96.9453 197.749 96.2339C197.749 95.5226 197.665 95.3537 197.327 93.996C196.989 92.6415 196.691 90.9882 196.648 89.9715C196.606 88.9549 196.096 87.7271 196.077 86.8793C196.054 86.0315 195.843 84.846 195.632 84.4659C195.421 84.0859 195.122 84.0015 195.122 84.0015C195.122 84.0015 194.095 84.0015 194.482 84.7226C194.868 85.4436 195.122 85.7392 195.122 86.2069C195.122 86.6747 194.605 87.3925 194.758 87.9447C194.911 88.4969 195.08 91.1636 195.122 92.0958C195.164 93.028 194.69 94.1291 194.758 94.7235C194.826 95.318 195.291 96.968 195.122 97.2246C194.953 97.4812 193.771 99.6834 193.598 100.658C193.426 101.632 191.961 102.945 191.211 103.877C190.461 104.809 188.934 104.978 188.85 105.423H199.036C199.123 105.316 199.185 105.183 199.185 105.02C199.185 104.656 199.624 104.306 199.724 104.029C199.724 103.955 199.721 103.883 199.718 103.825L199.724 103.822Z" fill="#6265AD"/>
<path d="M198.505 105.527H199.509C199.509 105.527 199.545 104.66 199.535 104.137L198.619 104.247C198.619 104.247 198.499 104.975 198.502 105.53L198.505 105.527Z" fill="#FABB68"/>
<path d="M200.957 101.763C200.957 101.84 201.116 104.527 201.067 104.527H198.479V101.652L200.957 101.763Z" fill="#DBDBDB"/>
<path d="M199.509 103.669C199.509 103.669 198.444 104.045 198.285 104.026C198.125 104.006 198.395 101.239 198.395 101.239L200.955 101.492L201.143 103.214C201.143 103.214 199.587 103.542 199.509 103.669Z" fill="#777BDF"/>
<path d="M60.1287 126.663L57.8258 126.972C57.8258 126.972 58.5307 135.625 57.9233 136.917C57.3126 138.213 57.1957 138.363 55.9224 139.045C55.328 139.363 52.8789 137.33 52.8789 140.036C52.8789 140.338 55.0617 140.448 56.9943 140.575C57.7446 140.624 58.5209 140.617 59.0569 140.585C60.7199 140.481 61.9737 140.627 61.6131 139.656C61.4475 139.211 61.3695 138.951 61.1714 138.727C60.5185 137.976 61.3825 136.56 61.337 136.222C61.2916 135.885 63.3639 128.229 62.9579 127.446C62.5518 126.663 60.1255 126.666 60.1255 126.666L60.1287 126.663Z" fill="#030504"/>
<path d="M60.9089 70.0975C61.2403 70.1138 61.5716 70.0748 61.8964 70.0034C62.8513 69.7987 64.7807 69.711 64.9204 72.2835C65.1088 75.7136 64.7905 76.2138 64.745 76.3145C64.6995 76.4152 61.5326 79.686 60.7076 78.6401C60.2366 78.0425 59.8273 77.2727 59.561 76.7205C59.3628 76.3112 59.2427 75.8727 59.2004 75.4212C59.064 73.9596 58.736 71.4715 59.2297 70.7439C59.6357 70.143 60.412 70.0748 60.9089 70.1008V70.0975Z" fill="#FABB68"/>
<path d="M59.5383 73.2449C58.7295 73.4105 58.33 73.7094 58.4209 74.2226C58.4989 74.6611 58.9081 75.3139 59.2265 75.4211C59.4246 75.4893 59.6325 75.5608 59.7721 75.4731C60.1847 75.2165 59.7137 73.7581 59.535 73.2449H59.5383Z" fill="#FABB68"/>
<path d="M64.0262 82.3622C64.1562 82.2648 64.5524 81.3715 64.939 80.3224C64.9585 80.2672 64.9714 80.2022 64.9779 80.1438C65.0949 78.6301 62.4866 78.1656 63.8638 77.2497C64.2861 76.9703 64.9715 76.1161 64.3478 76.1843C62.8634 76.3499 62.9576 76.207 61.6389 76.5741C61.3823 76.6455 61.1581 76.7787 61.0932 77.0418L61.0347 77.2659C60.9892 77.4413 61.0185 77.633 61.1127 77.7954L62.1553 79.5948C62.2528 79.7637 62.2787 79.9651 62.2268 80.147L61.9929 80.946C61.9539 81.0792 61.9572 81.2221 61.9994 81.3586L62.0839 81.6152C62.1326 81.7613 62.1878 81.9042 62.2495 82.0407L62.2885 82.1284C62.4054 82.3882 62.662 82.5539 62.9316 82.5474C63.3214 82.5376 63.8476 82.5019 64.0295 82.3655L64.0262 82.3622Z" fill="#F39200"/>
<path d="M67.5951 126.059L62.9795 127.254C62.9795 127.254 67.9167 135.722 67.4003 137.057C66.8838 138.392 67.3385 137.941 66.1205 138.714C65.5488 139.074 62.7847 137.113 62.9763 139.812C62.999 140.114 65.1818 140.065 67.1209 140.052C67.8712 140.046 68.6475 139.984 69.1802 139.912C70.8303 139.688 72.0906 139.747 71.6618 138.802C71.4637 138.37 71.3662 138.116 71.1551 137.905C70.4502 137.203 70.1677 135.778 70.0994 135.443C70.0312 135.108 68.7222 127.738 68.2643 126.988C67.8063 126.238 67.5951 126.056 67.5951 126.056V126.059Z" fill="#030504"/>
<path d="M65.9259 103.267V107.662L64.5357 110.111C64.5357 110.111 65.9552 120.736 65.7051 121.431C65.455 122.126 69.2715 126.205 68.6804 127.466C68.4692 127.917 63.8601 129.207 63.8601 129.207C63.4054 128.466 63.1813 128.184 63.0124 127.381C62.9019 127.534 63.5353 128.927 62.8597 129.164C62.8597 129.164 58.0557 129.19 57.4451 128.859C56.8344 128.528 56.5551 127.969 56.776 127.3C56.9968 126.631 56.6103 126.381 56.4966 126.27C56.3829 126.16 55.8015 124.77 56.4966 124.601C57.1917 124.435 57.7471 124.185 57.3022 123.99C56.8572 123.795 56.1068 123.74 56.4966 123.38C56.8864 123.019 57.3314 123.324 56.8864 123.019C56.4414 122.714 55.8535 122.658 56.1621 122.1C56.4706 121.541 57.0813 121.46 56.776 121.155C56.4706 120.849 54.7719 113.395 54.6354 109.14C54.4958 104.885 55.0512 101.77 55.3305 101.825C55.6099 101.88 65.9259 103.27 65.9259 103.27V103.267Z" fill="#33204B"/>
<path d="M62.8587 129.161C63.5311 128.924 62.901 127.531 63.0114 127.378C63.1803 128.18 63.4044 128.463 63.8592 129.203C63.8592 129.203 68.4683 127.917 68.6794 127.462C69.2706 126.199 65.454 122.122 65.7041 121.427C65.9542 120.732 64.5348 110.108 64.5348 110.108L65.925 107.659V103.264C65.925 103.264 64.9505 103.134 63.5961 102.949C62.1831 105.118 60.3804 106.97 60.2765 108.1C60.166 109.325 58.7174 115.48 59.4969 116.63C60.2765 117.78 60.9813 119.82 60.9423 120.71C60.9034 121.599 59.6074 121.895 60.5331 123.714C61.4588 125.53 59.8997 129.116 59.8997 129.116C61.3354 129.168 62.8523 129.158 62.8523 129.158L62.8587 129.161ZM62.8912 126.67V126.663C62.8782 126.569 62.8815 126.589 62.8912 126.67Z" fill="#152223"/>
<path d="M56.9008 83.9959C56.9008 83.9959 56.5955 82.4044 57.2646 82.0503C57.9337 81.6963 62.9943 78.3572 62.9943 78.3572H64.1864C64.1864 78.3572 66.9668 85.659 66.1905 91.8532C65.4109 98.0473 67.2656 103.533 66.6355 105.018C66.0053 106.502 55.6535 105.612 55.2085 104.907C54.7635 104.203 54.8058 97.1768 54.8058 97.1768C54.8058 97.1768 54.9617 90.7228 55.5853 87.4974C56.0628 85.0321 57.2971 84.821 56.9041 83.9992" fill="#008D36"/>
<path d="M66.1558 91.8532C66.617 88.186 68.6731 83.8595 67.9553 81.1603C67.4583 79.2991 64.1517 78.3572 64.1517 78.3572H63.8691C63.567 78.8509 63.0798 79.3803 62.3555 79.6759C61.3551 80.0852 60.2669 80.7056 60.1825 81.4104L60.098 82.1153C60.098 82.1153 62.5374 81.0759 62.9109 82.0503C63.2877 83.0247 57.9445 91.7655 59.6563 92.4898C61.5857 93.3051 60.8971 93.3376 60.8451 93.9709C60.7931 94.6043 57.7951 95.1987 58.5162 95.0298C59.2373 94.8609 61.1634 96.2154 61.3421 97.3847C61.5207 98.5541 62.9109 99.535 62.4659 102.799C62.0242 106.022 62.1703 105.81 62.4757 105.823C64.5642 105.823 66.3507 105.609 66.6008 105.021C67.2309 103.537 65.3762 98.0506 66.1558 91.8564V91.8532Z" fill="#006D29"/>
<path d="M56.4158 83.1645C56.4158 83.1645 58.4004 77.1717 61.7655 76.9703C65.1305 76.7689 66.9268 78.5586 67.0957 79.3901C67.2613 80.2249 65.9393 78.9939 64.1301 79.4096C62.3209 79.8254 61.9604 79.9391 61.7655 80.4945C61.5706 81.0499 59.7354 81.9691 59.0663 82.1348C58.3972 82.3005 58.3712 82.4401 57.7313 83.3301C57.0914 84.2201 55.9546 84.2688 56.4126 83.1612L56.4158 83.1645Z" fill="#008D36"/>
<path d="M51.9659 104.768C51.9659 104.768 49.5818 105.411 49.3284 106.457C49.0751 107.503 50.6472 108.773 50.6472 108.773C50.6472 108.773 52.7617 108.107 52.8234 107.948C52.8851 107.789 53.1937 106.35 54.0285 105.528C54.8632 104.706 52.9826 103.436 52.9826 103.436C52.9826 103.436 51.7743 103.881 51.9659 104.771V104.768Z" fill="#FABB68"/>
<path d="M63.2902 82.3945C63.2902 82.3945 68.4093 81.4299 68.445 82.7291C68.4807 84.0284 68.0942 84.4344 69.0199 84.9183C69.9456 85.4023 70.225 84.3986 70.2607 87.2375C70.2964 90.0764 70.2412 89.9627 70.9655 90.6318C71.6899 91.3009 70.9655 98.4923 70.9655 98.4923C70.9655 98.4923 72.1706 98.3981 71.7613 100.366C71.3521 102.332 68.8672 102.127 68.812 102.127C68.7568 102.127 65.4177 102.133 65.4177 102.133C65.4177 102.133 63.8586 97.716 64.3036 93.3213C64.7486 88.9265 63.8781 83.9764 63.2837 83.0312C62.6893 82.086 63.2837 82.401 63.2837 82.401L63.2902 82.3945Z" fill="#33204B"/>
<path d="M65.286 88.8323C65.286 88.8323 62.5803 91.9668 60.8003 92.2624C59.0204 92.558 58.2051 95.098 58.2051 95.098C58.2051 95.098 66.4391 93.3537 66.3644 91.3886C66.2897 89.4235 65.2893 88.8291 65.2893 88.8291L65.286 88.8323Z" fill="#33204B"/>
<path d="M65.6413 87.0494C65.6413 87.0494 64.4525 81.7777 62.8122 81.4854C61.1719 81.193 60.3112 81.206 59.7103 81.651C59.1093 82.096 57.482 83.1906 57.115 83.7331C56.748 84.2755 56.5791 87.8517 56.8714 88.1862C57.1637 88.5208 57.6932 88.3259 57.6802 88.2837C57.6672 88.2415 56.761 87.3255 56.9851 85.5163C57.2092 83.7071 57.7094 83.444 58.1934 83.0542C58.6773 82.6644 60.4476 81.664 61.2531 81.8589C62.0587 82.0538 63.3124 83.012 63.5333 83.418C63.7542 83.824 64.9105 85.8931 65.1476 86.6304C65.3847 87.3677 65.6413 87.0462 65.6413 87.0462V87.0494Z" fill="#33204B"/>
<path d="M66.3605 91.392C66.2858 89.4269 65.2853 88.8325 65.2853 88.8325C65.2853 88.8325 64.7007 89.0372 64.3954 89.3587C64.3726 89.6705 64.3434 89.9531 64.1777 90.4306C63.8594 91.3498 62.2029 93.3247 61.8261 92.6556C61.4558 91.9994 61.0173 92.6491 59.7668 92.7335C58.7014 93.5521 58.2012 95.0982 58.2012 95.0982C58.2012 95.0982 66.4352 93.3539 66.3605 91.3888V91.392Z" fill="#152223"/>
<path d="M53.8601 106.457C53.8601 106.457 51.2454 104.962 51.2876 104.852C51.3298 104.742 52.0704 102.591 52.9117 101.188C53.6977 99.8791 54.7631 97.8296 54.5098 97.5697C54.2564 97.3099 53.5418 97.2059 54.12 96.4036C54.6982 95.6014 54.4838 96.0301 54.12 95.5039C53.7562 94.9777 53.9543 95.4454 54.4286 94.7503C54.9028 94.0552 56.0071 89.3844 56.0526 87.7084C56.0981 86.0324 56.0007 83.9048 57.7904 83.3591C59.5801 82.8135 61.2789 80.3351 61.8408 82.9077C62.4027 85.4802 62.7308 84.3401 62.263 88.0365C61.7953 91.7328 61.9935 95.4844 61.1977 96.2055C60.4019 96.9266 59.6775 97.5015 59.5476 98.2778C59.4177 99.0541 60.9833 97.953 58.6869 100.564C56.3937 103.176 56.7542 102.439 56.777 102.994C56.7997 103.55 57.0011 103.468 56.306 104.274C55.6109 105.079 53.8634 106.457 53.8634 106.457H53.8601Z" fill="#008D36"/>
<path d="M70.9642 98.4893C70.9642 98.4893 71.6886 91.2947 70.9642 90.6288C70.2399 89.9597 70.2951 90.0734 70.2594 87.2345C70.2464 86.2926 70.2074 85.7761 70.1262 85.4838C70.123 85.4838 70.1165 85.4838 70.1132 85.4805C69.9184 85.4513 69.5578 85.5098 69.3077 85.578C69.0576 85.6462 67.1867 85.0193 67.3263 86.1594C67.466 87.2995 67.3361 86.9519 67.5017 87.8842C67.6674 88.8164 67.9467 88.9788 67.6966 89.0892C67.4465 89.1997 67.7941 90.0994 67.6966 90.5184C67.5992 90.9374 68.1059 92.1879 68.1059 92.1879L69.8956 92.4575C68.7588 92.0255 66.8878 92.0353 66.7352 91.2135C66.5825 90.3917 66.5565 90.408 66.1375 89.0437C65.7185 87.6795 65.7477 87.3872 65.2605 87.5009C65.2053 87.5139 65.2963 87.4749 65.2605 87.5009C65.1403 87.9686 65.384 87.1046 65.2605 87.5009C65.4814 86.6239 65.6211 86.5817 65.2605 85.6494C64.9 84.7172 64.2731 84.3989 64.3705 83.2653C64.4063 82.8528 64.403 83.392 64.2958 83.1127C63.7242 83.1939 63.2857 82.3981 63.2857 82.3981C63.2857 82.3981 62.6913 82.083 63.2857 83.0282C63.7079 83.7006 64.2698 86.403 64.3998 89.4887C64.5784 89.4887 64.7051 89.3978 64.8025 89.2484C64.7603 89.5699 64.796 90.0409 64.6077 90.5866C64.5719 90.6938 64.507 90.814 64.4258 90.9407C64.4225 91.7332 64.3835 92.5355 64.3056 93.3183C63.8606 97.713 65.4197 102.13 65.4197 102.13C65.4197 102.13 68.7588 102.124 68.814 102.124C68.8692 102.124 71.354 102.329 71.7633 100.363C72.1726 98.3984 70.9675 98.4893 70.9675 98.4893H70.9642Z" fill="#152223"/>
<path d="M62.8122 81.4886C62.7018 81.4691 62.5978 81.4528 62.4972 81.4333C62.338 81.638 62.2016 81.9238 62.0879 82.2226C62.7375 82.5962 63.3839 83.1419 63.5366 83.418C63.7607 83.8207 64.9138 85.893 65.1509 86.6304C65.2288 86.8772 65.31 87.0039 65.3847 87.0656C65.4594 86.8025 65.5049 86.6304 65.4854 86.4127C65.453 86.2861 65.9467 85.3831 66.8789 84.9706C67.5512 84.6717 68.7531 84.8439 68.7173 84.7237C68.5517 84.295 67.4993 84.6522 66.5313 84.5548C65.3912 84.4411 64.3259 83.8759 64.3778 83.262C63.9393 82.3428 63.4066 81.5925 62.8155 81.4886H62.8122Z" fill="#152223"/>
<path d="M53.9532 106.428C53.9532 106.428 55.7105 105.063 56.4121 104.264C57.1137 103.465 56.9123 103.547 56.8928 102.988C56.8733 102.429 56.5063 103.166 58.8189 100.571C61.1316 97.9792 59.5595 99.0674 59.6959 98.2943C59.8323 97.5212 60.5599 96.9496 61.3622 96.235C62.1645 95.5204 61.9956 91.7656 62.4926 88.0724C62.9895 84.3793 62.6517 85.5162 62.1093 82.9404C61.9371 82.1284 61.5474 81.8295 61.1771 81.8003C61.1186 81.9335 61.1803 82.0731 61.1706 82.2583C61.0894 83.7882 61.661 86.3282 60.9562 87.5592C60.2514 88.7903 59.4426 90.1902 59.7771 91.6194C60.1117 93.0518 59.6245 95.4814 58.8677 95.8874C58.1108 96.2935 56.6947 98.4372 57.1851 99.4799C57.6723 100.523 56.7466 102.117 56.3926 102.52C56.0418 102.92 54.5866 105.434 53.8785 105.583C53.5537 105.651 53.2939 105.797 53.1055 105.934C53.57 106.21 53.9467 106.431 53.9467 106.431L53.9532 106.428Z" fill="#006D29"/>
<path d="M67.4355 80.2281C67.2958 80.0689 67.848 80.4782 67.8837 80.8777C67.9195 81.2772 67.8512 82.7616 67.8512 82.7616L67.1074 82.518C67.1074 82.518 67.9552 80.829 67.4322 80.2281H67.4355Z" fill="#33204B"/>
<path d="M64.0447 73.147C64.8047 73.1892 65.2205 73.4198 65.2335 73.9363C65.2432 74.3813 64.9931 75.0796 64.7268 75.2355C64.5611 75.333 64.3857 75.4337 64.2428 75.3719C63.8205 75.1835 63.9764 73.6797 64.0414 73.147H64.0447Z" fill="#FABB68"/>
<path d="M59.0006 73.4329C58.3705 73.1276 57.8313 72.8125 57.815 72.2928C57.7988 71.7731 57.3895 70.9384 58.0554 70.4771C58.7212 70.0159 58.6855 69.4215 60.0595 69.0869C61.4334 68.7524 62.1902 68.0118 62.9341 68.512C63.6779 69.0122 63.8435 69.4962 64.4185 69.4962C64.9934 69.4962 65.7599 69.1811 65.747 69.6066C65.734 70.0321 65.5391 70.7922 65.4968 71.3866C65.4546 71.981 65.3507 72.5689 65.198 72.8125C65.0454 73.0562 65.25 73.7253 64.9901 73.8909C64.7303 74.0566 63.6909 74.3651 63.3953 74.4626C63.0997 74.56 62.3689 75.0408 62.3429 75.1902C62.3169 75.3396 61.8947 75.5247 61.4399 75.2649C60.9852 75.005 60.3713 74.7549 60.1959 74.4626C60.0205 74.1703 59.3416 73.4849 59.228 73.4362C59.1143 73.3875 59.0006 73.4362 59.0006 73.4362V73.4329Z" fill="#33204B"/>
<path d="M61.4407 75.2615C61.8954 75.5213 62.3209 75.3362 62.3437 75.1868C62.3664 75.0373 63.0972 74.5566 63.3961 74.4592C63.6916 74.3617 64.731 74.0564 64.9909 73.8875C65.2507 73.7218 65.0461 73.0527 65.1988 72.8091C65.3482 72.5655 65.4554 71.9776 65.4976 71.3832C65.5398 70.7888 65.7347 70.0287 65.7477 69.6032C65.7542 69.4051 65.5885 69.3661 65.3547 69.3856C65.2637 70.0742 65.0461 70.8992 64.7343 71.0649C64.3185 71.289 63.0712 71.5099 62.4833 72.3446C61.8954 73.1794 61.6778 74.3292 60.843 74.2675C60.6644 74.2545 60.4468 74.339 60.2129 74.4787C60.4045 74.7612 60.9957 75.0081 61.4407 75.2615Z" fill="#152223"/>
<path d="M92.4375 110.951H93.6036L96.5919 140.506H95.4615L92.4375 110.951Z" fill="#152223"/>
<path d="M100.141 75.6537C100.141 75.6537 99.8848 73.5879 99.7419 73.1202C99.599 72.6524 100.918 72.0385 101.798 71.6715C102.678 71.3044 104.146 70.9374 104.448 71.1226C104.751 71.3077 105.283 72.4218 105.316 72.8895C105.348 73.3573 105.316 73.8737 105.316 73.8737C105.316 73.8737 106.631 73.0097 108.148 73.367C109.665 73.7243 109.564 73.3735 109.681 73.9419C109.798 74.5104 109.863 74.8254 109.249 75.3256C108.635 75.8258 105.585 75.9136 105.585 75.9136L100.489 77.5019C100.489 77.5019 98.8 78.1223 98.0821 78.106C97.3643 78.0898 95.9838 77.8722 95.8474 77.5896C95.711 77.307 96.2469 76.391 97.0297 76.0565C97.8125 75.7219 99.4203 75.0755 99.7387 75.056L100.057 75.0366L100.138 75.6569L100.141 75.6537Z" fill="#432918"/>
<path d="M102.994 73.9454C102.994 73.9454 106.664 73.6465 106.067 77.2942C105.469 80.9418 104.472 81.494 102.994 81.4453C101.516 81.3966 100.555 80.5391 100.116 77.6937C99.7492 75.2966 100.22 73.9454 102.994 73.9454Z" fill="#FABB68"/>
<path d="M100.418 76.4785C100.418 76.4785 99.5185 76.5532 99.6192 77.6284C99.7199 78.7035 100.418 78.9016 100.418 78.9016L101.019 77.6901L100.418 76.4785Z" fill="#FABB68"/>
<path d="M100.542 79.4074C100.542 79.4074 101.268 78.9355 101.707 78.8251C102.145 78.7147 104.23 79.0192 104.23 79.0192C104.48 77.9928 105.693 76.638 106.131 76.5406C106.42 76.4789 106.089 74.4553 105.751 74.2799C105.413 74.1045 105.092 73.6985 104.591 73.7862C104.091 73.8739 100.953 74.5852 100.953 74.5852C100.953 74.5852 100.112 75.1504 100.171 75.1666C100.229 75.1829 99.6867 76.6283 100.041 76.6283C100.31 76.6283 99.9601 78.4369 100.542 79.4074Z" fill="#152223"/>
<path d="M106.389 77.1251C106.453 77.9046 106.259 78.3626 106.051 78.6452C105.801 78.983 105.135 78.8888 105.135 78.8888L105.19 78.8953C105.19 78.8953 104.475 78.8953 104.651 78.3464C104.686 78.2295 104.68 77.0796 105.46 76.6476C105.576 76.5827 105.927 76.3878 106.177 76.5534C106.418 76.7126 106.392 77.0894 106.389 77.1283V77.1251Z" fill="#FABB68"/>
<path d="M95.9278 77.6316C97.8052 77.1412 104.415 75.3872 105.078 74.7863C105.779 74.1496 107.615 73.4253 108.881 73.4968C108.693 73.4675 108.456 73.4253 108.154 73.3539C106.637 72.9966 105.321 73.8606 105.321 73.8606C105.321 73.8606 105.354 73.3441 105.321 72.8764C105.289 72.4086 104.756 71.2945 104.454 71.1094C104.155 70.9275 102.687 71.2913 101.804 71.6583C100.92 72.0254 99.6047 72.6425 99.7476 73.107C99.8386 73.4091 99.9782 74.3705 100.066 75.0201L99.7476 75.0396C99.4293 75.0591 97.8215 75.7055 97.0387 76.0401C96.2559 76.3746 95.7232 77.2906 95.8564 77.5732M100.147 75.6405L100.069 75.0299C100.118 75.3807 100.147 75.6405 100.147 75.6405Z" fill="#7D4E24"/>
<path d="M110.399 75.2087C110.405 75.0431 110.366 74.8612 110.324 74.6468C110.308 74.5721 110.298 74.5136 110.285 74.4682C110.285 74.4682 110.279 74.4682 110.275 74.4617C110.292 74.5136 110.305 74.5786 110.324 74.6696C110.366 74.8742 110.402 75.0463 110.399 75.2087Z" fill="#7D4E24"/>
<path d="M91.8223 98.1372C91.8223 98.1372 91.1564 101.07 91.3902 104.104C91.6241 107.138 91.8223 108.005 91.8223 108.005C91.8223 108.005 91.322 110.405 91.3383 110.539C91.3545 110.672 91.4877 113.205 93.089 112.572C94.6903 111.939 94.4208 111.071 94.4208 111.071C94.4208 111.071 94.8203 111.305 94.8528 110.772C94.8852 110.24 93.9855 107.515 93.8198 107.394C93.6542 107.274 94.2518 104.741 94.6546 104.24C95.0574 103.74 95.6226 100.742 95.4212 100.508C95.2198 100.274 95.2555 98.475 95.2555 98.475L91.8223 98.1405V98.1372Z" fill="#FABB68"/>
<path d="M100.699 81.4031C100.709 81.2635 100.771 80.6398 101.29 80.1948C101.57 79.9577 101.862 79.8668 102.031 79.8311C102.414 79.8505 104.188 79.974 105.256 81.3707C105.536 81.7377 105.708 82.1112 105.815 82.4361L100.699 81.4031Z" fill="#DBDBDB"/>
<path d="M110.852 97.7343C110.852 97.7343 110.218 100.369 110.852 101.768C111.485 103.168 112.486 106.001 112.651 106.166C112.817 106.332 112.651 108.2 112.651 108.2C112.651 108.2 112.284 108.7 112.486 108.934C112.687 109.168 112.119 109.168 111.953 109.567C111.787 109.967 111.768 111.532 112.726 112.266C113.684 113.001 111.586 113.666 112.05 113.868C112.515 114.069 113.184 114.267 113.749 113.868C114.314 113.468 115.117 111.402 114.717 110.334C114.318 109.268 114.649 109.301 114.616 108.599C114.584 107.898 114.184 107.599 114.415 107.232C114.646 106.865 114.75 107.03 114.616 106.332C114.483 105.634 115.182 97.5004 114.483 97.0652C113.785 96.6299 110.852 97.7311 110.852 97.7311V97.7343Z" fill="#FABB68"/>
<path d="M97.4526 104.701C97.4526 104.701 96.319 109.801 96.6536 115.066C96.9881 120.331 96.9524 121.134 97.2869 121.267C97.6215 121.4 97.7872 121.666 97.4526 122.001C97.118 122.336 97.1538 125.499 97.8196 125.769C98.4855 126.035 98.2874 125.97 98.086 126.334C97.8846 126.698 97.6865 126.568 98.1185 127.133C98.5505 127.698 98.6187 127.299 98.4173 127.831C98.2159 128.364 98.3166 130.563 98.3166 130.563C98.3166 130.563 102.182 130.03 102.65 128.53C103.117 127.029 102.617 127.695 102.65 127.331C102.682 126.967 102.932 127.299 102.89 126.766C102.848 126.233 102.348 126.266 102.315 125.866C102.283 125.467 102.747 125.168 102.682 124.866C102.617 124.564 102.533 124.333 102.89 124.067C103.247 123.8 103.364 123.2 102.906 122.768C102.448 122.336 103.481 122.033 103.449 121.468C103.416 120.903 103.267 119.77 102.89 119.234C102.513 118.701 103.348 118.067 103.449 117.467C103.549 116.866 103.338 114.394 103.76 114.098C104.183 113.803 104.017 115.667 104.183 115.8C104.348 115.933 105.115 116.301 105.017 116.833C104.92 117.366 104.683 120.166 105.417 121.433C106.151 122.699 106.817 122.465 106.749 123.034C106.681 123.602 106.382 124.167 106.914 124.535C107.447 124.902 106.681 125.1 106.681 125.434C106.681 125.769 107.392 126.201 107.103 126.334C106.814 126.467 106.58 126.867 106.846 127.133C107.113 127.399 107.346 127.201 107.113 127.399C106.879 127.598 106.746 128 106.979 129.001C107.213 130.001 107.21 130.699 107.21 130.699C107.21 130.699 111.514 129.4 111.647 129.4C111.78 129.4 112.813 127.799 111.913 127.302C111.014 126.805 110.647 126.37 111.179 126.103C111.712 125.837 112.345 126.136 111.913 125.369C111.481 124.603 111.28 124.736 111.679 124.47C112.079 124.203 112.111 124.268 111.946 123.804C111.78 123.339 111.546 119.571 111.579 118.636C111.611 117.704 111.813 112.003 111.377 110.902C110.945 109.801 109.578 105.036 109.045 104.701C108.512 104.367 97.4461 104.701 97.4461 104.701H97.4526Z" fill="#634E42"/>
<path d="M100.212 81.3248C100.212 81.3248 100.898 80.3669 102.974 80.643C105.049 80.9191 106.636 82.0491 106.636 82.0491C106.636 82.0491 109.66 82.9976 110.635 83.9233C111.609 84.849 112.584 87.7236 112.584 87.7236C112.584 87.7236 113.11 90.2734 113.035 90.6989C112.96 91.1244 113.042 92.3749 113.042 92.3749C113.042 92.3749 112.083 92.9758 112.834 92.9758C113.584 92.9758 114.133 92.625 114.208 93.3493C114.282 94.0737 113.334 94.1484 113.682 94.3758C114.029 94.6031 114.656 94.5771 114.805 95.4996C114.955 96.4253 114.981 97.7733 114.981 97.7733C114.981 97.7733 109.907 99.4233 109.631 98.4489C109.355 97.4745 110.281 97.6726 109.982 97.3251C109.683 96.9775 109.284 97.049 109.284 96.7501C109.284 96.4513 109.508 100.573 109.508 100.573C108.959 100.898 108.533 100.648 109.033 101.073C109.534 101.499 109.608 101.499 109.433 101.973C109.258 102.447 108.757 102.548 109.134 103.022C109.511 103.497 109.683 103.272 109.485 103.922C109.287 104.572 109.885 105.751 109.885 105.751C109.885 105.751 107.419 107.488 105.584 106.823C103.752 106.157 103.885 106.322 102.95 106.621C102.014 106.92 100.316 107.959 99.6172 106.972C98.9188 105.988 97.8177 106.254 97.1843 106.521C96.5509 106.787 95.6187 106.787 95.9858 105.887C96.3528 104.987 96.9537 105.455 96.9862 104.653C97.0187 103.851 96.918 104.419 96.7198 103.652C96.5217 102.886 96.421 102.386 96.7198 101.853C97.0187 101.32 97.6196 101.518 97.0869 100.885C96.5542 100.252 96.8855 100.651 96.8855 99.5533C96.8855 98.4554 96.9537 95.8537 96.9537 95.8537C96.9537 95.8537 96.6873 95.3859 96.5217 96.2207C96.356 97.0555 96.3885 97.6856 95.9046 97.6531C95.4206 97.6206 95.7876 97.887 95.9046 98.5853C96.0215 99.2837 95.9208 100.086 95.4531 99.8846C94.9853 99.6832 95.0535 99.4298 94.3519 99.6897C93.6503 99.9495 91.8184 99.9171 91.3182 99.3844C90.818 98.8517 90.6523 99.0173 91.0843 98.319C91.5163 97.6206 91.6852 97.3868 91.3182 97.0847C90.9512 96.7826 90.9512 96.919 91.5521 96.4188C92.153 95.9186 90.6621 96.094 91.211 95.295C91.7599 94.4959 91.9613 95.4184 91.9613 94.7688C91.9613 94.1192 91.3604 94.7038 91.7372 93.6742C92.1107 92.6445 92.4615 91.8195 92.4615 91.8195C92.4615 91.8195 92.585 87.9704 93.7868 86.0216C94.9853 84.0727 94.9106 83.972 96.4372 83.2964C97.9606 82.6208 100.212 81.3215 100.212 81.3215V81.3248Z" fill="#F38503"/>
<path d="M97.1562 128.332C97.1562 128.332 102.99 128.433 103.188 128.667C103.386 128.9 103.354 130.7 103.354 130.7C103.354 130.7 102.655 130.866 102.62 130.934C102.584 131.002 102.821 132.499 102.688 132.6C102.555 132.701 102.353 133.201 102.353 133.298C102.353 133.396 102.753 137.232 103.12 137.466C103.487 137.7 103.12 140.665 103.12 140.5C103.12 140.334 98.8193 140.506 98.8193 140.506C98.8193 140.506 98.3516 139.931 98.92 139.2C99.4852 138.466 99.5534 138.833 99.3877 137.566C99.2221 136.3 99.3552 132.301 98.3223 131.632C97.2894 130.963 97.4226 131.398 97.4226 131.398L97.1562 128.332Z" fill="#152223"/>
<path d="M112.587 128.332C112.587 128.332 106.461 128.098 106.338 128.498C106.215 128.897 106.338 130.697 106.338 130.697C106.338 130.697 106.487 131.947 107.014 132.145C107.54 132.347 106.692 134.403 106.838 134.994C107.306 136.894 106.621 135.943 106.487 140.5C106.487 140.6 111.087 140.675 111.097 140.5C111.204 138.353 110.593 138.928 110.58 137.96C110.544 135.53 110.996 132.178 111.139 132.019C111.34 131.795 111.837 131.493 111.863 131.018C111.889 130.544 112.009 130.145 112.285 129.895C112.561 129.644 112.587 128.329 112.587 128.329V128.332Z" fill="#152223"/>
<path d="M101.801 72.227C101.213 72.4706 100.43 72.8279 100.018 73.1755C100.128 73.2079 100.248 73.2372 100.368 73.2502C100.797 73.2956 104.049 72.3212 104.789 72.0971C104.669 71.8957 104.545 71.7333 104.451 71.6748C104.152 71.4929 102.684 71.8567 101.801 72.2238V72.227Z" fill="#432918"/>
<path d="M104.075 72.471C104.426 72.3216 104.8 71.9221 104.251 72.0455C103.702 72.169 101.652 72.8706 100.827 72.994C100.262 73.0784 99.9699 73.046 99.775 72.903C99.7392 72.9778 99.723 73.0492 99.7457 73.1174C99.8367 73.4195 99.9764 74.3809 100.064 75.0306C100.064 75.0306 100.064 75.0306 99.7457 75.0501C99.4274 75.0695 97.8196 75.7159 97.0368 76.0505C96.5691 76.2486 96.1955 76.6546 95.9941 77.0119C97.2772 76.6644 99.9049 75.7419 99.9049 75.7419C99.9049 75.7419 99.6873 76.018 100.373 75.992C101.055 75.966 105.339 74.1146 105.498 73.7898C105.505 73.78 105.511 73.767 105.518 73.7541C105.394 73.819 105.323 73.8645 105.323 73.8645C105.323 73.8645 105.349 73.4812 105.333 73.0784C105.05 73.1986 104.745 73.3221 104.257 73.2896C103.507 73.2408 103.731 72.614 104.082 72.4645L104.075 72.471ZM100.061 75.0436C100.11 75.3976 100.139 75.6542 100.139 75.6542L100.061 75.0436Z" fill="#432918"/>
<path d="M111.92 127.299C111.02 126.799 110.653 126.367 111.186 126.1C111.719 125.834 112.352 126.133 111.92 125.366C111.488 124.6 111.287 124.733 111.686 124.467C112.086 124.2 112.118 124.265 111.952 123.801C111.787 123.333 111.553 119.568 111.585 118.633C111.618 117.698 111.819 112 111.384 110.899C110.949 109.798 109.585 105.033 109.052 104.699C108.756 104.513 105.261 104.533 102.182 104.588C101.003 105.676 99.4115 107.183 99.392 107.385C99.3595 107.706 100.503 111.14 100.029 113.108C99.5511 115.08 100.379 117.97 99.7103 118.477C99.0444 118.987 98.3428 120.098 98.6611 120.955C98.9795 121.813 99.6778 122.67 99.5836 123.499C99.4894 124.324 98.502 126.487 98.7878 126.932C99.0736 127.377 99.5284 127.289 99.7785 128.397C99.9279 129.06 99.9864 129.709 100.019 130.196C101.12 129.885 102.4 129.352 102.656 128.53C103.124 127.029 102.624 127.695 102.656 127.332C102.689 126.964 102.939 127.299 102.897 126.766C102.854 126.234 102.354 126.266 102.322 125.867C102.289 125.467 102.754 125.168 102.689 124.866C102.621 124.567 102.539 124.333 102.897 124.067C103.254 123.801 103.371 123.2 102.913 122.768C102.455 122.336 103.488 122.034 103.455 121.469C103.423 120.903 103.273 119.77 102.897 119.234C102.52 118.701 103.355 118.068 103.455 117.467C103.556 116.866 103.345 114.394 103.767 114.099C104.189 113.803 104.024 115.667 104.189 115.801C104.355 115.934 105.122 116.301 105.024 116.834C104.924 117.366 104.69 120.166 105.424 121.433C106.158 122.7 106.824 122.466 106.755 123.034C106.687 123.599 106.388 124.168 106.921 124.535C107.454 124.902 106.687 125.1 106.687 125.435C106.687 125.769 107.399 126.201 107.11 126.334C106.82 126.468 106.587 126.867 106.853 127.133C107.119 127.4 107.353 127.202 107.119 127.4C106.885 127.601 106.752 128.001 106.986 129.001C107.22 130.001 107.217 130.7 107.217 130.7C107.217 130.7 111.52 129.401 111.654 129.401C111.787 129.401 112.82 127.799 111.92 127.302V127.299Z" fill="#152223"/>
<path d="M109.49 103.922C109.691 103.272 109.516 103.496 109.139 103.022C108.766 102.548 109.263 102.447 109.438 101.973C109.613 101.499 109.539 101.499 109.038 101.073C108.538 100.648 108.964 100.898 109.513 100.573C109.513 100.573 109.331 97.2242 109.295 96.7824C109.328 97.039 109.701 96.9903 109.99 97.3249C110.289 97.6757 109.367 97.4743 109.639 98.4487C109.782 98.9522 111.195 98.7573 112.533 98.4487C112.514 98.3545 112.488 98.2538 112.442 98.1369C111.978 96.8994 112.865 96.8279 111.764 96.9708C110.663 97.1105 110.133 96.1198 110.396 95.9801C110.659 95.8405 111.351 95.7593 110.328 94.9927C109.305 94.2294 109.178 93.4011 109.347 93.1153C109.516 92.8295 110.325 92.8294 109.285 91.9817C108.246 91.1339 107.95 90.4128 107.824 90.1173C107.697 89.8217 107.457 88.805 107.174 88.6329C106.891 88.464 106.469 88.0385 106.68 88.3795C106.891 88.7173 107.245 90.624 107.174 91.0072C107.103 91.3873 107.103 92.9139 107.655 93.6772C108.207 94.4405 108.925 95.8372 109.009 96.4739C109.094 97.1105 108.626 98.3383 108.035 98.9749C107.444 99.6115 108.051 100.076 106.284 100.329C104.517 100.583 101.919 100.924 101.522 100.839C101.126 100.755 101.678 101.135 99.9827 101.304C98.2871 101.473 97.4394 100.882 97.3971 99.5661C97.3549 98.2538 97.8486 97.8023 97.3971 96.9676C96.9456 96.1328 97.264 95.2883 97.3971 94.9927C97.5271 94.6939 98.1215 94.3138 97.9071 93.5083C97.696 92.7028 97.3354 92.6118 97.5725 92.1343C97.8097 91.6569 97.9493 91.6017 97.8649 90.8806C97.7804 90.1595 97.7804 89.6528 97.6537 89.5261C97.5271 89.3994 98.2059 89.3085 97.9493 88.8862C97.696 88.4672 96.9327 87.915 97.0171 88.2528C97.1016 88.5906 97.2997 89.2695 97.0106 90.2017C96.7215 91.1339 96.3805 91.855 96.3383 92.5306C96.296 93.2095 96.7767 93.6317 96.5981 94.0995C96.4227 94.564 95.9745 95.2006 95.8998 95.7105C95.8283 96.2205 95.6399 96.175 95.458 96.4739C95.2761 96.7694 94.685 97.4905 94.9805 97.7016C95.2761 97.9128 95.2534 98.1759 95.2501 98.4682C95.2501 98.7605 94.6785 97.8283 94.5096 98.6339C94.3439 99.4394 94.214 98.0622 93.3954 98.1369C92.5769 98.2116 92.1839 98.7216 92.0572 99.0594C91.9793 99.2672 91.6772 99.3972 91.4238 99.4849C92.0377 99.9266 93.691 99.9429 94.3471 99.696C95.0455 99.4361 94.9805 99.6895 95.4483 99.8909C95.916 100.092 96.0134 99.29 95.8998 98.5916C95.7828 97.8933 95.4158 97.6237 95.8998 97.6594C96.3837 97.6951 96.348 97.0585 96.5169 96.227C96.6826 95.3922 96.9489 95.86 96.9489 95.86C96.9489 95.86 96.8807 98.4585 96.8807 99.5596C96.8807 100.661 96.5461 100.258 97.0821 100.891C97.6148 101.525 97.0139 101.323 96.715 101.859C96.4942 102.249 96.4909 102.623 96.5819 103.094C100.207 104.133 104.358 105.244 105.738 105.536C106.69 105.738 108.161 105.549 109.656 105.228C109.509 104.831 109.367 104.292 109.48 103.925L109.49 103.922Z" fill="#432918"/>
<path d="M109.54 97.9618C109.469 97.4974 109.391 97.1011 109.339 96.89C109.251 96.851 109.385 96.9452 109.339 96.89C109.352 95.2399 108.894 93.4762 108.878 93.2683C108.845 92.8363 108.355 92.021 106.906 90.1209C105.458 88.2207 105.584 83.5889 105.584 83.5889C105.584 83.5889 99.2244 83.6213 99.1237 83.5889C99.1237 83.5889 98.8249 86.9539 98.6917 88.8898C98.5585 90.8225 96.6908 93.6776 96.6908 93.6776L96.7201 95.7499C96.8435 95.6589 96.9572 95.8538 96.9572 95.8538C96.9572 95.8538 96.889 98.4523 96.889 99.5534C96.889 100.655 96.5544 100.252 97.0904 100.885C97.623 101.519 97.0221 101.317 96.7233 101.853C96.4245 102.386 96.5219 102.886 96.7233 103.653C96.9247 104.419 97.0221 103.854 96.9897 104.653C96.9572 105.452 96.3563 104.988 95.9892 105.887C95.6222 106.787 96.5544 106.787 97.1878 106.521C97.8212 106.254 98.9223 105.988 99.6206 106.972C100.319 107.956 102.021 106.92 102.953 106.621C103.885 106.323 103.752 106.154 105.587 106.823C107.419 107.489 109.888 105.751 109.888 105.751C109.888 105.751 109.287 104.572 109.488 103.922C109.69 103.273 109.514 103.497 109.138 103.022C108.764 102.548 109.261 102.448 109.437 101.973C109.612 101.499 109.537 101.499 109.037 101.074C108.537 100.648 108.962 100.898 109.511 100.573C109.511 100.573 109.524 99.3748 109.537 97.9651L109.54 97.9618Z" fill="#683C11"/>
<path d="M97.8741 82.4198C97.7734 82.4036 97.3089 82.3711 97.1238 82.6374C96.9386 82.9038 96.825 83.1214 96.9224 83.3033C97.0198 83.4852 99.9237 88.3184 100.037 88.3347C100.151 88.3509 100.378 88.4354 100.378 88.4354L100.453 88.8869H104.136L104.205 88.3704C104.205 88.3704 104.637 88.2697 104.737 88.0553C104.838 87.841 106.069 84.4564 106.553 84.0731C107.037 83.6898 107.787 82.8063 107.953 82.7739C108.119 82.7414 108.021 82.2574 107.703 82.1892C107.385 82.121 107.32 82.056 107.138 82.1892C106.956 82.3224 105.77 83.8393 105.286 84.9891C104.802 86.1389 104.185 87.4707 104.185 87.4707L104.052 87.3375L100.469 87.3537L100.378 87.5194C100.378 87.5194 98.8355 83.9692 98.4847 83.4527C98.134 82.9363 97.8676 82.4198 97.8676 82.4198H97.8741Z" fill="#DBDBDB"/>
</svg>
