<svg  viewBox="0 0 360 490" fill="none" xmlns="http://www.w3.org/2000/svg">
<path d="M708.925 -12.934C753.204 -15.0971 796.084 36.8072 928 9.76875C923.395 90.3016 902.76 216.633 900.68 222.175C866.854 312.335 -551.544 143.876 -539.929 62.0432C-530.446 -4.77239 -258.602 -34.4682 -72.102 52.7632C-66.0518 55.5931 62.5428 33.6457 143.733 9.76875C224.923 -14.1083 219.776 45.5522 328.596 30.4107C437.416 15.2691 426.65 12.855 462.341 1.7385C523.519 -17.3161 664.646 -10.7709 708.925 -12.934Z" fill="#CAFC8C"/>
<path d="M-540 28.0416V490H113.972H900V39.0628C900 39.0628 889.516 39.0627 758.828 9.36999C628.139 -20.3228 596.836 29.1652 544.247 39.0628C491.658 48.9603 451.685 -3.89812 329.5 28.0416C224.322 62.1749 268.354 28.0416 132.63 28.0416C-3.09485 28.0416 -79.5431 40.1327 -137.251 28.0416C-194.958 15.9505 -247.547 17.0206 -359.578 28.0416C-471.608 39.0627 -416.149 28.473 -540 28.0416Z" fill="#B8F36F"/>
</svg>
