<svg  viewBox="0 0 1440 343" fill="none" xmlns="http://www.w3.org/2000/svg">
<path d="M1248.93 0.0660096C1293.2 -2.09706 1336.08 49.8072 1468 22.7687C1463.39 103.302 1442.76 229.633 1440.68 235.175C1406.85 325.335 -11.5436 156.876 0.0709394 75.0432C9.55403 8.22761 281.398 -21.4682 467.898 65.7632C473.948 68.5931 602.543 46.6457 683.733 22.7687C764.923 -1.10825 759.776 58.5522 868.596 43.4107C977.416 28.2691 966.65 25.855 1002.34 14.7385C1063.52 -4.31614 1204.65 2.22908 1248.93 0.0660096Z" fill="#CAFC8C"/>
<path d="M0 42.4723V343H653.972H1440V54.0558C1440 54.0558 1429.52 54.0557 1298.83 22.8481C1168.14 -8.35963 1136.84 43.6532 1084.25 54.0558C1031.66 64.4583 991.685 8.90299 869.5 42.4723C764.322 78.3471 808.354 42.4723 672.63 42.4723C536.905 42.4723 460.457 55.1803 402.749 42.4723C345.042 29.7643 292.453 30.889 180.422 42.4723C68.3917 54.0557 123.851 42.9257 0 42.4723Z" fill="#B8F36F"/>
</svg>
