<svg width="307" height="56" viewBox="0 0 307 56" fill="none" xmlns="http://www.w3.org/2000/svg">
<path d="M49.9787 27.3394H62.7121V29.3176C62.7121 32.9722 61.551 35.938 59.2288 38.215C56.9067 40.492 53.9083 41.6265 50.2337 41.6186C46.3152 41.6186 43.0617 40.3371 40.4735 37.7741C37.912 35.1888 36.6305 32.0403 36.6289 28.3285C36.6273 24.6167 37.8971 21.4555 40.4381 18.8448C43.0011 16.2596 46.1695 14.9662 49.9433 14.9646C52.1959 14.9408 54.4176 15.4953 56.3997 16.5758C58.293 17.5874 59.8837 19.0917 61.0071 20.9327L56.7256 23.421C56.066 22.3207 55.1103 21.4322 53.9697 20.8588C52.7172 20.1936 51.3208 19.8522 49.9055 19.8649C47.4636 19.8649 45.4705 20.6721 43.9261 22.2865C42.3769 23.85 41.6023 25.864 41.6023 28.3285C41.6023 30.7453 42.3895 32.7466 43.9638 34.3324C45.5382 35.9182 47.6423 36.6999 50.2762 36.6777C52.1859 36.6777 53.7823 36.2503 55.0654 35.3954C56.3341 34.555 57.2591 33.2803 57.6702 31.806H49.9787V27.3394Z" fill="#152223"/>
<path d="M80.7751 38.8375C78.9378 40.6918 76.6644 41.619 73.9549 41.619C71.2455 41.619 68.9721 40.6918 67.1348 38.8375C65.2975 36.9832 64.3789 34.6887 64.3789 31.9541C64.3789 29.2434 65.2975 26.9608 67.1348 25.1065C68.4774 23.7427 70.1911 22.8121 72.0585 22.4328C73.926 22.0536 75.8629 22.2428 77.6236 22.9765C79.3843 23.7101 80.8894 24.9551 81.9479 26.5535C83.0064 28.1519 83.5705 30.0316 83.5688 31.9541C83.5938 33.2333 83.3588 34.504 82.8783 35.6879C82.3978 36.8718 81.682 37.9437 80.7751 38.8375ZM70.4363 35.5793C71.3829 36.4953 72.6436 37.0067 73.9549 37.0067C75.2663 37.0067 76.527 36.4953 77.4736 35.5793C77.9425 35.1047 78.31 34.5382 78.5537 33.9147C78.7974 33.2912 78.912 32.624 78.8906 31.9541C78.9125 31.2842 78.798 30.6169 78.5543 29.9933C78.3106 29.3698 77.9428 28.8033 77.4736 28.3289C76.527 27.413 75.2663 26.9016 73.9549 26.9016C72.6436 26.9016 71.3829 27.413 70.4363 28.3289C69.9814 28.8119 69.6254 29.3808 69.3888 30.0028C69.1521 30.6249 69.0394 31.288 69.0571 31.9541C69.0394 32.6203 69.1521 33.2834 69.3888 33.9054C69.6254 34.5275 69.9814 35.0964 70.4363 35.5793Z" fill="#152223"/>
<path d="M101.602 38.8375C99.7644 40.6918 97.491 41.619 94.7815 41.619C92.0721 41.619 89.7987 40.6918 87.9614 38.8375C86.121 36.9832 85.2016 34.6887 85.2031 31.9541C85.2031 29.2434 86.1226 26.9608 87.9614 25.1065C89.3039 23.7427 91.0177 22.8121 92.8851 22.4328C94.7525 22.0536 96.6895 22.2428 98.4502 22.9765C100.211 23.7101 101.716 24.9551 102.774 26.5535C103.833 28.1519 104.397 30.0316 104.395 31.9541C104.42 33.2332 104.185 34.5037 103.704 35.6875C103.224 36.8714 102.508 37.9434 101.602 38.8375ZM91.2628 35.5793C92.2095 36.4953 93.4701 37.0067 94.7815 37.0067C96.0929 37.0067 97.3536 36.4953 98.3002 35.5793C98.7686 35.1043 99.1359 34.5378 99.3795 33.9144C99.6232 33.291 99.7381 32.6239 99.7171 31.9541C99.7385 31.2843 99.6238 30.6171 99.3801 29.9937C99.1364 29.3702 98.7689 28.8037 98.3002 28.3289C97.3536 27.413 96.0929 26.9016 94.7815 26.9016C93.4701 26.9016 92.2095 27.413 91.2628 28.3289C90.8075 28.8116 90.4513 29.3804 90.2146 30.0026C89.9779 30.6247 89.8655 31.288 89.8837 31.9541C89.8655 32.6203 89.9779 33.2836 90.2146 33.9057C90.4513 34.5279 90.8075 35.0967 91.2628 35.5793Z" fill="#152223"/>
<path d="M120.719 24.9612V15.4775H125.397V41.1066H120.719V38.9472C119.34 40.73 117.381 41.6206 114.841 41.6191C112.396 41.6191 110.304 40.6919 108.564 38.8376C106.847 36.9563 105.989 34.6618 105.99 31.9542C105.992 29.2466 106.85 26.9649 108.564 25.109C110.307 23.2309 112.399 22.291 114.841 22.2894C117.381 22.2878 119.34 23.1784 120.719 24.9612ZM112.083 35.6867C112.565 36.1548 113.133 36.5221 113.756 36.7675C114.379 37.0129 115.044 37.1316 115.713 37.1167C116.376 37.1379 117.037 37.0219 117.655 36.776C118.273 36.5301 118.834 36.1594 119.305 35.6867C120.249 34.7095 120.722 33.4645 120.722 31.9518C120.722 30.4392 120.249 29.2061 119.305 28.2528C118.839 27.7717 118.28 27.3935 117.662 27.142C117.044 26.8905 116.381 26.7712 115.715 26.7917C115.043 26.7731 114.375 26.8933 113.75 27.1449C113.126 27.3966 112.56 27.7744 112.085 28.2551C111.141 29.2085 110.668 30.4415 110.668 31.9542C110.668 33.4669 111.14 34.7119 112.083 35.6891V35.6867Z" fill="#152223"/>
<path d="M149.991 41.1064H146.255L140.559 31.3057H132.908V41.1183H129.533V15.4773H141.357C142.398 15.4624 143.43 15.6626 144.391 16.0656C145.352 16.4685 146.221 17.0656 146.945 17.8203C147.694 18.5416 148.287 19.4116 148.686 20.3756C149.086 21.3396 149.283 22.3766 149.266 23.4213C149.272 25.054 148.749 26.6439 147.778 27.9499C146.842 29.2816 145.523 30.2914 144 30.8433L149.991 41.1064ZM141.357 18.6735H132.908V28.2192H141.357C141.957 28.2285 142.552 28.1093 143.102 27.8693C143.652 27.6294 144.146 27.2742 144.55 26.8273C144.988 26.3791 145.333 25.8467 145.563 25.2616C145.794 24.6766 145.905 24.0508 145.892 23.4213C145.907 22.7974 145.796 22.1768 145.565 21.5976C145.335 21.0185 144.989 20.493 144.55 20.0535C144.145 19.6086 143.651 19.2556 143.101 19.0177C142.55 18.7798 141.956 18.6625 141.357 18.6735Z" fill="#152223"/>
<path d="M168.82 33.4174H153.619C153.866 34.9135 154.655 36.2639 155.832 37.2071C156.993 38.1223 158.445 38.5799 160.186 38.5799C162.581 38.5799 164.322 37.6893 165.41 35.9081L168.095 37.4454C166.305 40.2054 163.644 41.5846 160.113 41.583C157.259 41.583 154.913 40.6797 153.076 38.8731C151.286 37.0188 150.391 34.7148 150.391 31.9611C150.391 29.1773 151.273 26.8828 153.038 25.0777C154.804 23.2473 157.087 22.332 159.886 22.332C162.545 22.332 164.71 23.2854 166.381 25.1922C168.078 27.0433 168.927 29.3091 168.929 31.9897C168.928 32.4677 168.892 32.9449 168.82 33.4174ZM159.896 25.3256C158.225 25.3256 156.828 25.8023 155.704 26.7557C154.58 27.7091 153.885 29.0025 153.619 30.6359H165.736C165.47 28.9516 164.805 27.6455 163.74 26.7176C162.674 25.7887 161.304 25.2926 159.896 25.3256Z" fill="#152223"/>
<path d="M180.863 22.3252C182.99 22.3252 184.695 23.0021 185.978 24.3559C187.261 25.7097 187.902 27.5497 187.9 29.8759V41.1162H184.743V30.0499C184.743 28.5865 184.345 27.4393 183.548 26.6082C182.751 25.7772 181.649 25.3625 180.242 25.3641C178.63 25.3641 177.351 25.8702 176.407 26.8823C175.462 27.8945 174.99 29.404 174.99 31.4109V41.1138H171.83V22.7995H174.99V25.4356C176.249 23.362 178.207 22.3252 180.863 22.3252Z" fill="#152223"/>
<path d="M208.976 33.4174H193.777C194.023 34.9143 194.812 36.2653 195.99 37.2071C197.151 38.1223 198.601 38.5799 200.343 38.5799C202.737 38.5799 204.478 37.6893 205.566 35.9081L208.251 37.4454C206.461 40.2054 203.801 41.5846 200.269 41.583C197.417 41.583 195.071 40.6797 193.232 38.8731C191.442 37.0188 190.547 34.7148 190.547 31.9611C190.547 29.1773 191.43 26.8828 193.197 25.0777C194.961 23.2473 197.244 22.332 200.045 22.332C202.706 22.332 204.87 23.2854 206.539 25.1922C208.238 27.0433 209.087 29.3091 209.085 31.9897C209.084 32.4677 209.048 32.9449 208.976 33.4174ZM200.052 25.3256C198.385 25.3256 196.988 25.8023 195.863 26.7557C194.737 27.7091 194.042 29.0033 193.777 30.6383H205.892C205.628 28.954 204.963 27.6479 203.899 26.7199C202.832 25.7904 201.461 25.2936 200.052 25.3256Z" fill="#152223"/>
<path d="M228.64 36.75L232.631 22.7998H235.937L230.314 41.107H227.081L222.83 27.5595L218.579 41.107H215.372L209.74 22.7998H213.046L217.026 36.7143L221.305 22.7998H224.353L228.64 36.75Z" fill="#152223"/>
<path d="M252.764 25.9479V22.7993H255.921V41.1065H252.764V37.958C251.217 40.3748 248.934 41.5832 245.916 41.5832C244.7 41.6057 243.494 41.3696 242.375 40.8904C241.256 40.4111 240.25 39.6995 239.421 38.8017C238.546 37.8976 237.857 36.8264 237.396 35.6507C236.935 34.4749 236.711 33.2183 236.736 31.9541C236.713 30.6959 236.938 29.4457 237.4 28.2765C237.861 27.1073 238.548 26.0426 239.421 25.1446C240.247 24.2407 241.252 23.5224 242.371 23.0366C243.49 22.5507 244.698 22.3083 245.916 22.325C248.934 22.325 251.217 23.5326 252.764 25.9479ZM246.308 38.5086C247.161 38.5314 248.011 38.3774 248.803 38.056C249.596 37.7346 250.314 37.2527 250.915 36.6399C251.517 36.0222 251.99 35.2897 252.307 34.4851C252.625 33.6805 252.78 32.82 252.764 31.9541C252.787 31.0927 252.634 30.2357 252.316 29.436C251.998 28.6363 251.521 27.9107 250.915 27.304C249.693 26.0839 248.044 25.3995 246.325 25.3995C244.607 25.3995 242.957 26.0839 241.736 27.304C241.129 27.9107 240.653 28.6363 240.335 29.436C240.017 30.2357 239.864 31.0927 239.887 31.9541C239.871 32.82 240.026 33.6805 240.343 34.4851C240.661 35.2897 241.134 36.0222 241.736 36.6399C242.331 37.2503 243.044 37.731 243.83 38.0524C244.616 38.3738 245.46 38.529 246.308 38.5086Z" fill="#152223"/>
<path d="M269.998 22.3251C271.216 22.3084 272.424 22.5509 273.543 23.0367C274.662 23.5225 275.667 24.2408 276.492 25.1448C277.366 26.0427 278.053 27.1074 278.514 28.2766C278.975 29.4458 279.201 30.6961 279.177 31.9542C279.203 33.2184 278.979 34.4751 278.518 35.6508C278.057 36.8265 277.368 37.8977 276.492 38.8018C275.664 39.6996 274.658 40.4113 273.539 40.8905C272.42 41.3697 271.213 41.6058 269.998 41.5833C266.999 41.5833 264.716 40.3749 263.15 37.9581V41.1066H259.992V15.4775H263.15V25.948C264.716 23.5343 266.999 22.3267 269.998 22.3251ZM269.599 38.5087C270.447 38.529 271.29 38.3737 272.077 38.0523C272.863 37.7309 273.576 37.2503 274.171 36.6401C274.772 36.0224 275.246 35.2898 275.563 34.4852C275.881 33.6806 276.036 32.8201 276.02 31.9542C276.043 31.0931 275.891 30.2364 275.574 29.4367C275.257 28.637 274.781 27.9113 274.176 27.3041C272.954 26.084 271.305 25.3996 269.586 25.3996C267.867 25.3996 266.218 26.084 264.996 27.3041C264.39 27.9109 263.913 28.6364 263.595 29.4361C263.277 30.2359 263.125 31.0928 263.147 31.9542C263.131 32.8201 263.286 33.6806 263.604 34.4852C263.921 35.2898 264.395 36.0224 264.996 36.6401C265.596 37.2522 266.314 37.7338 267.106 38.0551C267.898 38.3765 268.746 38.5309 269.599 38.5087Z" fill="#152223"/>
<path d="M285.38 41.1069H282.223V14.3838H285.38V41.1069Z" fill="#152223"/>
<path d="M306.89 33.4174H291.689C291.936 34.9135 292.725 36.2639 293.902 37.2071C295.064 38.1223 296.515 38.5799 298.257 38.5799C300.651 38.5799 302.392 37.6893 303.48 35.9081L306.165 37.4454C304.375 40.2054 301.715 41.5846 298.183 41.583C295.328 41.583 292.982 40.6797 291.146 38.8731C289.356 37.0188 288.461 34.7148 288.461 31.9611C288.461 29.1773 289.343 26.8828 291.108 25.0777C292.875 23.2473 295.157 22.332 297.957 22.332C300.616 22.332 302.781 23.2854 304.451 25.1922C306.15 27.0433 306.999 29.3091 306.999 31.9897C306.998 32.4677 306.962 32.9449 306.89 33.4174ZM297.966 25.3256C296.296 25.3256 294.899 25.8023 293.777 26.7557C292.654 27.7091 291.958 29.0033 291.689 30.6383H303.806C303.539 28.954 302.873 27.6479 301.811 26.7199C300.745 25.7902 299.375 25.2933 297.966 25.3256Z" fill="#152223"/>
<path d="M15.5695 43.9925L27.3631 37.0257L21.2939 33.5316C20.7073 33.1953 20.0437 33.0201 19.3691 33.0235C18.6945 33.0268 18.0326 33.2086 17.4493 33.5507C16.8616 33.8945 16.3744 34.3892 16.0372 34.9844C15.7 35.5796 15.5248 36.2543 15.5294 36.9399L15.5695 43.9925Z" fill="#5ADA2E"/>
<path d="M15.4828 12L27.3141 18.912L21.2662 22.4275C20.681 22.7671 20.0178 22.9459 19.3428 22.9459C18.6677 22.9459 18.0045 22.7671 17.4193 22.4275C16.8299 22.0858 16.3403 21.5931 15.9999 20.9993C15.6594 20.4054 15.4803 19.7315 15.4805 19.0454L15.4828 12Z" fill="#5ADA2E"/>
<path d="M28.6551 34.7137L28.537 20.916L22.5222 24.4912C21.9408 24.8371 21.4594 25.3308 21.1259 25.9229C20.7924 26.515 20.6183 27.185 20.6211 27.8661C20.6249 28.5517 20.8077 29.2242 21.1509 29.8159C21.4942 30.4076 21.9859 30.8975 22.5765 31.2363L28.6551 34.7137Z" fill="#5ADA2E"/>
<path d="M13.0865 12L1.29297 18.9858L7.35976 22.468C7.94676 22.8043 8.6108 22.9795 9.28575 22.9761C9.9607 22.9728 10.623 22.791 11.2067 22.449C11.7943 22.1044 12.2813 21.6092 12.6184 21.0137C12.9556 20.4181 13.1309 19.7432 13.1266 19.0574L13.0865 12Z" fill="url(#paint0_linear_501_33)"/>
<path d="M13.1707 44.0003L1.3418 37.0883L7.3897 33.5703C7.97505 33.2312 8.63822 33.0527 9.31317 33.0527C9.98812 33.0527 10.6513 33.2312 11.2366 33.5703C11.826 33.9115 12.3157 34.4037 12.6561 34.9972C12.9966 35.5906 13.1757 36.2643 13.1755 36.9501L13.1707 44.0003Z" fill="#5ADA2E"/>
<path d="M0 21.2949L0.115715 35.0807L6.14 31.5079C6.71897 31.1603 7.19788 30.666 7.52926 30.074C7.86064 29.482 8.03299 28.8129 8.02923 28.133C8.02592 27.447 7.84313 26.774 7.49936 26.1822C7.15558 25.5904 6.66302 25.1008 6.07152 24.7628L0 21.2949Z" fill="#5ADA2E"/>
<defs>
<linearGradient id="paint0_linear_501_33" x1="5.5" y1="14" x2="11.5" y2="22.5" gradientUnits="userSpaceOnUse">
<stop stop-color="#5ADA2E"/>
<stop offset="1" stop-color="#5ADA2E" stop-opacity="0"/>
</linearGradient>
</defs>
</svg>
