<svg  viewBox="0 0 1440 192" fill="none" xmlns="http://www.w3.org/2000/svg">
<path d="M1242.33 191.955C1287.41 193.038 1314.68 174.093 1449 187.625C1444.31 147.321 1437.05 65.6982 1434.93 62.9243C1400.49 17.8026 -43.7539 102.11 -31.9277 143.065C-22.2718 176.504 254.526 191.365 444.424 147.709C450.585 146.293 589.412 165.932 672.081 177.882C754.751 189.832 741.621 151.318 852.424 158.896C963.227 166.474 924.777 165.391 949.232 180.588C973.687 195.786 1197.24 190.872 1242.33 191.955Z" fill="#CAFC8C"/>
<path d="M-2 165.746V0H652.88H1440V159.357C1440 159.357 1429.5 159.357 1298.63 176.569C1167.76 193.78 1136.41 165.094 1083.75 159.357C1031.09 153.62 962.156 177.871 839.802 159.357C741.5 151 807.477 165.746 671.564 165.746C535.651 165.746 459.096 158.737 401.309 165.746C343.521 172.754 290.859 172.134 178.673 165.746C66.4867 159.357 122.023 165.496 -2 165.746Z" fill="#B8F36F"/>
</svg>
