<!-- width="431" height="368" -->
<svg  viewBox="0 0 431 368" fill="none" xmlns="http://www.w3.org/2000/svg">
<path fill-rule="eveonodd" clip-rule="evenodd" d="M191.405 339.654C226.239 340.45 243.311 343.685 264.671 346.303C281.412 348.356 293.257 350.463 299.819 352.945C309.504 356.609 334.733 360.689 310.846 363.772C286.063 366.971 233.743 367.681 191.405 366.939C154.228 366.287 138.42 362.599 110.68 360.263C80.8448 357.75 33.4927 356.56 25.261 352.945C16.1439 348.94 34.8735 344.527 68.6942 341.821C101.176 339.223 149.4 338.693 191.405 339.654Z" fill="#99DA49"/>
<path fill-rule="evenodd" clip-rule="evenodd" d="M328.448 253.894C303.407 283.828 318.831 340.094 285.723 360.767C253.937 380.613 213.188 351.453 175.762 349.229C134.205 346.759 88.0025 369.537 53.0257 346.938C18.264 324.479 -2.39467 277.66 1.22312 236.459C4.84795 195.178 62.4688 176.968 71.5015 136.529C79.4196 101.08 23.3483 59.9509 46.8356 32.2516C70.7913 3.99992 119.052 39.2154 156.036 36.835C179.32 35.3363 200.035 25.2282 222.963 20.9153C256.224 14.6586 292.132 -10.9866 321.603 5.69064C349.797 21.6455 337.979 67.4931 354.504 95.3533C375.22 130.28 436.531 148.311 429.95 188.357C423.304 228.791 354.734 222.471 328.448 253.894Z" fill="#D8FFA7"/>
<mask id="mask0_285_430" style="mask-type:alpha" maskUnits="userSpaceOnUse" x="0" y="0" width="431" height="368">
<path fill-rule="evenodd" clip-rule="evenodd" d="M328.448 253.894C303.407 283.828 318.831 340.094 285.723 360.767C253.937 380.613 213.188 351.453 175.762 349.229C134.205 346.759 88.0025 369.537 53.0257 346.938C18.264 324.479 -2.39467 277.66 1.22312 236.459C4.84795 195.178 62.4688 176.968 71.5015 136.529C79.4196 101.08 23.3483 59.9509 46.8356 32.2516C70.7913 3.99992 119.052 39.2154 156.036 36.835C179.32 35.3363 200.035 25.2282 222.963 20.9153C256.224 14.6586 292.132 -10.9866 321.603 5.69064C349.797 21.6455 337.979 67.4931 354.504 95.3533C375.22 130.28 436.531 148.311 429.95 188.357C423.304 228.791 354.734 222.471 328.448 253.894Z" fill="#C4C4C4"/>
</mask>
<g mask="url(#mask0_285_430)">
<path fill-rule="evenodd" clip-rule="evenodd" d="M325.237 385.917C327.233 420.83 331.618 457.845 302.757 485.991C272.151 515.84 221.989 539.553 173.327 534.068C128.087 528.969 114.14 487.8 85.4571 461.499C63.9469 441.775 37.2675 426.339 28.7217 401.472C17.563 369.002 -2.14641 327.316 31.3129 303.948C64.9503 280.456 116.291 311.25 161.506 308.736C207.138 306.2 253.38 271.505 291.523 289.484C330.257 307.743 323.252 351.188 325.237 385.917Z" fill="#B8F36F"/>
<path d="M140.926 111.639C141.7 103.507 148.826 97.3743 156.955 98.1804C201.476 102.595 231.247 108.586 274.432 124.439C281.905 127.182 285.641 135.504 283.046 143.03C264.984 195.42 257.273 237.985 246.929 306.939C245.723 314.979 238.184 320.518 230.163 319.188C185.636 311.806 155.974 305.276 113.169 292.977C105.376 290.738 100.961 282.527 103.317 274.768C123.282 209.021 135.683 166.746 140.926 111.639Z" fill="#F7F7F7"/>
<path d="M190.581 249.747C191.62 258.09 193.87 265.666 197.078 257.86C200.286 250.054 210.362 241.294 203.433 239.738C201.743 239.359 201.272 241.483 200.416 242.988C198.268 246.764 202.092 249.419 201.466 254.062C200.965 257.776 205.085 256.468 207.207 255.35C207.949 254.824 209.784 254.806 211.183 258.946C212.933 264.122 218.23 267.39 222.816 263.637C227.402 259.883 231.042 255.709 232.553 259.167" stroke="#99DA49" stroke-width="1.62326" stroke-linecap="round" stroke-linejoin="round"/>
<rect x="234.277" y="131.038" width="40.1756" height="18.2616" transform="rotate(12.6501 234.277 131.038)" fill="#D9D9D9"/>
<rect x="126.248" y="239.883" width="38.5523" height="4.46395" transform="rotate(12.6501 126.248 239.883)" fill="#D9D9D9"/>
<rect x="132.275" y="220.44" width="36.9291" height="11.3628" transform="rotate(12.6501 132.275 220.44)" fill="#D9D9D9"/>
<path d="M177.546 114.038C179.999 106.246 188.249 101.735 196.031 104.22C238.65 117.827 266.515 129.898 305.442 154.413C312.178 158.655 314.096 167.573 309.988 174.392C281.391 221.86 264.969 261.879 240.465 327.157C237.607 334.769 229.079 338.613 221.512 335.638C179.506 319.128 151.859 306.552 112.562 285.592C105.408 281.776 102.804 272.825 106.727 265.729C139.971 205.594 160.92 166.838 177.546 114.038Z" fill="white"/>
<path d="M197.291 259.466C196.566 267.842 197.187 275.721 201.953 268.756C206.719 261.791 218.401 255.326 211.949 252.359C210.375 251.636 209.472 253.615 208.32 254.908C205.432 258.153 208.617 261.547 207.036 265.957C205.772 269.485 210.074 269.066 212.383 268.415C213.218 268.055 215.016 268.42 215.521 272.761C216.152 278.188 220.65 282.49 225.918 279.776C231.187 277.061 235.617 273.739 236.374 277.437" stroke="#99DA49" stroke-width="1.62326" stroke-linecap="round" stroke-linejoin="round"/>
<rect x="264.795" y="152.487" width="40.1756" height="18.2616" transform="rotate(24.6938 264.795 152.487)" fill="#D9D9D9"/>
<rect x="178.596" y="148.585" width="117.686" height="4.46395" transform="rotate(24.6938 178.596 148.585)" fill="#D9D9D9"/>
<rect x="136.434" y="236.396" width="38.5523" height="4.46395" transform="rotate(24.6938 136.434 236.396)" fill="#D9D9D9"/>
<rect x="146.385" y="218.639" width="36.9291" height="11.3628" transform="rotate(24.6938 146.385 218.639)" fill="#D9D9D9"/>
<rect x="156.896" y="195.779" width="117.686" height="4.46395" transform="rotate(24.6938 156.896 195.779)" fill="#D9D9D9"/>
<rect x="162.32" y="183.981" width="117.686" height="4.46395" transform="rotate(24.6938 162.32 183.981)" fill="#D9D9D9"/>
<rect x="167.744" y="172.182" width="117.686" height="4.46395" transform="rotate(24.6938 167.744 172.182)" fill="#D9D9D9"/>
<rect x="173.172" y="160.384" width="103.483" height="4.46395" transform="rotate(24.6938 173.172 160.384)" fill="#D9D9D9"/>
<rect x="186.564" y="131.256" width="40.1756" height="4.86977" transform="rotate(24.6938 186.564 131.256)" fill="#D9D9D9"/>
<path fill-rule="evenodd" clip-rule="evenodd" d="M191.405 339.654C226.239 340.45 243.311 343.685 264.671 346.303C281.412 348.356 293.257 350.463 299.819 352.945C309.504 356.609 334.733 360.689 310.846 363.772C286.063 366.971 233.743 367.681 191.405 366.939C154.228 366.287 138.42 362.599 110.68 360.263C80.8448 357.75 33.4927 356.56 25.261 352.945C16.1439 348.94 34.8735 344.527 68.6942 341.821C101.176 339.223 149.4 338.693 191.405 339.654Z" fill="#99DA49"/>
<path d="M156.386 262.686C156.386 262.686 154.819 261.97 154.133 262.946C153.447 263.923 149.517 266.887 149.917 267.312C150.443 267.878 150.218 268.043 150.673 268.594C151.129 269.15 151.034 269.71 151.62 269.866C152.205 270.021 154.233 270.822 154.754 270.527C155.274 270.231 154.609 268.609 155.455 268.619C156.306 268.629 156.832 269.24 157.983 268.889C159.19 268.524 160.416 268.399 160.416 268.399L164.497 265.9C164.497 265.9 162.474 261.509 162.144 261.474C161.818 261.439 158.764 261.304 158.764 261.304C158.273 261.95 157.257 262.341 156.381 262.676L156.386 262.686Z" fill="#FFA734"/>
<path d="M190.996 220.139C190.996 220.139 195.602 215.733 195.928 216.153C196.253 216.574 199.553 220.624 199.387 221.736C199.222 222.847 191.387 226.928 191.387 226.928C191.387 226.928 191.422 220.234 190.996 220.134V220.139Z" fill="#FABB68"/>
<path d="M185.774 209.645C185.729 210.301 185.164 220.234 190.506 220.234C195.848 220.234 197.205 219.343 197.625 217.375C198.046 215.408 199.408 212.033 198.517 210.581C197.625 209.129 196.173 207.677 193.925 207.487C191.677 207.297 189.99 207.672 188.538 208.048C187.086 208.423 185.774 209.64 185.774 209.64V209.645Z" fill="#FABB68"/>
<path d="M181.623 212.108C181.623 212.108 187.486 212.649 188.613 212.108C189.739 211.567 194.606 208.528 195.146 213.57C195.687 218.612 193.629 220.379 197.45 220.625C201.27 220.87 202.887 221.165 204.209 219.693C205.53 218.221 205.876 215.918 205.876 214.697C205.876 213.475 206.462 207.157 204.604 204.803C202.747 202.45 200.589 200.638 198.186 200.102C195.782 199.566 191.622 199.316 190.545 200.102C189.469 200.888 186.43 202.896 185.844 203.922C185.258 204.949 185.058 206.085 183.836 206.816C182.615 207.547 180.262 209.219 181.633 212.108H181.623Z" fill="#2A193D"/>
<path d="M192.271 212.704C192.271 212.704 193.633 208.553 196.577 211.387C198.375 213.114 194.65 217.28 194.65 217.28L192.271 212.704Z" fill="#FABB68"/>
<path d="M170.98 339.405C170.98 339.405 166.964 349.398 165.888 349.443C164.811 349.488 152.029 342.929 152.029 342.929C152.029 342.929 152.325 339.5 154.528 339.745C156.731 339.99 157.567 340.085 158.889 340.821C160.21 341.557 161.522 343.12 163.6 341.362C165.678 339.605 166.774 336.315 166.774 336.315L170.985 339.4L170.98 339.405Z" fill="#152223"/>
<path d="M206.498 342.869C206.498 342.869 206.798 347.139 206.052 348.226C205.306 349.312 203.293 351.34 202.327 351.34C201.361 351.34 199.493 349.748 198.602 350.834C197.711 351.921 198.156 354.239 198.156 354.239H212.916C212.916 354.239 213.066 350.113 212.616 348.556C212.165 346.999 212.02 341.642 212.02 341.642L206.503 342.874L206.498 342.869Z" fill="#152223"/>
<path d="M188.268 263.282C187.156 266.742 186.045 270.221 184.958 273.626C179.14 291.855 174.054 308.057 174.084 308.898C174.144 310.856 164.746 339.459 164.746 339.459C164.746 339.459 172.356 341.417 172.466 340.766C172.577 340.115 181.644 321.565 181.979 317.124C182.315 312.683 189.479 302.495 191.267 292.046C193.059 281.597 196.749 281.987 196.749 281.987C196.749 281.987 197.195 310.851 199.438 313.855C201.676 316.859 202.572 345.683 202.572 345.683H213.091C213.091 345.683 211.97 316.859 211.188 310.981C210.407 305.103 212.756 287.605 210.853 281.201C208.95 274.797 198.987 271.403 198.987 271.403L188.243 276.625L188.263 263.272L188.268 263.282Z" fill="#2A193D"/>
<path d="M197.549 301.698C202.686 308.197 209.59 312.147 209.375 315.387C209.115 319.307 212.059 329.23 207.873 335.238C205.54 338.588 204.433 343.559 202.576 345.687H213.09C213.09 345.687 211.968 316.864 211.187 310.986C210.647 306.925 211.598 297.327 211.613 289.667L196.828 285.722C196.933 289.632 197.144 295.99 197.544 301.698H197.549Z" fill="#152223"/>
<path d="M181.473 284.585C184.787 286.813 188.397 289.571 191.176 292.55C191.206 292.385 191.241 292.215 191.271 292.05C191.867 288.585 192.668 286.317 193.474 284.825L182.339 281.856C182.043 282.777 181.758 283.688 181.473 284.59V284.585Z" fill="#152223"/>
<path d="M186.489 298.013C184.822 301.538 181.948 313.819 179.335 317.083C176.721 320.348 173.327 331.973 170.974 333.931C169.787 334.922 167.384 336.464 165.296 337.756C164.946 338.828 164.74 339.458 164.74 339.458C164.74 339.458 172.35 341.416 172.461 340.765C172.571 340.114 181.638 321.564 181.973 317.123C182.269 313.233 187.806 304.922 190.375 295.895C189.163 295.519 187.581 295.7 186.484 298.013H186.489Z" fill="#152223"/>
<path d="M158.768 261.314L158.002 261.805C158.002 261.805 159.539 263.517 159.93 264.809C160.32 266.1 160.681 268.248 160.681 268.248L162.578 267.142V261.214L159.804 260.803L158.778 261.309L158.768 261.314Z" fill="white"/>
<path d="M188.808 227.554C188.808 227.554 184.682 233.922 184.232 236.841C183.781 239.765 180.517 244.792 179.666 245.969C178.815 247.145 177.708 250.605 176.271 251.586C174.834 252.567 171.309 254.981 169.152 255.832C166.999 256.683 163.995 258.185 162.558 259.031C161.121 259.877 158.768 261.319 158.768 261.319C158.768 261.319 160.139 261.449 160.92 262.756C161.707 264.063 162.272 266.852 162.012 267.437C161.752 268.023 181.228 259.817 181.228 259.817C181.228 259.817 183.321 258.736 183.486 259.306C183.836 260.538 184.888 264.318 183.19 270.121C180.707 278.612 177.478 289.802 177.478 289.802C177.478 289.802 198.015 290.473 204.154 289.026C210.292 287.579 214.082 287.054 214.212 286.533C214.342 286.012 211.273 273.746 208.139 268.258C205.005 262.771 205.43 262.761 204.905 256.883C204.384 251.005 205.59 246.89 206.767 243.465C207.944 240.036 208.63 237.297 208.529 235.875C208.429 234.453 205.691 230.538 205.2 229.752C204.709 228.966 202.261 226.422 201.675 225.636C201.089 224.85 199.387 221.751 199.387 221.751" fill="#008D36"/>
<path d="M189.495 224.024C189.495 224.024 189.365 227.714 189.265 228.63C189.164 229.546 184.043 246.394 184.238 250.309C184.433 254.225 185.119 254.375 185.119 254.375C185.119 254.375 187.713 241.983 189.77 234.884C191.828 227.784 191.162 226.657 193.625 224.89C196.089 223.123 199.393 222.146 199.393 222.146C199.393 222.146 199.764 219.308 198.978 219.308C198.192 219.308 189.49 224.024 189.49 224.024H189.495Z" fill="#F6F6F6"/>
<path d="M186.041 213.109C185.996 212.994 185.826 213.024 185.821 213.149C185.801 213.925 185.696 215.272 185.245 215.713C184.865 216.088 184.559 216.358 184.369 216.519C184.294 216.584 184.334 216.709 184.434 216.719C185.11 216.784 186.822 216.924 187.098 216.689C187.363 216.464 186.472 214.161 186.041 213.104V213.109Z" fill="#FABB68"/>
<path d="M204.905 256.873C204.384 250.995 205.591 246.88 206.768 243.455C207.944 240.025 208.63 237.287 208.53 235.865C208.43 234.443 205.691 230.528 205.201 229.742C205.1 229.581 204.92 229.351 204.69 229.076C204.099 236.506 202.502 254.35 200.529 259.311C198.016 265.63 192.724 282.663 186.49 286.267C184.247 287.564 181.954 288.806 179.932 289.862C185.564 289.987 199.323 290.163 204.154 289.021C210.292 287.574 214.083 287.049 214.213 286.528C214.343 286.007 211.274 273.741 208.14 268.253C205.005 262.766 205.431 262.756 204.905 256.878V256.873Z" fill="#006D29"/>
<path d="M198.807 260.618C198.807 260.618 194.841 261.279 194.641 262.575C194.441 263.872 193.71 264.022 193.59 265.219C193.469 266.416 193.514 269.605 196.198 270.02C198.882 270.436 199.518 269.36 200.053 267.427C200.589 265.494 202.772 262.555 202.772 262.555C202.772 262.555 200.053 260.327 199.588 260.448C199.122 260.568 198.802 260.618 198.802 260.618H198.807Z" fill="#FABB68"/>
<path d="M198.131 260.518L198.121 260.533L197.791 260.868C197.791 260.868 199.308 261.714 199.959 262.43C200.47 262.986 201.12 263.892 201.386 264.263C201.446 264.343 201.566 264.343 201.621 264.263L202.387 263.191C202.417 263.146 202.422 263.091 202.402 263.046L200.7 259.396C200.67 259.331 200.595 259.296 200.525 259.316L198.702 259.872C198.672 259.882 198.652 259.897 198.632 259.917L198.126 260.528L198.131 260.518Z" fill="white"/>
<path d="M204.691 229.071C205.768 229.446 213.663 244.837 214.229 247.371C214.775 249.824 214.489 251.746 214.124 252.858C213.789 254.375 202.303 264.258 201.873 263.923C201.482 263.622 199.95 261.139 198.128 260.528C197.086 260.178 205.988 251.776 207.065 251.09C208.141 250.405 204.616 245.017 204.616 245.017L199.399 238.258L204.696 229.066L204.691 229.071Z" fill="#008D36"/>
<path d="M214.124 252.858C214.489 251.746 214.774 249.824 214.229 247.371C214.109 246.83 213.658 245.708 213.007 244.276C212.912 247.566 212.727 251.827 212.401 252.252C211.861 252.953 210.048 254.67 207.354 256.578C205.377 257.98 202.508 260.774 201.041 262.941C201.437 263.427 201.727 263.818 201.867 263.928C202.303 264.263 213.783 254.375 214.119 252.863L214.124 252.858Z" fill="#006D29"/>
<path d="M131.412 218.963C131.412 218.963 127.051 224.79 127.127 226.112C127.202 227.434 122.205 223.639 122.155 223.418C122.105 223.198 122.45 219.403 124.483 216.294C126.516 213.185 131.412 218.963 131.412 218.963Z" fill="#FABB68"/>
<path d="M133.444 278.081C133.394 278.277 132.708 289.447 135.011 289.006C137.314 288.565 136.874 286.653 136.433 283.914C135.993 281.175 135.647 277.791 135.747 277.45C135.847 277.11 133.444 278.086 133.444 278.086V278.081Z" fill="#FABB68"/>
<path d="M114.732 277.396C114.732 277.396 117.426 303.06 117.621 305.313C117.816 307.566 118.307 311.777 117.867 312.413C117.426 313.049 114.292 323.483 114.147 329.651C114.001 335.819 113.02 345.763 112.089 347.53C111.158 349.298 111.548 353.018 111.548 353.018C111.548 353.018 121.832 353.458 121.982 353.018C122.132 352.577 123.254 349.738 120.27 349.738C117.286 349.738 117.476 349.102 117.381 348.416C117.286 347.73 118.803 336.515 118.803 336.515V352.482L132.907 352.677C132.907 352.677 134.669 348.366 129.087 348.562C123.504 348.757 124.385 346.409 124.09 344.546C123.794 342.684 125.071 329.165 126.148 326.622C127.224 324.079 128.791 313.79 128.891 311.437C128.991 309.084 131.98 287.65 132.221 285.867C133.643 275.483 135.16 278.227 135.26 276.855C135.36 275.483 114.737 277.396 114.737 277.396H114.732Z" fill="#2A193D"/>
<path d="M124.974 283.193C127.768 284.985 128.238 285.476 129.445 287.779C130.221 289.261 130.902 291.083 131.333 292.325C131.788 289.011 132.144 286.437 132.224 285.866C133.646 275.482 135.163 278.226 135.263 276.854C135.363 275.482 114.74 277.395 114.74 277.395C114.74 277.395 114.815 278.106 114.941 279.298C115.892 279.968 116.733 280.464 117.289 280.579C119.442 281.02 122.185 281.4 124.979 283.193H124.974Z" fill="#152223"/>
<path d="M121.985 353.017C122.015 352.932 122.08 352.751 122.145 352.526L132.91 352.676C132.91 352.676 134.672 348.365 129.089 348.561C123.507 348.756 124.388 346.408 124.093 344.545C123.797 342.683 125.074 329.165 126.15 326.621C126.436 325.945 126.756 324.724 127.077 323.252C126.791 323.512 126.431 323.908 125.615 324.859C124.098 326.621 124.448 320.403 123.372 322.215C122.295 324.028 118.811 333.921 118.415 334.707C118.025 335.493 116.307 337.791 115.917 338.627C115.661 339.173 114.244 340.69 113.233 341.862C112.888 344.61 112.492 346.798 112.097 347.544C111.165 349.307 111.556 353.032 111.556 353.032C111.556 353.032 121.84 353.472 121.99 353.032L121.985 353.017ZM117.379 348.41C117.279 347.725 118.801 336.509 118.801 336.509V349.657C117.359 349.467 117.459 348.956 117.379 348.41Z" fill="#152223"/>
<path d="M131.412 218.963C131.412 218.963 127.051 224.79 127.127 226.112C127.202 227.434 122.205 223.639 122.155 223.418C122.105 223.198 122.45 219.403 124.483 216.294C126.516 213.185 131.412 218.963 131.412 218.963Z" fill="#FABB68"/>
<path d="M129.061 222.312C130.197 220.584 131.409 218.962 131.409 218.962C131.409 218.962 129.576 216.804 127.689 215.833C127.438 215.728 127.188 215.623 126.933 215.518C125.996 215.222 125.1 215.337 124.479 216.294C124.179 216.754 123.924 217.225 123.693 217.7C125.381 219.413 127.288 221.145 129.066 222.312H129.061Z" fill="#F39200"/>
<path d="M128.398 204.433C128.398 204.433 134.862 202.931 135.192 211.292C135.523 219.653 135.257 220.825 131.402 220.825C127.547 220.825 122.65 217.951 122.846 211.682C123.041 205.414 125.264 204.758 128.398 204.433Z" fill="#FABB68"/>
<path d="M122.129 217.396C122.129 217.396 113.998 230.032 113.608 234.243C113.217 238.454 114.785 258.536 112.041 267.252C109.297 275.969 108.221 278.623 108.221 278.623L136.434 279.209L133.985 241.202C133.985 241.202 132.809 228.075 130.751 223.764C128.693 219.453 122.129 217.396 122.129 217.396Z" fill="#008D36"/>
<path d="M134.059 241.002C134.059 241.002 132.883 227.874 130.825 223.563C128.767 219.253 122.203 217.195 122.203 217.195C122.203 217.195 121.898 217.67 121.402 218.467L121.512 218.572C121.512 218.572 125.643 221.405 127.08 222.322C128.517 223.238 131.18 223.684 131.661 228.165C132.172 232.951 133.444 241.883 133.013 245.618C132.427 245.953 133.178 249.708 134.885 254.525L134.054 241.002H134.059Z" fill="white"/>
<path d="M148.809 261.804C149.07 262 152.86 262.425 154.297 263.667C155.734 264.908 157.987 266.801 157.691 267.747C157.396 268.694 155.864 271.012 155.078 270.391C154.292 269.77 152.564 268.759 152.109 267.777C151.653 266.796 150.376 267.257 149.105 266.796C147.833 266.335 148.809 261.799 148.809 261.799V261.804Z" fill="#FABB68"/>
<path d="M131.411 252.758L151.127 261.965L149.365 269.31C149.365 269.31 132.027 264.999 130.069 261.475C128.112 257.95 131.416 252.758 131.416 252.758H131.411Z" fill="#008D36"/>
<path d="M130.945 210.636C130.945 210.636 137.669 208.678 138.405 207.452C139.141 206.225 139.517 205.344 139.517 205.344C139.517 205.344 138.635 205.604 138.585 205.409C138.535 205.214 139.612 204.102 139.401 203.171C139.191 202.24 138.045 204.853 137.329 203.987C136.613 203.121 133.068 201.944 130.389 201.619C127.711 201.294 125.428 201.344 124.121 202.19C122.814 203.036 120.496 205.454 120.301 207.462C120.105 209.47 120.156 213.34 121.117 214.336C122.078 215.332 122.113 218.321 123.27 216.734C124.426 215.147 123.84 213.91 125.358 213.715C126.875 213.52 128.542 212.689 128.837 213.57C129.133 214.451 129.138 212.118 129.859 211.382C130.58 210.646 130.94 210.631 130.94 210.631L130.945 210.636Z" fill="#2A193D"/>
<path d="M134.69 212.108C135.511 213.199 136.247 214.291 136.433 215.377C135.672 215.633 134.921 215.638 134.18 215.377L134.69 212.108Z" fill="#FABB68"/>
<path d="M130.656 262.191C129.349 261.114 126.64 258.375 124.743 258.375C122.845 258.375 123.361 259.091 123.361 259.091C123.361 259.091 123.826 261.835 125.849 265.951C127.872 270.071 126.765 270.842 126.37 275.088C126.21 276.805 126.931 278.097 127.842 279.023L136.428 279.203L135.507 264.894C133.94 264.108 131.957 263.262 130.651 262.186L130.656 262.191Z" fill="#006D29"/>
<path d="M121.935 216.009C122.275 216.965 122.561 217.716 123.271 216.745C124.433 215.162 123.842 213.921 125.359 213.725C126.876 213.53 128.544 212.699 128.839 213.58C129.134 214.461 129.139 212.128 129.86 211.392C130.586 210.656 130.942 210.641 130.942 210.641C130.942 210.641 137.666 208.684 138.402 207.457C139.138 206.23 139.513 205.349 139.513 205.349C139.513 205.349 138.632 205.61 138.582 205.414C138.532 205.219 139.608 204.108 139.398 203.176C139.268 202.601 138.777 203.387 138.252 203.857C136.93 205.935 132.068 207.392 130.656 208.333C127.717 210.291 125.409 212.299 123.887 213.836C122.991 214.742 122.405 215.473 121.93 216.004L121.935 216.009Z" fill="#152223"/>
</g>
</svg>
