<svg  viewBox="0 0 235 206" fill="none" xmlns="http://www.w3.org/2000/svg">
<path d="M82.9627 149.879C79.7425 150.104 24.9745 154.06 24.8635 160.802C24.781 165.681 53.3499 170.177 70.5484 171.976C97.1314 174.758 113.143 172.106 133.118 171.23C171.1 169.568 184.605 185.456 212.074 176.941C219.205 174.729 231.461 169.866 230.944 166.018C229.989 158.908 175.589 163.105 175.329 159.561C175.192 157.734 189.577 156.16 189.482 154.098C189.333 150.897 154.488 150.041 136.348 149.628C111.294 149.06 98.7684 148.775 82.9659 149.876L82.9627 149.879Z" fill="#99DA49"/>
<mask id="mask0_394_1281" style="mask-type:alpha" maskUnits="userSpaceOnUse" x="0" y="0" width="213" height="166">
<path d="M140.026 8.16574C116.618 7.17154 104.925 46.4032 74.6914 50.3018C64.4757 51.6171 64.9393 47.2494 52.766 48.7183C38.6434 50.4247 17.8406 58.7385 6.83466 77.9494C-3.93393 96.7442 -1.11611 118.625 9.31178 131.597C20.0413 144.94 37.9284 147.25 73.7027 151.872C92.5031 154.299 98.1555 152.989 117.227 156.918C142.548 162.149 142.64 166.556 151.775 165.165C181.204 160.683 201.175 111.668 207.685 88.0868C213.689 66.343 212.217 51.821 211.622 47.1796C209.173 27.9212 199.119 0.85169 184.447 0.714849C175.532 0.633861 171.307 10.5507 157 11.5114C148.117 12.1118 147.072 8.46455 140.026 8.16574Z" fill="#D8FFA7"/>
</mask>
<g mask="url(#mask0_394_1281)">
<path d="M139.587 8.16574C116.178 7.17154 104.486 46.4032 74.2519 50.3018C64.0363 51.6171 64.4998 47.2494 52.3265 48.7183C38.2039 50.4247 17.4012 58.7385 6.39521 77.9494C-4.37339 96.7442 -1.55557 118.625 8.87232 131.597C19.6018 144.94 37.489 147.25 73.2633 151.872C92.0637 154.299 97.716 152.989 116.787 156.918C142.109 162.149 142.201 166.556 151.336 165.165C180.765 160.683 200.735 111.668 207.245 88.0868C213.249 66.343 211.778 51.821 211.183 47.1796C208.734 27.9212 198.68 0.85169 184.007 0.714849C175.093 0.633861 170.868 10.5507 156.561 11.5114C147.677 12.1118 146.633 8.46455 139.587 8.16574Z" fill="#D8FFA7"/>
<path d="M110.756 109.554H109.047L109.55 82.4243H110.145L110.756 109.554Z" fill="#DBDBDB"/>
<path d="M109.057 109.553H110.758L110.198 84.6631C110.217 90.5685 110.101 102.078 109.057 109.553Z" fill="#828282"/>
<path d="M109.812 82.8649C110.61 82.8649 111.258 82.2174 111.258 81.4186C111.258 80.6197 110.61 79.9722 109.812 79.9722C109.013 79.9722 108.365 80.6197 108.365 81.4186C108.365 82.2174 109.013 82.8649 109.812 82.8649Z" fill="#DBDBDB"/>
<path d="M108.857 82.5049C109.159 82.7717 109.573 82.9148 110.021 82.8491C110.625 82.764 111.116 82.2922 111.232 81.6928C111.294 81.3718 111.244 81.0701 111.124 80.8071C110.896 81.2557 110.366 82.0756 109.488 82.3115C109.252 82.3734 109.043 82.4392 108.861 82.5049H108.857Z" fill="#828282"/>
<path d="M110.83 79.6472L109.047 79.3417L109.878 76.5301L121.016 59.4248L121.229 60.3259L112.469 78.0732L110.83 79.6472Z" fill="#DBDBDB"/>
<path d="M111.191 82.9228L112.015 81.3179L114.448 82.9576L127.407 98.7248L126.483 98.6552L112.197 84.9609L111.191 82.9228Z" fill="#DBDBDB"/>
<path d="M86.4808 86.4812L105.655 81.5774L107.918 81.8017L108.846 83.3525L106.17 84.5514L85.9355 87.2276" fill="#DBDBDB"/>
<path d="M126.481 98.6546L127.405 98.7242L126.179 97.1889L125.619 96.5082C125.046 96.2723 123.959 95.8237 123.785 95.6729C123.538 95.464 113.019 85.0338 113.019 84.8288C113.019 84.6238 111.421 82.4697 111.421 82.4697L111.186 82.9261L112.191 84.9642L126.477 98.6585L126.481 98.6546Z" fill="#828282"/>
<path d="M109.074 79.3035L109.047 79.3886L110.83 79.6902L112.469 78.1162L121.229 60.3728L121.016 59.4717L112.21 77.7913L109.074 79.3035Z" fill="#828282"/>
<path d="M85.9355 87.2741L106.17 84.594L108.846 83.3951L107.918 81.8482L107.716 81.8289C107.156 82.4283 105.779 83.9172 105.779 84.0139C105.779 84.1261 89.3233 86.5084 86.1598 86.9686" fill="#828282"/>
<path d="M45.5732 112.922C68.8789 111.983 76.4105 113.297 91.4231 110.438C99.1357 108.969 98.3235 108.401 103.507 107.789C119.183 105.942 123.485 111.526 139.202 112.843C154.186 114.099 155.325 109.448 177.33 110.27C188.878 110.701 193.694 112.173 195.867 112.919C201.917 114.991 204.119 117.107 211.261 118.877C219.014 120.8 220.851 119.407 223.345 121.028C230.563 125.727 228.51 146.104 223.015 156.948C204.389 193.696 105.747 200.748 52.1943 157.941C37.1881 145.949 6.14101 140.657 10.9157 132.655C11.6549 131.415 25.4813 113.725 45.5732 112.919V112.922Z" fill="#CAFC8C"/>
<path d="M52.5037 119.807H49.7695L50.5739 76.3413H51.5292L52.5037 119.807Z" fill="#DBDBDB"/>
<path d="M49.7832 119.806H52.5058L51.6086 79.9224C51.6395 89.3819 51.4539 107.829 49.7793 119.806H49.7832Z" fill="#828282"/>
<path d="M50.9962 77.0445C52.2756 77.0445 53.3128 76.0073 53.3128 74.7279C53.3128 73.4485 52.2756 72.4114 50.9962 72.4114C49.7168 72.4114 48.6797 73.4485 48.6797 74.7279C48.6797 76.0073 49.7168 77.0445 50.9962 77.0445Z" fill="#DBDBDB"/>
<path d="M49.4668 76.4693C49.9502 76.8947 50.6115 77.1229 51.3309 77.0223C52.2977 76.887 53.0866 76.1289 53.2684 75.1698C53.3651 74.6594 53.2877 74.1721 53.0944 73.7544C52.727 74.4737 51.88 75.7886 50.4723 76.1638C50.0894 76.2643 49.7568 76.3687 49.4668 76.4693Z" fill="#828282"/>
<path d="M52.6198 71.8856L49.7695 71.4022L51.0999 66.8928L68.9439 39.4849L69.2842 40.9313L55.2534 69.3641L52.6198 71.8856Z" fill="#DBDBDB"/>
<path d="M53.2207 77.1382L54.5395 74.5625L58.4378 77.1923L79.2055 102.458L77.7243 102.346L54.8295 80.4061L53.2207 77.1382Z" fill="#DBDBDB"/>
<path d="M13.6181 82.8382L44.3365 74.9836L47.9641 75.3433L49.453 77.8223L45.1603 79.7444L12.7402 84.0371" fill="#DBDBDB"/>
<path d="M77.7243 102.345L79.2055 102.457L77.2447 99.9976L76.3475 98.907C75.4309 98.5241 73.6906 97.8087 73.4083 97.565C73.0138 97.2286 56.156 80.5177 56.156 80.189C56.156 79.8603 53.5958 76.4067 53.5958 76.4067L53.2207 77.1377L54.8334 80.4056L77.7243 102.349V102.345Z" fill="#828282"/>
<path d="M49.8082 71.3405L49.7695 71.472L52.6198 71.9593L55.2534 69.4377L69.2842 41.0011L68.9439 39.5547L54.8358 68.9118L49.8082 71.3405Z" fill="#828282"/>
<path d="M12.7402 84.1107L45.1603 79.8179L49.4492 77.8959L47.9602 75.413L47.6393 75.3821C46.742 76.3412 44.5338 78.7273 44.5338 78.8859C44.5338 79.0638 18.1661 82.8848 13.096 83.6195" fill="#828282"/>
<path d="M21.7427 127.326C36.4734 120.796 36.9203 120.33 62.1295 118.883C74.9276 118.151 81.4028 117.779 90.6001 118.554C119.854 121.015 121.142 130.387 138.271 129.645C163.347 128.557 168.55 108.125 190.742 111.273C192.735 111.555 206.938 113.798 216.069 126.336C222.316 134.918 225.523 147.402 221.862 157.951C214.717 178.544 184.394 183.166 169.556 185.428C150.403 188.347 135.489 185.333 105.663 179.305C61.0857 170.292 46.3015 160.111 37.7991 152.655C33.8334 149.182 1.19089 144.452 9.33169 133.925C12.6897 129.582 16.7243 129.55 21.7427 127.326Z" fill="#C2F97D"/>
<path d="M155.649 128.403H151.441L152.683 61.5483H154.149L155.649 128.403Z" fill="#DBDBDB"/>
<path d="M151.461 128.403H155.649L154.273 67.0625C154.319 81.6115 154.033 109.982 151.461 128.403Z" fill="#828282"/>
<path d="M153.324 62.6348C155.293 62.6348 156.889 61.0384 156.889 59.0691C156.889 57.0998 155.293 55.5034 153.324 55.5034C151.354 55.5034 149.758 57.0998 149.758 59.0691C149.758 61.0384 151.354 62.6348 153.324 62.6348Z" fill="#DBDBDB"/>
<path d="M150.979 61.7456C151.725 62.3992 152.742 62.7511 153.844 62.5964C155.333 62.3837 156.544 61.2235 156.826 59.7462C156.977 58.9572 156.857 58.2147 156.555 57.5688C155.991 58.6749 154.691 60.6937 152.525 61.2738C151.938 61.4285 151.427 61.5909 150.979 61.7456Z" fill="#828282"/>
<path d="M155.831 54.699L151.441 53.9526L153.491 47.0184L180.934 4.86426L181.456 7.08799L159.876 50.82L155.831 54.699Z" fill="#DBDBDB"/>
<path d="M156.738 62.7737L158.773 58.8135L164.767 62.8549L196.704 101.718L194.426 101.544L159.217 67.8012L156.738 62.7737Z" fill="#DBDBDB"/>
<path d="M95.8341 71.5419L143.085 59.4641L148.662 60.0133L150.952 63.8304L144.354 66.785L94.4883 73.3866" fill="#DBDBDB"/>
<path d="M194.426 101.545L196.704 101.715L193.687 97.9286L192.306 96.2502C190.895 95.6623 188.222 94.5601 187.785 94.1889C187.178 93.6706 161.252 67.9682 161.252 67.4654C161.252 66.9627 157.318 61.6489 157.318 61.6489L156.742 62.7743L159.221 67.8019L194.43 101.548L194.426 101.545Z" fill="#828282"/>
<path d="M151.503 53.8561L151.441 54.061L155.831 54.8074L159.876 50.9323L181.456 7.19642L180.934 4.97656L159.234 50.1241L151.503 53.8561Z" fill="#828282"/>
<path d="M94.4883 73.4983L144.354 66.8967L150.952 63.9382L148.662 60.1211L148.167 60.0708C146.79 61.5481 143.391 65.2182 143.391 65.458C143.391 65.7326 102.838 71.611 95.0413 72.7364" fill="#828282"/>
<path d="M79.9998 148.499C76.7796 148.725 22.0116 152.681 21.9006 159.423C21.8181 164.302 50.3871 168.797 67.5855 170.596C94.1685 173.379 110.18 170.726 130.155 169.851C168.137 168.188 181.643 184.077 209.111 175.561C216.243 173.35 228.498 168.487 227.981 164.638C227.026 157.528 172.626 161.726 172.366 158.182C172.23 156.355 186.614 154.781 186.519 152.719C186.37 149.518 151.525 148.661 133.385 148.249C108.331 147.681 95.8055 147.395 80.003 148.496L79.9998 148.499Z" fill="#99DA49"/>
<path d="M133.873 131.723L130.51 132.179C130.51 132.179 131.541 145.048 130.651 146.976C129.762 148.9 129.587 149.128 127.729 150.143C126.86 150.617 123.277 147.593 123.277 151.615C123.277 152.063 126.47 152.228 129.296 152.418C130.394 152.49 131.528 152.482 132.314 152.431C134.746 152.279 136.574 152.494 136.051 151.048C135.81 150.384 135.693 149.999 135.406 149.665C134.455 148.549 135.714 146.443 135.648 145.94C135.581 145.437 138.611 134.048 138.021 132.886C137.431 131.723 133.881 131.727 133.881 131.727L133.873 131.723Z" fill="#221130"/>
<path d="M137.502 55.2595L137.115 61.9025L134.113 64.7367C134.113 64.7367 131.368 60.7035 131.587 59.7418C131.805 58.7801 136.43 55.3188 136.893 55.2765C137.355 55.2341 137.502 55.2595 137.502 55.2595Z" fill="#F9B233"/>
<path d="M133.552 49.103C133.552 49.103 138.835 48.3363 138.001 53.1717C137.168 58.007 136.549 58.6074 136.452 58.7291C136.355 58.8508 130.723 62.4286 129.873 60.7168C129.022 59.0049 128.605 56.6157 128.605 56.6157C128.921 54.8673 129.182 50.255 130.281 49.2612C131.489 48.1659 133.56 49.107 133.56 49.107L133.552 49.103Z" fill="#F9B233"/>
<path d="M129.49 54.0664C129.49 54.0664 127.287 56.8143 127.431 57.2251C127.574 57.636 128.954 57.3533 129.09 57.446C129.225 57.5388 129.776 57.742 129.794 57.53C129.813 57.3179 129.49 54.0664 129.49 54.0664Z" fill="#F9B233"/>
<path d="M136.856 55.2811C136.64 55.3014 135.563 55.966 134.411 56.7766C134.385 56.9063 134.372 57.036 134.385 57.1698C134.473 58.1465 134.442 58.6774 133.979 60.2702C133.705 61.2145 135.064 61.9359 136.225 62.3655L137.094 61.6158L137.5 55.2608C137.5 55.2608 137.346 55.2325 136.86 55.2771L136.856 55.2811Z" fill="#F39200"/>
<path d="M136.819 59.0636C136.894 58.9377 137.38 58.3166 138.026 53.3145C138.354 50.7883 137.465 49.7434 136.507 49.3237C134.723 50.931 130.842 52.7354 131.074 53.2306C131.439 54.0069 132.813 54.2587 134.401 54.8336C135.986 55.4085 135.06 56.3653 135.126 57.3808C135.192 58.3922 135.169 58.9419 134.824 60.5869C135.874 59.9071 136.786 59.1224 136.822 59.0636H136.819Z" fill="#F39200"/>
<path d="M135.13 56.9603C135.13 56.9603 135.117 61.57 133.207 62.0836C131.296 62.5972 127.064 63.5697 127.448 62.4204C127.833 61.2711 129.154 60.366 129.103 59.6798C129.051 58.9936 127.628 58.6274 127.923 58.1096C128.218 57.5918 128.91 56.6446 129.513 57.0403C130.116 57.436 130.962 57.6381 130.71 58.3874C130.458 59.1368 130.137 60.2313 130.941 59.5746C131.745 58.9178 133.091 57.4318 133.403 57.6339C133.715 57.8359 133.54 58.1727 133.98 57.4739C134.421 56.7751 134.887 56.1646 135.006 56.5646L135.13 56.9645V56.9603Z" fill="#33204B"/>
<path d="M138.405 53.9495C138.405 53.9495 138.389 48.7078 136.049 48.1238C133.708 47.5398 128.524 46.434 128.995 47.7408C129.466 49.0477 131.084 50.0768 131.022 50.8571C131.76 50.4071 133.582 51.8289 133.273 50.9768C134.258 51.7236 135.907 53.4133 136.29 53.1836C136.672 52.9538 136.457 52.5708 136.997 53.3655C137.536 54.1601 138.107 54.8542 138.253 54.3995L138.405 53.9447V53.9495Z" fill="#33204B"/>
<path d="M144.965 131.133L138.107 132.856C138.107 132.856 145.438 145.042 144.673 146.961C143.909 148.88 144.585 148.233 142.773 149.342C141.924 149.861 137.815 147.039 138.107 150.921C138.14 151.355 141.384 151.289 144.264 151.269C145.378 151.26 146.531 151.17 147.321 151.068C149.77 150.749 151.645 150.827 151.008 149.469C150.716 148.847 150.569 148.483 150.256 148.18C149.209 147.174 148.791 145.12 148.685 144.637C148.58 144.155 146.641 133.551 145.957 132.471C145.273 131.391 144.965 131.129 144.965 131.129V131.133Z" fill="#221130"/>
<path d="M142.258 97.685V104.156L140.216 107.759C140.216 107.759 142.3 123.4 141.932 124.425C141.565 125.451 147.168 131.453 146.304 133.311C145.995 133.976 139.223 135.872 139.223 135.872C138.555 134.78 138.225 134.366 137.979 133.185C137.816 133.411 138.743 135.462 137.757 135.814C137.757 135.814 130.706 135.856 129.804 135.362C128.902 134.868 128.497 134.052 128.823 133.068C129.148 132.085 128.576 131.716 128.413 131.553C128.251 131.39 127.391 129.343 128.413 129.096C129.436 128.849 130.25 128.481 129.599 128.196C128.948 127.912 127.841 127.828 128.413 127.296C128.985 126.765 129.637 127.213 128.985 126.765C128.334 126.317 127.47 126.233 127.921 125.413C128.372 124.593 129.269 124.471 128.823 124.019C128.376 123.567 125.883 112.597 125.679 106.332C125.474 100.066 126.293 95.4835 126.702 95.563C127.111 95.6426 142.262 97.6934 142.262 97.6934L142.258 97.685Z" fill="#442768"/>
<path d="M137.922 135.814C138.891 135.464 137.979 133.419 138.138 133.194C138.38 134.371 138.707 134.788 139.358 135.873C139.358 135.873 145.992 133.983 146.299 133.319C147.147 131.467 141.654 125.483 142.014 124.461C142.374 123.439 140.332 107.847 140.332 107.847L142.333 104.254V97.8039C142.333 97.8039 140.934 97.612 138.982 97.3408C136.947 100.524 134.353 103.245 134.205 104.897C134.046 106.691 131.963 115.728 133.084 117.414C134.205 119.1 135.22 122.096 135.167 123.401C135.114 124.707 133.244 125.141 134.582 127.812C135.916 130.478 133.673 135.739 133.669 135.739C135.736 135.814 137.917 135.802 137.917 135.802L137.922 135.814ZM137.967 132.159C137.967 132.159 137.967 132.155 137.967 132.151C137.95 132.013 137.954 132.038 137.967 132.159Z" fill="#221130"/>
<path d="M129.255 69.4594C129.255 69.4594 128.818 67.1225 129.778 66.6009C130.738 66.0793 138.01 61.1802 138.01 61.1802H139.722C139.722 61.1802 143.717 71.9006 142.598 80.9894C141.478 90.0782 144.142 98.1363 143.239 100.31C142.336 102.485 127.457 101.183 126.82 100.148C126.182 99.1128 126.24 88.7971 126.24 88.7971C126.24 88.7971 126.46 79.3244 127.359 74.5922C128.045 70.9742 129.823 70.6612 129.255 69.4552" fill="#008D36"/>
<path d="M126.346 71.2836C126.346 71.2836 130.44 60.3952 135.397 60.101C140.354 59.8067 141.333 60.0927 141.58 61.3071C141.827 62.5215 141.539 63.0521 138.876 63.6572C136.213 64.2623 135.682 64.4281 135.393 65.2405C135.104 66.0529 132.404 67.3875 131.42 67.6321C130.436 67.8766 130.394 68.0797 129.452 69.377C128.51 70.6743 125.663 72.9001 126.342 71.2836H126.346Z" fill="#008D36"/>
<path d="M142.605 80.989C143.713 71.9004 139.757 61.1802 139.757 61.1802H139.352C138.923 61.9063 138.227 62.6824 137.196 63.1164C135.771 63.7131 134.226 64.627 134.105 65.6619L133.983 66.6968C133.983 66.6968 137.45 65.1695 137.985 66.6008C138.519 68.0321 130.916 80.8596 133.352 81.9237C136.099 83.1213 135.116 83.1714 135.047 84.0978C134.978 85.0242 130.706 85.9005 131.734 85.6543C132.761 85.4039 135.5 87.3944 135.755 89.1095C136.01 90.8245 137.989 92.2683 137.357 97.0547C136.73 101.783 136.937 101.474 137.37 101.49C140.343 101.49 142.884 101.178 143.24 100.31C144.138 98.1313 141.5 90.0776 142.605 80.989Z" fill="#006D29"/>
<path d="M135.535 65.1594C135.813 64.3469 136.337 64.1852 138.939 63.5758C141.541 62.9664 141.82 62.44 141.582 61.2253C141.447 60.5372 141.079 60.1475 139.909 59.9941C139.839 60.0812 139.786 60.1682 139.753 60.2594C139.434 61.1258 138.632 62.3695 137.192 62.9623C135.752 63.5551 134.189 64.4629 134.066 65.491C133.956 66.4362 133.947 66.5108 133.943 66.5149C134.721 66.0631 135.404 65.549 135.539 65.1594H135.535Z" fill="#006D29"/>
<path d="M110.887 93.7832C110.887 93.7832 108.174 93.7715 107.558 94.9577C106.803 96.4023 104.694 97.3184 107.483 97.8509C108.707 98.0818 108.833 97.7921 109.335 97.385C109.837 96.9778 111.571 97.5768 112.42 96.234C113.269 94.8911 110.887 93.7832 110.887 93.7832Z" fill="#F39200"/>
<path d="M113.978 92.0056C113.697 92.1197 110.395 93.7123 110.287 93.5851C110.18 93.4579 110.213 94.7039 110.494 95.4103C110.775 96.1167 112.07 97.3408 112.07 97.3408L116.158 95.5507L113.978 92.01V92.0056Z" fill="#008D36"/>
<path d="M113.934 96.7436C113.934 96.7436 111.303 93.2022 111.42 93.0774C111.537 92.9526 113.809 90.5098 115.772 89.1282C117.601 87.8381 120.249 85.72 120.061 85.2206C119.873 84.7212 118.975 84.1594 120.224 83.4312C121.473 82.7029 120.934 83.1482 120.754 82.2243C120.575 81.3005 120.566 82.0454 121.611 81.3962C122.655 80.747 126.911 75.1374 127.959 72.9152C129.007 70.693 130.139 67.7883 132.87 68.1129C135.602 68.4375 139.348 66.1154 138.584 69.894C137.82 73.6726 138.935 72.3367 136.12 77.0184C133.305 81.6958 131.354 86.8394 129.855 87.3388C128.356 87.8381 127.044 88.1794 126.409 89.1407C125.775 90.102 128.531 89.5485 123.903 91.6958C119.276 93.8431 120.199 93.0649 119.898 93.8265C119.597 94.588 119.923 94.5922 118.507 95.2622C117.092 95.9322 113.93 96.7478 113.93 96.7478L113.934 96.7436Z" fill="#008D36"/>
<path d="M85.7548 59.9983C85.7548 59.9983 85.4145 68.9607 84.8415 69.4434C84.2684 69.9262 86.1936 71.3457 87.859 70.2728C89.5245 69.2 88.9962 69.3898 88.9962 67.438C88.9962 65.4863 90.0304 61.6282 89.0768 61.2155C88.1232 60.8029 85.7548 59.9941 85.7548 59.9941V59.9983Z" fill="#FFC55D"/>
<path d="M86.5156 63.412C86.5156 63.412 86.6924 64.453 88.3071 65.4577C88.6048 65.6427 88.8468 65.7878 89.0748 65.922C89.1772 65.0333 89.3912 63.967 89.4796 63.0747C88.1721 62.6793 86.5156 63.4156 86.5156 63.4156V63.412Z" fill="#D79738"/>
<path d="M86.0386 146.043C86.0386 146.233 84.1184 149.84 84.1468 151.349C84.1752 152.857 84.1468 153.014 84.1468 153.014C87.6585 153.055 89.8223 153.101 95.4044 153.014C95.4044 153.014 96.9024 151.778 95.1567 151.704C93.4192 151.63 89.3473 149.873 89.3676 149.559C89.3676 149.559 89.6477 146.266 89.7045 145.576C89.7614 144.886 86.0386 146.047 86.0386 146.047V146.043Z" fill="#221130"/>
<path d="M87.7898 52.3679C87.7898 52.3679 84.1181 52.2345 84.1466 58.0797C84.1788 63.925 86.9334 64.3086 86.9334 64.3086C86.9334 64.3086 89.4967 64.6499 90.6562 63.6566C93.2363 61.4465 93.1984 54.1327 90.9547 52.9349C89.6309 51.9802 87.7898 52.3637 87.7898 52.3637V52.3679Z" fill="#FFC55E"/>
<path d="M75.7752 146.157C75.7752 146.375 73.4461 150.569 73.4789 152.317C73.5117 154.066 73.4789 154.249 73.4789 154.249H87.1582C87.1582 154.249 88.7 153.482 86.6088 153.12C84.5175 152.758 79.031 150.203 79.031 150.203C79.031 150.203 80.1627 146.414 80.2324 145.612C80.3021 144.81 75.7752 146.157 75.7752 146.157Z" fill="#221130"/>
<path d="M92.9718 53.1269C95.7991 54.9457 91.3363 56.2692 90.6467 59.5594C90.3883 60.7922 88.1063 59.6921 87.8042 60.4326C87.1371 62.0681 87.1039 64.5868 86.4797 66.2391C84.1805 72.3246 73.7059 77.9403 83.7062 55.7635C86.3103 50.6215 89.9161 51.1612 92.9718 53.1269Z" fill="#33204B"/>
<path d="M80.5438 100.898C80.5438 100.898 78.2073 114.865 77.2592 119.63C76.3111 124.394 65.0233 150.152 68.385 149.451C73.4703 148.392 79.3818 149.451 79.3818 149.451C79.3818 149.451 85.0705 121.293 84.8607 119.63C84.6509 117.966 81.6368 149.451 81.6368 149.451L92.1188 149.507C92.1188 149.507 92.8571 105.85 92.1188 105.236C91.3805 104.623 80.5397 100.898 80.5397 100.898H80.5438Z" fill="#1E5158"/>
<path d="M92.1124 106.043C92.0916 106.025 92.0583 106.007 92.0166 105.984C92.0041 105.974 91.9874 105.97 91.9749 105.961C91.9458 105.942 91.9124 105.928 91.8749 105.91C91.8541 105.901 91.8333 105.892 91.8124 105.878C91.7708 105.859 91.7291 105.841 91.6833 105.818C91.6583 105.809 91.6332 105.795 91.6082 105.786C91.5541 105.763 91.4916 105.735 91.4332 105.712C91.4124 105.703 91.3916 105.694 91.3666 105.685C91.1874 105.611 90.9832 105.528 90.754 105.441C90.7249 105.427 90.6915 105.418 90.6582 105.404C90.5707 105.372 90.4832 105.335 90.3915 105.303C90.354 105.289 90.3165 105.275 90.2749 105.261C90.1832 105.229 90.0915 105.192 89.9957 105.156C89.954 105.142 89.9165 105.128 89.8749 105.11C89.7665 105.068 89.654 105.027 89.5373 104.985C89.5123 104.976 89.4873 104.967 89.4582 104.958C89.1623 104.852 88.854 104.737 88.529 104.627L88.4415 104.595C88.3123 104.549 88.179 104.503 88.0456 104.457C88.004 104.443 87.9664 104.429 87.9248 104.415C87.7914 104.369 87.6581 104.323 87.5248 104.273L87.4289 104.24C87.2789 104.19 87.1331 104.139 86.9831 104.084L86.9206 104.061C86.5706 103.941 86.2206 103.817 85.8705 103.698L85.7997 103.675C85.6539 103.624 85.5122 103.578 85.3664 103.527L85.2414 103.486C85.0997 103.44 84.9622 103.389 84.8205 103.343L84.7372 103.316C84.5955 103.27 84.458 103.219 84.3205 103.173L84.2205 103.141C84.058 103.086 83.8955 103.031 83.7371 102.98H83.7246C83.5705 102.925 83.4205 102.874 83.2705 102.824L83.1704 102.791C83.0621 102.755 82.9538 102.718 82.8454 102.681L82.6871 102.63C82.6038 102.603 82.5246 102.575 82.4454 102.552L82.2621 102.492L82.0871 102.433C81.9621 102.391 81.8454 102.354 81.7287 102.313C81.6662 102.295 81.6037 102.272 81.5454 102.253L81.3287 102.18L81.2704 102.161C81.187 102.134 81.1079 102.106 81.0329 102.083H81.012L80.0995 102.143L80.087 102.226L80.0704 102.336C80.0537 102.451 80.0328 102.575 80.012 102.722V102.732L79.9828 102.906L79.9662 103.012C79.9287 103.256 79.887 103.527 79.8412 103.826L79.8245 103.937C79.812 104.029 79.7953 104.125 79.7828 104.222L79.7745 104.263C79.7412 104.48 79.7078 104.714 79.6703 104.953L79.6578 105.027C79.6328 105.179 79.612 105.33 79.587 105.487C79.5662 105.616 79.5495 105.744 79.5287 105.873C79.5162 105.951 79.5037 106.03 79.4912 106.108C79.4787 106.2 79.462 106.292 79.4495 106.388C79.3912 106.756 79.3328 107.143 79.2703 107.538C79.2537 107.64 79.237 107.745 79.2203 107.851C79.1912 108.035 79.162 108.219 79.1328 108.408C79.1162 108.509 79.1036 108.606 79.087 108.707C79.0661 108.836 79.0453 108.96 79.0287 109.088L78.9953 109.309C78.962 109.535 78.9245 109.76 78.887 109.985C78.8745 110.073 78.862 110.156 78.8453 110.243C78.8245 110.381 78.8036 110.519 78.7786 110.657C78.7661 110.726 78.7578 110.795 78.7453 110.864C78.7036 111.122 78.662 111.384 78.6203 111.641L78.5911 111.825C78.5661 111.973 78.5453 112.115 78.5203 112.262C78.5078 112.341 78.4953 112.423 78.4828 112.502C78.4453 112.727 78.4078 112.952 78.3745 113.182C78.3578 113.274 78.3453 113.366 78.3286 113.454C78.3078 113.592 78.2828 113.725 78.2619 113.863L78.2286 114.07C78.1911 114.3 78.1536 114.53 78.1161 114.76C78.0995 114.852 78.0869 114.944 78.0703 115.036C78.0494 115.165 78.0286 115.289 78.0078 115.418C77.9828 115.565 77.9578 115.712 77.9328 115.859L77.9203 115.942C79.362 116.766 80.7912 117.75 81.3996 118.684C81.9121 119.47 82.4204 120.179 82.9205 120.818C82.7079 122.561 82.0121 128.173 81.7329 128.881C81.3996 129.723 79.7162 141.899 78.5203 143.822C77.3244 145.744 78.1953 146.522 74.9327 147.483C73.0159 148.049 72.1201 148.9 71.6992 149.507C71.7326 149.507 71.7742 149.507 71.8117 149.507C71.8451 149.507 71.8742 149.507 71.9117 149.507C71.9534 149.507 71.9992 149.507 72.0451 149.507H72.1409C72.1909 149.507 72.2367 149.507 72.2867 149.507H72.3909C72.4409 149.507 72.4951 149.507 72.5493 149.507H72.6576C72.7618 149.507 72.8659 149.507 72.9743 149.507C73.0159 149.507 73.0534 149.507 73.0951 149.507C73.1493 149.507 73.2076 149.507 73.2618 149.507C73.3118 149.507 73.3618 149.507 73.4118 149.507H73.566C73.6285 149.507 73.691 149.507 73.7535 149.507H73.8868C73.9493 149.507 74.0118 149.507 74.0743 149.507C74.1993 149.507 74.3243 149.507 74.4493 149.507H74.541C74.616 149.507 74.691 149.507 74.7618 149.507H74.8618C74.9285 149.507 74.9993 149.507 75.0702 149.507H75.3827C75.4702 149.507 75.5577 149.507 75.6452 149.502H75.716C75.941 149.502 76.166 149.498 76.3827 149.493H76.8161C76.8786 149.488 76.9411 149.488 77.0036 149.488C77.1911 149.488 77.3703 149.488 77.5411 149.484H78.0203L78.1786 149.475H78.4536C78.5536 149.47 78.6411 149.47 78.712 149.465H78.9578C78.9578 149.465 78.9703 149.401 78.9953 149.286L79.0161 149.18L79.0495 149.024C79.1161 148.711 79.212 148.247 79.3412 147.649C79.3537 147.58 79.3703 147.511 79.3828 147.442L79.4037 147.345C79.4912 146.922 79.5953 146.443 79.7037 145.919L79.7328 145.772L79.7912 145.482L79.837 145.266L79.8787 145.063L79.9162 144.884C80.0953 144.033 80.2912 143.095 80.4954 142.092L80.512 142.018C80.5454 141.867 80.5745 141.715 80.6079 141.558L80.6329 141.439C80.662 141.305 80.687 141.167 80.7162 141.034L80.7454 140.891C80.8162 140.546 80.8912 140.197 80.962 139.838V139.824C81.1579 138.886 81.3579 137.911 81.5579 136.926V136.903C81.5996 136.729 81.6329 136.549 81.6704 136.374L81.6871 136.287C81.7246 136.094 81.7662 135.905 81.8037 135.712C82.2079 133.716 82.6121 131.701 82.983 129.806L82.9913 129.76C83.0246 129.585 83.0579 129.41 83.0954 129.236L83.1038 129.19C83.1371 129.015 83.1705 128.84 83.2038 128.665V128.638C83.2246 128.555 83.2413 128.477 83.2538 128.394C83.5663 126.775 83.8455 125.28 84.0705 124.024C84.0871 123.932 84.1038 123.84 84.1205 123.753V123.734C84.1455 123.601 84.1705 123.472 84.1913 123.343V123.329C84.3288 122.547 84.4372 121.876 84.508 121.352C84.4997 121.536 84.4955 121.743 84.4872 121.963V121.973C84.4872 122.078 84.4788 122.189 84.4788 122.308C84.4788 122.35 84.4788 122.396 84.4788 122.442C84.4788 122.524 84.4747 122.603 84.4705 122.685L84.4872 122.557C84.5413 122.612 84.5247 122.773 84.4622 122.989C84.0705 130.999 81.8037 149.18 81.8037 149.18L87.4414 149.493C87.7206 149.424 87.8831 149.415 87.8623 149.493H92.1083C92.1083 149.493 92.8708 106.632 92.1083 106.03L92.1124 106.043Z" fill="#18394B"/>
<path d="M85.0167 65.3296C85.0167 65.3296 81.1543 70.4898 80.2933 74.7719C80.1579 75.4377 76.7875 77.9762 80.2441 77.9762C80.5926 77.9762 79.7766 77.868 79.5962 81.1389C79.0345 91.3303 77.7511 96.7859 77.7511 96.7859C77.7511 96.7859 70.9898 111.055 72.5151 111.218C74.0404 111.38 93.6314 111.684 93.6314 111.522C93.6314 111.359 92.0323 95.371 91.8724 90.5812C91.7124 85.7914 94.2792 78.3008 93.4756 75.2879C92.6719 72.275 91.9708 69.5867 89.4737 68.1219C86.9767 66.6571 85.0167 65.3296 85.0167 65.3296Z" fill="#87D7B0"/>
<path d="M92.5239 58.7642C92.5285 58.8268 92.7109 59.6953 93.022 60.2459C93.1433 60.4605 93.1049 60.7601 92.8586 60.7672C92.4154 60.7801 91.9121 60.6387 91.9121 60.6387L92.5239 58.7642Z" fill="#FFC55D"/>
<path d="M88.7483 70.3502C89.0721 70.3502 87.3962 68.3901 87.1074 70.3501C87.7802 70.1289 89.5262 71.0198 89.1515 71.2399C90.7136 70.787 90.9555 71.3624 90.3779 71.2399C90.7867 69.8526 89.9172 69.9344 89.1515 69.8527C88.5826 69.7896 88.2801 69.9864 87.5975 69.8899C87.4268 69.8676 87.2649 69.8565 87.1074 69.8527C87.1993 70.1497 87.65 70.3502 88.7439 70.3502H88.7483Z" fill="#221130"/>
<path d="M84.7033 64.7363L83.6416 65.5845C83.6416 65.5845 82.9477 67.3784 85.4808 69.2736C88.0138 71.1689 87.7296 70.7712 87.7296 70.7712C87.7296 70.7712 90.225 69.6998 90.4298 70.5723C90.6346 71.4449 87.3492 70.8767 89.0128 71.591C90.6764 72.3053 91.6294 73.5228 92.039 75.1624C92.4487 76.802 93.4226 82.5203 93.4226 82.5203C93.4226 82.5203 94.4718 77.0414 94.1708 75.9294C93.8699 74.8174 92.641 70.2923 91.7423 69.578C90.8436 68.8637 84.7075 64.7363 84.7075 64.7363H84.7033Z" fill="#C6C6C6"/>
<path d="M93.6262 111.522C93.6262 111.361 92.0243 95.5071 91.8641 90.7576C91.8271 89.6971 91.9298 88.5086 92.0982 87.2625C91.1986 87.5926 89.5104 88.455 89.1489 90.3697C88.6519 93.0065 89.0051 99.2003 88.2658 100.624C87.5264 102.048 89.991 107.268 85.9737 109.529C84.4908 110.362 83.2914 110.998 82.3672 111.472C87.8838 111.559 93.6304 111.609 93.6304 111.522H93.6262Z" fill="#76C29E"/>
<path d="M80.3681 77.8034C80.6754 77.8034 80.0773 77.7112 79.8032 80.1459C79.8904 80.2289 80.7709 78.8548 80.9288 78.7949C82.4115 78.2323 89.4058 80.2474 88.8576 80.0952C87.6946 79.7724 81.4645 77.7251 80.7377 77.6236C80.1978 77.5452 79.9237 77.3515 79.2757 77.2317C79.1137 77.204 78.9601 77.1902 78.8105 77.1855C78.8978 77.5544 79.3256 77.8034 80.3639 77.8034H80.3681Z" fill="#76C29E"/>
<path d="M91.7129 69.479H91.7086C91.6115 69.9832 90.4582 69.6526 90.699 70.3675C91.2482 71.9833 93.1619 74.004 93.2252 75.219C93.2886 76.4298 92.9971 77.1612 93.2252 77.967C93.4534 78.777 93.2548 80.9259 93.4534 81.1201C93.4998 81.1655 93.5674 81.2441 93.6477 81.335C93.9392 79.6117 94.3785 76.7273 94.1673 75.9463C93.8589 74.814 92.6211 70.2063 91.7129 69.479Z" fill="#494949"/>
<path d="M105.322 92.0139C105.194 91.7995 103.113 95.8035 103.113 95.8035C103.212 95.8516 103.365 95.9129 103.559 95.961C104.187 96.1185 104.434 95.9041 104.872 96.0441C105.276 96.1754 105.165 96.3898 105.685 96.6699C106.139 96.915 106.589 97.0769 106.994 96.9675C108.327 96.6086 108.715 97.6457 109.148 97.882C109.578 98.1183 111.485 97.5101 111.41 96.7224C111.336 95.9347 110.709 94.2106 109.553 93.8693C109.214 93.7687 109.074 93.4842 108.55 93.2786C108.1 93.1035 107.844 93.2786 107.357 93.1079C106.469 92.7972 105.413 92.1583 105.326 92.0139H105.322Z" fill="#FFC55D"/>
<path d="M85.7716 71.2568C85.7716 71.2568 85.1537 71.4407 84.6668 72.0676C83.6111 73.4217 84.3845 75.6953 85.031 77.3168C86.8682 81.9392 87.7725 85.7298 91.8194 89.1945C95.1419 92.0364 100.367 96.0151 103.514 97.34C103.514 97.34 104.463 96.5208 105.257 95.4718C106.264 94.1386 106.677 93.2526 106.673 93.0729C106.656 92.5797 101.415 88.4923 94.344 84.3506C94.4054 83.9411 93.4356 78.136 90.7227 73.3632C89.5648 71.3195 86.9623 71.424 85.7716 71.2652V71.2568Z" fill="#87D7B0"/>
<path d="M90.0753 60.331L89.995 59.434C89.995 59.434 88.4363 57.9151 88.3134 59.6134C88.1906 61.3117 88.7716 61.9535 89.3526 61.7303C89.9336 61.507 90.028 61.3236 90.028 61.3236L90.0753 60.331Z" fill="#FFC55D"/>
<path d="M133.485 54.776C133.485 54.776 135.017 54.3158 135.097 55.2185C135.178 56.1212 135.153 57.4443 134.356 57.462C133.56 57.4797 133.046 57.8514 132.618 57.4001C132.189 56.9487 132.164 56.5416 132.164 56.5416L133.485 54.776Z" fill="#F9B233"/>
<path d="M114.033 96.7476C114.033 96.7476 117.186 95.9273 118.592 95.2536C119.998 94.5798 119.678 94.5756 119.977 93.8098C120.277 93.044 119.353 93.8265 123.966 91.6671C128.579 89.5077 125.834 90.0643 126.462 89.0976C127.094 88.1309 128.4 87.7836 129.893 87.2856C131.387 86.7876 133.329 81.6151 136.133 76.9071C138.936 72.2033 137.825 73.5467 138.587 69.7427C138.828 68.5458 138.62 67.9557 138.142 67.7004C137.984 67.8469 137.842 68.031 137.721 68.2738C136.727 70.2951 136.024 74.0614 134.369 75.3169C132.713 76.5723 130.813 77.991 130.434 80.1211C130.056 82.2512 127.992 85.2517 126.745 85.3605C125.497 85.4694 122.348 87.545 122.406 89.2357C122.46 90.9264 120.289 92.546 119.586 92.8849C118.879 93.2239 115.477 95.7725 114.437 95.5632C113.958 95.467 113.53 95.513 113.197 95.5884C113.659 96.2328 114.037 96.7476 114.037 96.7476H114.033Z" fill="#006D29"/>
<path d="M106.245 96.9586C106.245 96.9586 105.916 96.3844 106.193 96.2022C106.469 96.02 107.315 96.4065 107.788 96.6218C108.26 96.8372 108.926 96.5666 108.95 97.0525C108.974 97.5384 109.106 97.7703 109.014 97.9193C108.922 98.0684 106.245 96.9642 106.245 96.9642V96.9586Z" fill="#F39200"/>
<path d="M109.705 94.2375C109.792 94.2772 109.988 94.2811 110.172 94.0869C110.356 93.8928 110.074 93.6986 109.765 93.441C109.457 93.1834 109.269 93.124 108.968 93.2666C108.667 93.4093 108.332 93.3776 108.332 93.3776C108.332 93.3776 108.076 93.4093 107.921 93.7025C107.692 94.1464 108.14 94.4515 108.606 94.3604C108.968 94.1979 109.333 94.1385 109.705 94.2375Z" fill="#F39200"/>
<path d="M104.893 95.9545C104.705 95.6512 104.413 95.3913 103.962 95.2613C102.367 94.7934 101.553 95.7379 99.6329 94.4815C97.7126 93.2251 97.7126 93.6757 96.122 92.0728C94.5273 90.4698 93.4252 88.6069 92.1603 88.2257C90.958 87.8618 89.618 86.7787 89.4844 86.6704C90.0939 87.4286 90.791 88.1694 91.6301 88.8972C95.0199 91.8431 100.351 95.9675 103.561 97.3408C103.561 97.3408 104.212 96.7646 104.897 95.9588L104.893 95.9545Z" fill="#76C29E"/>
</g>
</svg>
