   <svg width="29" height="32" viewBox="0 0 29 32" fill="none" xmlns="http://www.w3.org/2000/svg">
<path d="M15.689 31.1847L27.5721 24.3936L21.4569 20.9875C20.8658 20.6598 20.1971 20.489 19.5174 20.4922C18.8377 20.4955 18.1707 20.6727 17.583 21.0061C16.9908 21.3413 16.5 21.8235 16.1602 22.4037C15.8205 22.9839 15.6439 23.6416 15.6485 24.3099L15.689 31.1847Z" fill="#5ADA2E"/>
<path d="M15.602 0L27.5232 6.73771L21.4294 10.1647C20.8397 10.4957 20.1714 10.6699 19.4913 10.6699C18.8111 10.6699 18.1428 10.4957 17.5532 10.1647C16.9593 9.8315 16.4659 9.35125 16.1229 8.7724C15.7799 8.19355 15.5994 7.53658 15.5996 6.86782L15.602 0Z" fill="#5ADA2E"/>
<path d="M28.8743 22.1413L28.7554 8.69141L22.6948 12.1764C22.1091 12.5137 21.624 12.9949 21.2879 13.5721C20.9519 14.1493 20.7765 14.8023 20.7793 15.4663C20.7832 16.1346 20.9673 16.7902 21.3132 17.3669C21.659 17.9437 22.1545 18.4212 22.7495 18.7515L28.8743 22.1413Z" fill="#5ADA2E"/>
<path d="M13.1859 0L1.30273 6.80973L7.41564 10.2041C8.0071 10.5319 8.67619 10.7027 9.35627 10.6994C10.0363 10.6962 10.7037 10.519 11.2918 10.1856C11.8839 9.84963 12.3746 9.36698 12.7143 8.78643C13.054 8.20589 13.2306 7.54804 13.2263 6.87944L13.1859 0Z" fill="url(#paint0_linear_0_1)"/>
<path d="M13.2704 31.194L1.35156 24.4563L7.44543 21.027C8.03523 20.6964 8.70344 20.5225 9.38352 20.5225C10.0636 20.5225 10.7318 20.6964 11.3216 21.027C11.9155 21.3596 12.4089 21.8394 12.7519 22.4179C13.0949 22.9964 13.2754 23.6531 13.2752 24.3215L13.2704 31.194Z" fill="#5ADA2E"/>
<path d="M0 9.06055L0.116595 22.4988L6.18667 19.0161C6.77004 18.6772 7.25259 18.1954 7.58649 17.6183C7.92039 17.0413 8.09405 16.389 8.09026 15.7262C8.08692 15.0575 7.90274 14.4015 7.55635 13.8247C7.20997 13.2478 6.71366 12.7705 6.11766 12.441L0 9.06055Z" fill="#5ADA2E"/>
<defs>
<linearGradient id="paint0_linear_0_1" x1="5.54174" y1="1.94958" x2="11.3232" y2="10.4157" gradientUnits="userSpaceOnUse">
<stop stop-color="#5ADA2E"/>
<stop offset="1" stop-color="#5ADA2E" stop-opacity="0"/>
</linearGradient>
</defs>
</svg>