<svg width="416" height="314" viewBox="0 0 416 314" fill="none" xmlns="http://www.w3.org/2000/svg">
<g clip-path="url(#clip0_394_715)">
<path d="M274.343 14.606C228.419 12.6555 205.479 89.6233 146.164 97.2718C126.123 99.8524 127.032 91.2834 103.149 94.1653C75.4426 97.5129 34.6301 113.824 13.0378 151.513C-8.08892 188.386 -2.5607 231.313 17.8976 256.763C38.9475 282.941 74.04 287.472 144.225 296.54C181.109 301.301 192.198 298.731 229.614 306.44C279.291 316.702 279.472 325.348 297.393 322.619C355.13 313.826 394.31 217.665 407.081 171.402C418.861 128.743 415.973 100.252 414.806 91.1464C410.001 53.3638 390.277 0.256739 361.491 -0.0117275C344.002 -0.170616 335.713 19.285 307.644 21.1697C290.216 22.3477 288.167 15.1923 274.343 14.606Z" fill="#D8FFA7"/>
<mask id="mask0_394_715" style="mask-type:alpha" maskUnits="userSpaceOnUse" x="-1" y="-1" width="417" height="325">
<path d="M274.344 14.606C228.419 12.6555 205.479 89.6233 146.164 97.2718C126.123 99.8524 127.032 91.2834 103.149 94.1653C75.4426 97.5129 34.6302 113.824 13.0378 151.513C-8.08892 188.386 -2.5607 231.313 17.8976 256.763C38.9475 282.941 74.04 287.472 144.225 296.54C181.109 301.301 192.198 298.731 229.614 306.44C279.291 316.702 279.472 325.348 297.393 322.62C355.13 313.826 394.31 217.665 407.081 171.402C418.861 128.743 415.973 100.252 414.806 91.1464C410.001 53.3638 390.277 0.256739 361.491 -0.0117275C344.002 -0.170616 335.713 19.285 307.644 21.1697C290.216 22.3477 288.167 15.1923 274.344 14.606Z" fill="#8EFF00"/>
</mask>
<g mask="url(#mask0_394_715)">
<path d="M255.641 96.9423C182.751 97.0445 156.337 86.3189 109.229 98.8251C89.1076 104.167 87.6699 107.782 87.5736 109.358C86.7254 122.863 174.45 133.733 173.252 142.089C172.013 150.793 75.9035 145.199 72.974 157.891C70.2129 169.868 155.236 177.382 168.542 214.702C180.194 247.39 125.08 269.978 134.176 295.592C152.21 346.381 402.287 351.633 415.701 313.278C422.83 292.897 368.444 245.098 308.836 233.139C291.241 229.608 269.404 228.441 266.938 219.971C263.184 207.086 309.762 196.258 308.367 177.454C307.128 160.773 269.41 155.04 261.289 128.169C259.232 121.371 260.369 117.491 261.759 115.001C268.328 103.247 291.782 102.41 291.463 99.7996C291.102 96.84 260.904 96.9363 255.635 96.9423H255.641Z" fill="#DFDFDF"/>
<path d="M255.631 96.9403C182.741 97.0426 156.327 86.3169 109.22 98.8232C89.0978 104.165 87.6601 107.78 87.5638 109.356C86.7157 122.861 174.44 133.731 173.243 142.087C172.004 150.791 75.8938 145.197 72.9642 157.889C70.2031 169.866 155.226 177.38 168.533 214.7C180.185 247.388 125.071 269.976 134.166 295.59C152.2 346.379 402.277 351.631 415.692 313.276C422.82 292.896 368.434 245.096 308.826 233.137C291.231 229.606 269.395 228.439 266.928 219.969C263.175 207.084 309.753 196.256 308.357 177.452C307.118 160.771 269.401 155.038 261.28 128.167C259.222 121.369 260.359 117.489 261.749 114.999C268.318 103.245 291.772 102.408 291.453 99.7977C291.093 96.8381 260.895 96.9343 255.625 96.9403H255.631Z" fill="#B8F36F"/>
<path d="M308.367 177.451C307.176 161.426 272.328 155.501 262.384 131.24C258.444 131.824 255.412 132.383 250.829 133.304C241.456 135.186 229.558 132.359 216.275 124.78C202.993 117.2 203.751 122.163 191.052 120.882C178.36 119.6 170.792 122.163 164.674 122.163C158.557 122.163 144.432 127.655 138.784 128.882C138.236 129.003 137.262 129.039 135.95 128.997C155.669 133.893 173.8 138.254 173.253 142.08C172.013 150.785 75.9035 145.19 72.974 157.883C70.2129 169.86 155.236 177.373 168.542 214.693C168.56 214.742 168.572 214.784 168.59 214.832C201.983 213.749 237.119 212.534 271.221 211.204C282.205 201.628 309.444 191.889 308.367 177.439V177.451Z" fill="#99DA49"/>
<path d="M308.958 233.137C291.363 229.606 269.527 228.439 267.06 219.969C263.307 207.084 309.885 196.256 308.489 177.451C308.056 171.634 303.189 167.153 296.687 162.635C267.084 161.27 246.662 154.875 214.575 146.568C179.264 137.43 181.634 168.867 162.799 184.941C159.317 187.912 154.288 190.295 148.332 192.147C157.849 198.217 165.404 205.562 168.665 214.699C180.317 247.388 125.203 269.976 134.298 295.59C150.047 339.936 342.699 349.567 400.249 325.758C405.29 321.457 410.662 316.831 416.167 312.024C420.78 291.006 367.387 244.855 308.958 233.131V233.137Z" fill="#8CCA3F"/>
<path d="M229.559 130.229C229.559 129.121 228.661 128.223 227.553 128.223H146.475C146.171 128.223 145.872 128.306 145.611 128.463C144.336 129.232 144.628 131.161 146.072 131.526C161.446 135.412 173.704 138.929 173.254 142.088C172.53 147.16 139.637 147.38 111.714 149.185C111.393 149.206 111.085 149.303 110.81 149.469L100.705 155.569C98.9649 156.619 99.7093 159.293 101.741 159.293H227.553C228.661 159.293 229.559 158.395 229.559 157.286V130.229Z" fill="#F8EA6C"/>
<path d="M166.859 202.597C166.859 202.6 166.862 202.602 166.864 202.602H283.423C283.788 202.602 284.146 202.503 284.458 202.314C296.117 195.286 309.098 187.51 308.35 177.451C307.972 172.386 304.235 168.335 298.984 164.388C298.641 164.131 298.224 163.995 297.795 163.995H187.485C186.726 163.995 186.032 164.423 185.692 165.1L166.86 202.595C166.86 202.596 166.859 202.597 166.859 202.597Z" fill="#F8EA6C"/>
<path d="M214.481 214.556C214.612 213.368 213.682 212.33 212.487 212.33H170.132C168.934 212.33 168.143 213.57 168.54 214.7C180.192 247.388 125.078 269.977 134.173 295.591C139.547 310.722 165.514 321.808 199.677 328.91C200.83 329.149 201.941 328.342 202.07 327.171L214.481 214.556Z" fill="#F8EA6C"/>
<path d="M415.692 313.277C422.821 292.897 368.435 245.097 308.827 233.139C291.232 229.607 269.395 228.44 266.929 219.971C266.565 218.718 266.674 217.487 267.169 216.266C267.842 214.605 266.919 212.337 265.127 212.337H257.489C256.231 212.337 255.283 213.481 255.518 214.717L278.596 336.391C278.77 337.309 279.556 337.985 280.49 338.019C345.618 340.41 409.111 332.09 415.692 313.277Z" fill="#F8EA6C"/>
<path d="M253.891 159.29H288.95L286.664 156.156C276.287 149.389 265.273 141.316 261.29 128.214H244.609L253.891 159.284V159.29Z" fill="#F8EA6C"/>
<path d="M239.874 112.214H101.265L92.0029 114.7C91.5045 115.279 102.359 120.029 110.941 122.326H242.906L239.874 112.214Z" fill="#F8EA6C"/>
<path d="M210.496 109.387H267.06C268.016 108.719 269.033 108.112 270.092 107.552L255.636 96.9409H218.003L210.496 109.393V109.387Z" fill="#F8EA6C"/>
<path d="M200.602 103.992C206.54 100.966 206.612 100.767 206.606 100.761C206.612 100.761 206.828 100.785 210.492 99.3476C212.742 98.4633 214.474 97.5189 215.244 96.5203C215.394 96.3278 215.509 95.9007 215.244 95.8827C170.741 93.5547 146.439 88.9408 109.221 98.8182C89.5139 104.046 87.7334 107.625 87.5769 109.249C88.4973 109.357 89.4237 109.4 90.2899 109.387C95.2347 109.309 99.0004 109.7 102.531 109.387C106.063 109.075 110.773 110.879 123.243 107.932C135.713 104.984 133.126 107.817 135.484 107.926C137.843 108.034 149.609 106.879 154.554 106.879C159.498 106.879 172.913 109.231 176.444 106.879C179.975 104.527 189.389 109.706 200.608 103.992H200.602Z" fill="url(#paint0_linear_394_715)"/>
<path d="M215.4 96.2379C215.4 96.2379 217.867 91.8165 214.492 91.8165C211.117 91.8165 212.296 91.2691 209.078 91.8165C205.86 92.3639 205.078 93.152 203.351 91.8947C201.625 90.6375 203.273 88.3636 198.96 89.4645C194.647 90.5653 194.923 89.9337 192.192 91.1127C189.461 92.2918 186.405 92.5264 180.125 91.3473C173.845 90.1683 175.259 88.4118 170.867 89.1757C166.476 89.9397 165.766 90.7217 165.766 90.7217C165.766 90.7217 163.336 90.0961 160.431 90.0179C157.525 89.9397 158.06 89.5367 154.932 88.9953C151.804 88.4539 153.531 87.1966 148.586 88.5321C143.641 89.8675 142.781 90.5713 135.406 90.4149C128.031 90.2585 129.523 89.4705 122.226 90.1021C114.929 90.7337 111.555 91.5699 109.828 92.8753C108.102 94.1806 106.219 95.6725 101.509 97.8681C96.7985 100.064 94.0554 100.774 92.1726 101.634C90.2897 102.494 85.6578 104.521 85.9766 105.508C86.2954 106.494 85.6397 107.709 86.6022 108.54C87.5647 109.37 88.5693 109.352 88.5693 109.352C88.5693 109.352 93.6644 107.439 95.6255 107.048C97.5865 106.657 215.4 96.2379 215.4 96.2379Z" fill="url(#paint1_linear_394_715)"/>
</g>
<path d="M277 193H293V263.5C288.5 264.5 282.484 266.671 277 268V193Z" fill="#D9F4F5"/>
<path d="M277.232 192.889H293.259V237.996L277.232 212.814V192.889Z" fill="#A8B0C1"/>
<path d="M291.342 192.889H293.256V262.583C292.621 262.832 291.981 263.072 291.342 263.312V192.889Z" fill="#A8B0C1"/>
<path d="M235 86.4084L353 65L310.869 202L208 176.741L235 86.4084Z" fill="#D9F4F5"/>
<path d="M352.107 65L358 70.0966L315.792 210L211.002 180.749L208 175.841L310.508 200.874L352.107 65Z" fill="#C6CDDC"/>
<path d="M237.773 90.8567L231.637 111.962L334.252 102.249L343.662 74.0654L237.773 90.8567Z" fill="#A3D9E6"/>
<path d="M230.731 113.852L225.434 132.17L325.134 131.977L333.498 104.896L230.731 113.852Z" fill="#A3D9E6"/>
<path d="M224.894 134.068L219.078 153.315L314.781 164.624L324.091 135.125L224.894 134.068Z" fill="#A3D9E6"/>
<path d="M218.134 155.985L212.762 173.164L305.549 193.579L313.496 167.828L218.134 155.985Z" fill="#A3D9E6"/>
<path d="M240.971 100.883L243.442 98.7619L245.955 89.5588L246.689 89.4434L244.088 98.7795L245.605 100.11L243.015 102.706L237.99 121.079L239.516 122.759L236.909 125.031L231.89 143.375L233.48 145.381L230.799 147.357L225.709 165.961L227.128 168.264L224.615 169.971L223.312 174.729L222.704 174.56L224.043 169.668L222.701 167.79L225.039 166.023L230.221 147.082L228.909 145.236L231.226 143.413L236.322 124.786L234.997 123.008L237.333 121.085L242.423 102.489L240.971 100.883Z" fill="#ECF0F1"/>
<path d="M257.769 98.3469L260.45 95.6629L262.886 86.8625L263.623 86.7593L261.152 95.6864L262.791 97.1353L259.967 99.9617L254.408 119.977L256.059 121.855L253.211 124.282L247.665 144.267L249.271 146.338L246.459 148.604L240.992 168.29L242.533 170.874L239.777 172.657L238.177 178.42L237.52 178.24L239.158 172.329L237.848 170.092L240.263 168.359L245.831 148.305L244.563 146.163L246.942 144.305L252.577 124.012L251.205 122.335L253.694 119.983L259.321 99.722L257.769 98.3469Z" fill="#ECF0F1"/>
<path d="M274.648 95.5762L277.531 92.6725L279.777 84.1956L280.559 84.0713L278.295 92.6994L279.951 94.3969L277.051 97.3212L271.018 119.692L272.826 121.268L269.886 123.848L264.215 144.989L266.111 147.303L262.956 149.671L257.146 171.262L258.793 173.662L255.875 175.984L254.023 182.876L253.303 182.681L255.199 175.626L253.59 172.992L256.354 171.339L262.271 149.348L260.597 147.253L263.433 145.031L269.193 123.558L267.622 121.585L270.245 119.7L276.348 97.0638L274.648 95.5762Z" fill="#ECF0F1"/>
<path d="M295.111 92.2613L298.234 89.1442L300.625 80.8924L301.517 80.75L299.031 89.1706L300.853 90.8505L297.564 94.1335L290.595 117.725L292.483 120.258L289.12 122.705L282.37 145.547L284.163 148.089L280.88 150.581L274.035 173.733L275.846 176.263L272.539 178.802L270.655 185.182L269.908 184.972L271.846 178.42L270.501 175.431L273.206 173.813L280.178 150.231L278.711 148.136L281.55 145.591L288.406 122.394L286.794 120.459L289.783 117.734L296.838 93.8551L295.111 92.2613Z" fill="#ECF0F1"/>
<path d="M317.634 88.6999L320.92 85.8372L323.524 77.2596L324.434 77.1294L321.782 85.8671L323.726 87.6777L320.312 90.7737L312.546 116.285L314.481 119.135L310.908 121.68L303.314 146.705L305.207 149.333L301.664 152.139L294.268 176.498L296.099 179.425L292.609 181.967L290.327 189.478L289.527 189.253L291.865 181.552L290.333 178.518L293.373 176.583L300.908 151.763L299.349 149.333L302.428 146.755L310.14 121.34L308.807 119.138L311.672 116.293L319.533 90.4777L317.634 88.6999Z" fill="#ECF0F1"/>
<path d="M234.229 101.523L340.267 84.0215L339.672 85.7724L233.986 102.326L234.229 101.523Z" fill="#ECF0F1"/>
<path d="M227.805 122.966L329.683 117.387L329.087 119.138L227.562 123.769L227.805 122.966Z" fill="#ECF0F1"/>
<path d="M221.525 144.506L319.963 149.156L319.311 151.25L221.291 145.283L221.525 144.506Z" fill="#ECF0F1"/>
<path d="M214.948 166.042L309.451 180.877L308.853 182.628L214.705 166.845L214.948 166.042Z" fill="#ECF0F1"/>
<g opacity="0.7" filter="url(#filter0_f_394_715)">
<ellipse cx="283.389" cy="129.015" rx="72.1711" ry="9.49696" transform="rotate(-31.7106 283.389 129.015)" fill="white"/>
</g>
<path d="M137.322 146.475L130.328 146.201L128.905 182.549C131.126 183.691 133.427 184.66 135.797 185.445L137.322 146.475Z" fill="#D9F4F5"/>
<path d="M137.09 146.509L129.403 146.208L128.488 169.585L136.686 156.835L137.09 146.509Z" fill="#A8B0C1"/>
<path d="M130.322 146.244L129.404 146.208L127.991 182.328C128.29 182.469 128.592 182.605 128.894 182.741L130.322 146.244Z" fill="#A8B0C1"/>
<path d="M159.425 93.2359L102.93 80.0782L120.517 150.82L170.644 139.866L159.425 93.2359Z" fill="#D9F4F5"/>
<path d="M103.759 79.1106L100.829 81.6341L118.244 154.735L169.096 141.583L170.635 139.103L120.962 150.117L103.759 79.1106Z" fill="#C6CDDC"/>
<path d="M158.083 94.3702L160.599 105.423L111.578 98.4635L107.636 83.6805L158.083 94.3702Z" fill="#A3D9E6"/>
<path d="M160.992 106.42L163.162 116.013L115.346 114.042L111.884 99.8496L160.992 106.42Z" fill="#A3D9E6"/>
<path d="M163.384 117.007L165.783 127.091L119.652 131.156L115.785 115.693L163.384 117.007Z" fill="#A3D9E6"/>
<path d="M166.181 128.492L168.409 137.496L123.491 146.334L120.202 132.84L166.181 128.492Z" fill="#A3D9E6"/>
<path d="M156.345 99.5068L155.203 98.361L154.184 93.5443L153.834 93.4706L154.893 98.358L154.138 99.0191L155.328 100.413L157.365 110.029L156.599 110.871L157.804 112.098L159.839 121.699L159.035 122.709L160.281 123.783L162.345 133.52L161.618 134.687L162.788 135.619L163.317 138.109L163.612 138.033L163.069 135.473L163.751 134.524L162.665 133.565L160.564 123.651L161.231 122.719L160.157 121.731L158.09 111.982L158.761 111.085L157.68 110.045L155.616 100.312L156.345 99.5068Z" fill="#ECF0F1"/>
<path d="M148.34 97.8768L147.109 96.4354L146.119 91.8289L145.767 91.7615L146.771 96.4344L145.956 97.1546L147.253 98.6724L149.513 109.15L148.683 110.092L150 111.403L152.255 121.865L151.443 122.908L152.745 124.135L154.968 134.44L154.177 135.75L155.462 136.726L156.113 139.743L156.432 139.662L155.766 136.568L156.439 135.433L155.316 134.489L153.053 123.992L153.704 122.906L152.601 121.898L150.309 111.275L151.001 110.432L149.855 109.166L147.568 98.5603L148.34 97.8768Z" fill="#ECF0F1"/>
<path d="M140.3 96.1244L138.977 94.5654L138.071 90.13L137.699 90.0509L138.609 94.565L137.781 95.4136L139.113 96.9836L141.552 108.69L140.653 109.473L142.011 110.866L144.302 121.929L143.346 123.092L144.811 124.379L147.16 135.678L146.321 136.89L147.674 138.149L148.422 141.755L148.772 141.668L148.005 137.976L148.83 136.641L147.538 135.732L145.146 124.224L145.991 123.17L144.676 121.965L142.349 110.729L143.142 109.735L141.923 108.71L139.455 96.8634L140.3 96.1244Z" fill="#ECF0F1"/>
<path d="M130.554 94.0221L129.119 92.348L128.139 88.0266L127.714 87.936L128.736 92.3467L127.828 93.1831L129.339 94.9463L132.203 107.303L131.246 108.581L132.81 109.912L135.584 121.877L134.672 123.161L136.196 124.514L139.01 136.641L138.09 137.918L139.624 139.296L140.399 142.638L140.761 142.543L139.965 139.111L140.671 137.587L139.406 136.698L136.54 124.346L137.286 123.288L135.976 121.915L133.158 109.764L133.971 108.792L132.592 107.323L129.693 94.8156L130.554 94.0221Z" fill="#ECF0F1"/>
<path d="M119.824 91.7536L118.306 90.2083L117.231 85.714L116.797 85.6295L117.892 90.2076L116.923 91.1095L118.497 92.7781L121.704 106.145L120.719 107.586L122.381 108.972L125.516 122.084L124.554 123.411L126.197 124.931L129.25 137.694L128.312 139.177L129.935 140.56L130.877 144.495L131.265 144.394L130.3 140.359L131.096 138.815L129.677 137.755L126.567 124.75L127.364 123.521L125.939 122.127L122.756 108.81L123.44 107.694L122.123 106.166L118.877 92.6393L119.824 91.7536Z" fill="#ECF0F1"/>
<path d="M159.56 99.9648L109.055 88.9041L109.306 89.8226L159.66 100.386L159.56 99.9648Z" fill="#ECF0F1"/>
<path d="M162.206 111.198L113.455 106.395L113.705 107.313L162.306 111.619L162.206 111.198Z" fill="#ECF0F1"/>
<path d="M164.782 122.479L117.474 123.041L117.744 124.139L164.879 122.886L164.782 122.479Z" fill="#ECF0F1"/>
<path d="M167.499 133.764L121.871 139.679L122.123 140.597L167.599 134.185L167.499 133.764Z" fill="#ECF0F1"/>
<g opacity="0.6" filter="url(#filter1_f_394_715)">
<ellipse cx="35.4348" cy="4.82701" rx="35.4348" ry="4.82701" transform="matrix(0.413503 -0.910503 -0.936924 -0.349534 128.215 154.243)" fill="white"/>
</g>
<path d="M218 91.4292H222L222.5 109.429C221 109.429 219.5 109.429 218 109.429V91.4292Z" fill="#D9F4F5"/>
<path d="M218.189 91.5078H221.922V102.013L218.189 96.1481V91.5078Z" fill="#A8B0C1"/>
<path d="M221.475 91.5078H221.92V107.738C221.773 107.796 221.624 107.852 221.475 107.908V91.5078Z" fill="#A8B0C1"/>
<path d="M208.331 67.0005L236 62L226.121 94L202 88.1L208.331 67.0005Z" fill="#D9F4F5"/>
<path d="M235.625 62L237 63.1951L227.151 96L202.7 89.141L202 87.9904L225.919 93.8601L235.625 62Z" fill="#C6CDDC"/>
<path d="M208.999 67.7463L207.57 72.6613L231.468 70.3994L233.659 63.8359L208.999 67.7463Z" fill="#A3D9E6"/>
<path d="M207.361 73.1015L206.127 77.3673L229.345 77.3224L231.293 71.0156L207.361 73.1015Z" fill="#A3D9E6"/>
<path d="M206.001 77.8096L204.646 82.2919L226.934 84.9257L229.102 78.0558L206.001 77.8096Z" fill="#A3D9E6"/>
<path d="M204.427 82.9136L203.176 86.9143L224.784 91.6685L226.635 85.6716L204.427 82.9136Z" fill="#A3D9E6"/>
<path d="M209.745 70.0811L210.32 69.5871L210.906 67.4439L211.077 67.417L210.471 69.5912L210.824 69.9011L210.221 70.5055L209.051 74.7844L209.406 75.1756L208.799 75.7048L207.63 79.9767L208.001 80.4439L207.376 80.9041L206.191 85.2367L206.521 85.7729L205.936 86.1704L205.632 87.2785L205.491 87.2392L205.803 86.1L205.49 85.6625L206.035 85.2512L207.242 80.8399L206.936 80.4101L207.475 79.9857L208.662 75.6476L208.354 75.2336L208.898 74.7857L210.083 70.4552L209.745 70.0811Z" fill="#ECF0F1"/>
<path d="M213.657 69.4906L214.281 68.8655L214.849 66.816L215.02 66.792L214.445 68.871L214.827 69.2084L214.169 69.8666L212.874 74.5278L213.259 74.9652L212.596 75.5303L211.304 80.1845L211.678 80.6668L211.023 81.1946L209.75 85.7791L210.109 86.3808L209.467 86.7962L209.095 88.1383L208.941 88.0963L209.323 86.7196L209.018 86.1987L209.58 85.7951L210.877 81.125L210.582 80.6261L211.136 80.1935L212.448 75.4675L212.129 75.077L212.708 74.5292L214.019 69.8108L213.657 69.4906Z" fill="#ECF0F1"/>
<path d="M217.588 68.8453L218.259 68.1691L218.783 66.195L218.965 66.166L218.437 68.1753L218.823 68.5707L218.148 69.2517L216.743 74.4614L217.164 74.8284L216.479 75.4294L215.158 80.3527L215.6 80.8916L214.865 81.443L213.512 86.4712L213.896 87.0301L213.216 87.571L212.785 89.176L212.617 89.1304L213.059 87.4875L212.684 86.8742L213.328 86.4891L214.706 81.3678L214.316 80.8799L214.976 80.3624L216.318 75.3619L215.952 74.9023L216.563 74.4634L217.984 69.1918L217.588 68.8453Z" fill="#ECF0F1"/>
<path d="M222.354 68.0734L223.081 67.3474L223.638 65.4257L223.845 65.3926L223.267 67.3536L223.691 67.7448L222.925 68.5094L221.302 74.0034L221.742 74.5933L220.958 75.1632L219.387 80.4826L219.804 81.0747L219.039 81.6549L217.446 87.0467L217.867 87.636L217.097 88.2273L216.658 89.713L216.484 89.664L216.936 88.1383L216.622 87.4421L217.252 87.0654L218.876 81.5736L218.534 81.0857L219.195 80.493L220.792 75.0908L220.417 74.6402L221.113 74.0054L222.756 68.4445L222.354 68.0734Z" fill="#ECF0F1"/>
<path d="M227.6 67.2439L228.365 66.5772L228.972 64.5796L229.184 64.5493L228.566 66.5842L229.019 67.0058L228.224 67.7268L226.415 73.6679L226.866 74.3317L226.034 74.9244L224.265 80.7523L224.706 81.3644L223.881 82.0178L222.159 87.6905L222.585 88.3722L221.772 88.9642L221.241 90.7134L221.055 90.661L221.599 88.8676L221.242 88.161L221.95 87.7104L223.705 81.9302L223.342 81.3644L224.059 80.764L225.855 74.8451L225.545 74.3324L226.212 73.67L228.042 67.6579L227.6 67.2439Z" fill="#ECF0F1"/>
<path d="M208.176 70.2302L232.87 66.1543L232.731 66.562L208.119 70.4172L208.176 70.2302Z" fill="#ECF0F1"/>
<path d="M206.68 75.2236L230.405 73.9243L230.266 74.3321L206.623 75.4106L206.68 75.2236Z" fill="#ECF0F1"/>
<path d="M205.217 80.2402L228.141 81.323L227.989 81.8107L205.162 80.4211L205.217 80.2402Z" fill="#ECF0F1"/>
<path d="M203.686 85.2554L225.694 88.7103L225.554 89.118L203.629 85.4424L203.686 85.2554Z" fill="#ECF0F1"/>
<g filter="url(#filter2_f_394_715)">
<ellipse cx="219.625" cy="76.6325" rx="16.8074" ry="2.21168" transform="rotate(-31.7106 219.625 76.6325)" fill="white"/>
</g>
</g>
<defs>
<filter id="filter0_f_394_715" x="200.785" y="69.2207" width="165.207" height="119.588" filterUnits="userSpaceOnUse" color-interpolation-filters="sRGB">
<feFlood flood-opacity="0" result="BackgroundImageFix"/>
<feBlend mode="normal" in="SourceGraphic" in2="BackgroundImageFix" result="shape"/>
<feGaussianBlur stdDeviation="10.5" result="effect1_foregroundBlur_394_715"/>
</filter>
<filter id="filter1_f_394_715" x="102.006" y="66.9839" width="72.6777" height="106.617" filterUnits="userSpaceOnUse" color-interpolation-filters="sRGB">
<feFlood flood-opacity="0" result="BackgroundImageFix"/>
<feBlend mode="normal" in="SourceGraphic" in2="BackgroundImageFix" result="shape"/>
<feGaussianBlur stdDeviation="10.5" result="effect1_foregroundBlur_394_715"/>
</filter>
<filter id="filter2_f_394_715" x="184.279" y="46.5981" width="70.6914" height="60.0688" filterUnits="userSpaceOnUse" color-interpolation-filters="sRGB">
<feFlood flood-opacity="0" result="BackgroundImageFix"/>
<feBlend mode="normal" in="SourceGraphic" in2="BackgroundImageFix" result="shape"/>
<feGaussianBlur stdDeviation="10.5" result="effect1_foregroundBlur_394_715"/>
</filter>
<linearGradient id="paint0_linear_394_715" x1="185.201" y1="89.365" x2="188.191" y2="109.3" gradientUnits="userSpaceOnUse">
<stop offset="0.18824" stop-color="#05772E"/>
<stop offset="0.569606" stop-color="#005920"/>
</linearGradient>
<linearGradient id="paint1_linear_394_715" x1="185.201" y1="89.365" x2="188.191" y2="109.3" gradientUnits="userSpaceOnUse">
<stop offset="0.18824" stop-color="#05772E"/>
<stop offset="0.569606" stop-color="#005920"/>
</linearGradient>
<clipPath id="clip0_394_715">
<rect width="416" height="314" fill="white"/>
</clipPath>
</defs>
</svg>
